<svg width="40" height="40" viewBox="0 0 40 40" fill="none" xmlns="http://www.w3.org/2000/svg">
<path d="M7.75025 6.24286C7.61806 6.24268 7.48713 6.26853 7.36492 6.31893C7.24257 6.3694 7.13136 6.44348 7.03766 6.53694L7.03694 6.53766L7.14286 7.25H6.74286V7.25025V10.8929C6.74286 11.2698 6.5931 11.6314 6.32653 11.898C6.05996 12.1645 5.69842 12.3143 5.32143 12.3143C4.94444 12.3143 4.5829 12.1645 4.31633 11.898C4.04976 11.6314 3.9 11.2698 3.9 10.8929V7.25C3.9 6.22892 4.30562 5.24965 5.02764 4.52764C5.74965 3.80562 6.72892 3.4 7.75 3.4H11.3929C11.7698 3.4 12.1314 3.54976 12.398 3.81633C12.6645 4.0829 12.8143 4.44444 12.8143 4.82143C12.8143 5.19842 12.6645 5.55996 12.398 5.82653C12.1314 6.0931 11.7698 6.24286 11.3929 6.24286H7.75025ZM7.75025 6.24286C7.75041 6.24286 7.75056 6.24286 7.75071 6.24286L7.75 6.64286M7.75025 6.24286H7.75V6.64286M7.75 6.64286C7.67022 6.64271 7.59119 6.6583 7.51743 6.68872C7.44367 6.71914 7.37663 6.7638 7.32014 6.82014L7.75 6.64286ZM10.8082 29.0167L10.8084 29.0161C11.5447 27.0396 12.8676 25.3356 14.5999 24.1324C16.3321 22.9292 18.3909 22.2845 20.5 22.2846H20.5C22.609 22.2845 24.6654 22.9292 26.3977 24.1324C28.1298 25.3355 29.4527 27.0394 30.189 29.0156C30.3463 29.4394 30.0222 29.9214 29.4784 29.9214H11.5167C10.9744 29.9214 10.65 29.439 10.8082 29.0167ZM36.6837 28.102C36.9502 28.3686 37.1 28.7302 37.1 29.1071V32.75C37.1 33.7711 36.6944 34.7503 35.9724 35.4724C35.2503 36.1944 34.2711 36.6 33.25 36.6H29.6071C29.2302 36.6 28.8686 36.4502 28.602 36.1837C28.3355 35.9171 28.1857 35.5556 28.1857 35.1786C28.1857 34.8016 28.3355 34.44 28.602 34.1735C28.8686 33.9069 29.2302 33.7571 29.6071 33.7571H33.25C33.5171 33.7571 33.7733 33.651 33.9622 33.4622C34.151 33.2733 34.2571 33.0171 34.2571 32.75V29.1071C34.2571 28.7302 34.4069 28.3686 34.6735 28.102C34.94 27.8355 35.3016 27.6857 35.6786 27.6857C36.0556 27.6857 36.4171 27.8355 36.6837 28.102ZM5.32143 27.6857C5.69841 27.6857 6.05996 27.8355 6.32653 28.102C6.5931 28.3686 6.74286 28.7302 6.74286 29.1071V32.75C6.74286 33.0171 6.84897 33.2733 7.03784 33.4622C7.22672 33.651 7.48289 33.7571 7.75 33.7571H11.3929C11.7698 33.7571 12.1314 33.9069 12.398 34.1735C12.6645 34.44 12.8143 34.8016 12.8143 35.1786C12.8143 35.5556 12.6645 35.9171 12.398 36.1837C12.1314 36.4502 11.7698 36.6 11.3929 36.6H7.75C6.72892 36.6 5.74965 36.1944 5.02764 35.4724C4.30562 34.7503 3.9 33.7711 3.9 32.75V29.1071C3.9 28.7302 4.04976 28.3686 4.31633 28.102C4.5829 27.8355 4.94444 27.6857 5.32143 27.6857ZM28.602 3.81633C28.8686 3.54976 29.2302 3.4 29.6071 3.4H33.25C34.2711 3.4 35.2503 3.80562 35.9724 4.52764C36.6944 5.24965 37.1 6.22892 37.1 7.25V10.8929C37.1 11.2698 36.9502 11.6314 36.6837 11.898C36.4171 12.1645 36.0556 12.3143 35.6786 12.3143C35.3016 12.3143 34.94 12.1645 34.6735 11.898C34.4069 11.6314 34.2571 11.2698 34.2571 10.8929V7.25C34.2571 6.98289 34.151 6.72672 33.9622 6.53784C33.7733 6.34897 33.5171 6.24286 33.25 6.24286H29.6071C29.2302 6.24286 28.8686 6.0931 28.602 5.82653C28.3355 5.55996 28.1857 5.19841 28.1857 4.82143C28.1857 4.44444 28.3355 4.0829 28.602 3.81633ZM25.4623 13.8339C25.4623 15.1515 24.9388 16.4153 24.0071 17.347C23.0753 18.2788 21.8116 18.8022 20.4939 18.8022C19.1762 18.8022 17.9125 18.2788 16.9808 17.347C16.049 16.4153 15.5256 15.1515 15.5256 13.8339C15.5256 12.5162 16.049 11.2524 16.9808 10.3207C17.9125 9.38895 19.1762 8.8655 20.4939 8.8655C21.8116 8.8655 23.0753 9.38895 24.0071 10.3207C24.9388 11.2524 25.4623 12.5162 25.4623 13.8339Z" fill="#2C4F87" fill-opacity="0.5" stroke="#E6E8EE" stroke-width="0.8"/>
</svg>
