<svg width="40" height="40" viewBox="0 0 40 40" fill="none" xmlns="http://www.w3.org/2000/svg">
<path d="M6.66665 24.6667C5.78259 24.6667 4.93474 25.0179 4.30962 25.643C3.6845 26.2681 3.33331 27.116 3.33331 28V31.3334H36.6666V28C36.6666 27.116 36.3155 26.2681 35.6903 25.643C35.0652 25.0179 34.2174 24.6667 33.3333 24.6667M6.66665 24.6667H33.3333M6.66665 24.6667C6.66665 21.1305 8.0714 17.7391 10.5719 15.2386C13.0724 12.7381 16.4638 11.3334 20 11.3334M33.3333 24.6667C33.3333 21.1305 31.9286 17.7391 29.4281 15.2386C26.9276 12.7381 23.5362 11.3334 20 11.3334M20 11.3334V4.66669M16.6666 4.66669H23.3333" stroke="#2C4F87" stroke-opacity="0.5" stroke-width="2.5" stroke-linecap="round" stroke-linejoin="round"/>
</svg>
