<svg width="428" height="429" viewBox="0 0 428 429" fill="none" xmlns="http://www.w3.org/2000/svg">
<path opacity="0.02" d="M417 214.5C417 326.914 326.09 418 214 418C101.91 418 11 326.914 11 214.5C11 102.086 101.91 11 214 11C326.09 11 417 102.086 417 214.5Z" stroke="#5A7298" stroke-width="22"/>
<path opacity="0.02" d="M361.834 214.5C361.834 296.547 295.54 363 213.834 363C132.128 363 65.834 296.547 65.834 214.5C65.834 132.453 132.128 66 213.834 66C295.54 66 361.834 132.453 361.834 214.5Z" stroke="#5A7298" stroke-width="22"/>
<path opacity="0.05" d="M314.834 214.5C314.834 270.583 269.588 316 213.834 316C158.08 316 112.834 270.583 112.834 214.5C112.834 158.417 158.08 113 213.834 113C269.588 113 314.834 158.417 314.834 214.5Z" stroke="#5A7298" stroke-width="12"/>
<circle opacity="0.15" cx="213.334" cy="214.5" r="67.5" stroke="#5A7298" stroke-width="6"/>
<path fill-rule="evenodd" clip-rule="evenodd" d="M222.5 255.616C219.702 256.195 216.804 256.5 213.834 256.5C190.362 256.5 171.334 237.472 171.334 214C171.334 190.528 190.362 171.5 213.834 171.5C237.306 171.5 256.334 190.528 256.334 214C256.334 216.054 256.188 218.075 255.906 220.051L258.357 220.576C258.671 218.43 258.834 216.234 258.834 214C258.834 189.147 238.687 169 213.834 169C188.981 169 168.834 189.147 168.834 214C168.834 238.853 188.981 259 213.834 259C216.987 259 220.064 258.676 223.034 258.059L222.5 255.616Z" fill="#5A7298"/>
<g clip-path="url(#clip0_490_1746)">
<path d="M244.096 244.267L244.096 238.431L250.349 240.098L252.851 237.18L258.27 238.431L264.107 237.18L267.859 241.349L273.695 240.098L275.78 243.016L278.698 257.608L274.529 266.78L264.107 272.199L252.851 269.698C250.905 268.586 246.931 266.279 246.597 265.946C246.264 265.612 248.126 260.248 249.098 257.608L244.096 244.267Z" fill="#F0F1F3"/>
<mask id="path-7-inside-1_490_1746" fill="white">
<path fill-rule="evenodd" clip-rule="evenodd" d="M238.228 232.666C237.778 231.374 237.86 229.956 238.455 228.724C239.05 227.492 240.11 226.547 241.402 226.097C242.694 225.647 244.112 225.728 245.344 226.323C246.576 226.918 247.521 227.979 247.972 229.271L250.543 236.648C251.109 236.044 251.816 235.579 252.612 235.302C253.904 234.852 255.322 234.933 256.554 235.528C257.245 235.862 257.845 236.342 258.319 236.926C258.486 236.719 258.67 236.525 258.869 236.345C259.378 235.884 259.975 235.53 260.624 235.303C261.273 235.077 261.96 234.982 262.646 235.024C263.332 235.067 264.002 235.246 264.618 235.552C265.233 235.857 265.781 236.282 266.23 236.802C266.679 237.323 267.02 237.928 267.231 238.581L267.423 239.132C267.786 238.841 268.198 238.612 268.645 238.456L269.619 238.116C272.308 237.179 275.25 238.598 276.189 241.29L279.414 250.545C279.44 250.597 279.462 250.65 279.482 250.705C281.42 256.265 280.698 260.966 278.315 264.646C275.97 268.27 272.116 270.755 268.027 272.181C263.898 273.619 260.039 273.802 256.38 272.909C252.756 272.027 249.407 270.112 246.23 267.472L235.472 259.712C234.446 258.958 233.747 257.841 233.518 256.589C233.29 255.337 233.548 254.044 234.241 252.977C234.934 251.909 236.009 251.146 237.245 250.845C238.482 250.544 239.787 250.727 240.893 251.357L245.721 254.164L238.228 232.666ZM247.838 265.238C247.875 265.263 247.911 265.29 247.945 265.318C250.915 267.795 253.91 269.475 257.031 270.237C260.139 270.993 263.455 270.86 267.121 269.582C270.826 268.291 274.087 266.111 276.004 263.15C277.864 260.277 278.553 256.526 276.938 251.769C276.913 251.719 276.892 251.667 276.873 251.614L273.59 242.196C273.153 240.941 271.779 240.277 270.525 240.715L269.55 241.054C269.206 241.174 268.923 241.426 268.764 241.755C268.605 242.083 268.584 242.461 268.704 242.806L268.704 242.806L269.157 244.105C269.277 244.45 269.255 244.828 269.096 245.156C268.938 245.485 268.655 245.737 268.31 245.857C267.966 245.977 267.588 245.955 267.259 245.797C266.93 245.638 266.678 245.355 266.558 245.011L264.633 239.487C264.537 239.179 264.38 238.893 264.171 238.647C263.963 238.401 263.707 238.199 263.419 238.054C263.13 237.909 262.816 237.824 262.494 237.803C262.172 237.782 261.849 237.826 261.544 237.932C261.24 238.038 260.96 238.205 260.721 238.422C260.482 238.639 260.289 238.901 260.154 239.194C260.019 239.487 259.944 239.804 259.934 240.127C259.923 240.449 259.978 240.771 260.095 241.071L260.663 242.692C260.682 242.747 260.698 242.804 260.71 242.862L261.197 244.257C261.317 244.602 261.295 244.98 261.136 245.308C260.977 245.637 260.695 245.889 260.35 246.009C260.006 246.129 259.627 246.107 259.299 245.949C258.97 245.79 258.718 245.507 258.598 245.163L256.583 239.381C256.373 238.779 255.932 238.284 255.357 238.006C254.782 237.728 254.121 237.69 253.518 237.9C252.915 238.111 252.42 238.552 252.142 239.127C251.864 239.702 251.826 240.363 252.036 240.966L254.414 247.787C254.534 248.131 254.512 248.509 254.353 248.838C254.195 249.166 253.912 249.418 253.567 249.538C253.223 249.659 252.845 249.637 252.516 249.478C252.187 249.319 251.935 249.037 251.815 248.692L249.438 241.872C249.36 241.646 249.297 241.417 249.251 241.185C249.193 241.095 249.145 240.997 249.109 240.894L245.374 230.176C245.163 229.573 244.722 229.078 244.147 228.801C243.572 228.523 242.911 228.485 242.308 228.695C241.705 228.905 241.21 229.346 240.932 229.921C240.654 230.496 240.617 231.158 240.827 231.761L249.496 256.635C249.532 256.71 249.561 256.788 249.583 256.869C249.63 257.044 249.643 257.228 249.619 257.408C249.595 257.588 249.536 257.762 249.444 257.92C249.353 258.077 249.231 258.214 249.086 258.324C248.941 258.434 248.776 258.514 248.6 258.56C248.424 258.606 248.24 258.616 248.06 258.59C247.88 258.564 247.707 258.503 247.551 258.41L239.513 253.734C239.017 253.449 238.431 253.365 237.874 253.499C237.318 253.634 236.834 253.976 236.523 254.456C236.211 254.936 236.095 255.517 236.199 256.08C236.303 256.643 236.619 257.144 237.081 257.482L247.838 265.238Z"/>
</mask>
<path fill-rule="evenodd" clip-rule="evenodd" d="M238.228 232.666C237.778 231.374 237.86 229.956 238.455 228.724C239.05 227.492 240.11 226.547 241.402 226.097C242.694 225.647 244.112 225.728 245.344 226.323C246.576 226.918 247.521 227.979 247.972 229.271L250.543 236.648C251.109 236.044 251.816 235.579 252.612 235.302C253.904 234.852 255.322 234.933 256.554 235.528C257.245 235.862 257.845 236.342 258.319 236.926C258.486 236.719 258.67 236.525 258.869 236.345C259.378 235.884 259.975 235.53 260.624 235.303C261.273 235.077 261.96 234.982 262.646 235.024C263.332 235.067 264.002 235.246 264.618 235.552C265.233 235.857 265.781 236.282 266.23 236.802C266.679 237.323 267.02 237.928 267.231 238.581L267.423 239.132C267.786 238.841 268.198 238.612 268.645 238.456L269.619 238.116C272.308 237.179 275.25 238.598 276.189 241.29L279.414 250.545C279.44 250.597 279.462 250.65 279.482 250.705C281.42 256.265 280.698 260.966 278.315 264.646C275.97 268.27 272.116 270.755 268.027 272.181C263.898 273.619 260.039 273.802 256.38 272.909C252.756 272.027 249.407 270.112 246.23 267.472L235.472 259.712C234.446 258.958 233.747 257.841 233.518 256.589C233.29 255.337 233.548 254.044 234.241 252.977C234.934 251.909 236.009 251.146 237.245 250.845C238.482 250.544 239.787 250.727 240.893 251.357L245.721 254.164L238.228 232.666ZM247.838 265.238C247.875 265.263 247.911 265.29 247.945 265.318C250.915 267.795 253.91 269.475 257.031 270.237C260.139 270.993 263.455 270.86 267.121 269.582C270.826 268.291 274.087 266.111 276.004 263.15C277.864 260.277 278.553 256.526 276.938 251.769C276.913 251.719 276.892 251.667 276.873 251.614L273.59 242.196C273.153 240.941 271.779 240.277 270.525 240.715L269.55 241.054C269.206 241.174 268.923 241.426 268.764 241.755C268.605 242.083 268.584 242.461 268.704 242.806L268.704 242.806L269.157 244.105C269.277 244.45 269.255 244.828 269.096 245.156C268.938 245.485 268.655 245.737 268.31 245.857C267.966 245.977 267.588 245.955 267.259 245.797C266.93 245.638 266.678 245.355 266.558 245.011L264.633 239.487C264.537 239.179 264.38 238.893 264.171 238.647C263.963 238.401 263.707 238.199 263.419 238.054C263.13 237.909 262.816 237.824 262.494 237.803C262.172 237.782 261.849 237.826 261.544 237.932C261.24 238.038 260.96 238.205 260.721 238.422C260.482 238.639 260.289 238.901 260.154 239.194C260.019 239.487 259.944 239.804 259.934 240.127C259.923 240.449 259.978 240.771 260.095 241.071L260.663 242.692C260.682 242.747 260.698 242.804 260.71 242.862L261.197 244.257C261.317 244.602 261.295 244.98 261.136 245.308C260.977 245.637 260.695 245.889 260.35 246.009C260.006 246.129 259.627 246.107 259.299 245.949C258.97 245.79 258.718 245.507 258.598 245.163L256.583 239.381C256.373 238.779 255.932 238.284 255.357 238.006C254.782 237.728 254.121 237.69 253.518 237.9C252.915 238.111 252.42 238.552 252.142 239.127C251.864 239.702 251.826 240.363 252.036 240.966L254.414 247.787C254.534 248.131 254.512 248.509 254.353 248.838C254.195 249.166 253.912 249.418 253.567 249.538C253.223 249.659 252.845 249.637 252.516 249.478C252.187 249.319 251.935 249.037 251.815 248.692L249.438 241.872C249.36 241.646 249.297 241.417 249.251 241.185C249.193 241.095 249.145 240.997 249.109 240.894L245.374 230.176C245.163 229.573 244.722 229.078 244.147 228.801C243.572 228.523 242.911 228.485 242.308 228.695C241.705 228.905 241.21 229.346 240.932 229.921C240.654 230.496 240.617 231.158 240.827 231.761L249.496 256.635C249.532 256.71 249.561 256.788 249.583 256.869C249.63 257.044 249.643 257.228 249.619 257.408C249.595 257.588 249.536 257.762 249.444 257.92C249.353 258.077 249.231 258.214 249.086 258.324C248.941 258.434 248.776 258.514 248.6 258.56C248.424 258.606 248.24 258.616 248.06 258.59C247.88 258.564 247.707 258.503 247.551 258.41L239.513 253.734C239.017 253.449 238.431 253.365 237.874 253.499C237.318 253.634 236.834 253.976 236.523 254.456C236.211 254.936 236.095 255.517 236.199 256.08C236.303 256.643 236.619 257.144 237.081 257.482L247.838 265.238Z" fill="#51698F"/>
<path d="M238.455 228.724L238.635 228.811L238.635 228.811L238.455 228.724ZM247.972 229.271L247.783 229.336L247.972 229.271ZM250.543 236.648L250.354 236.714L250.463 237.027L250.689 236.785L250.543 236.648ZM256.554 235.528L256.467 235.709L256.467 235.709L256.554 235.528ZM258.319 236.926L258.163 237.052L258.319 237.244L258.474 237.052L258.319 236.926ZM258.869 236.345L259.003 236.494L259.003 236.494L258.869 236.345ZM262.646 235.024L262.633 235.224L262.633 235.224L262.646 235.024ZM266.23 236.802L266.382 236.672L266.382 236.672L266.23 236.802ZM267.231 238.581L267.041 238.643L267.042 238.647L267.231 238.581ZM267.423 239.132L267.234 239.197L267.327 239.464L267.548 239.288L267.423 239.132ZM279.414 250.545L279.225 250.611L279.23 250.623L279.235 250.634L279.414 250.545ZM278.315 264.646L278.147 264.538L278.147 264.538L278.315 264.646ZM256.38 272.909L256.428 272.715L256.428 272.715L256.38 272.909ZM246.23 267.472L246.358 267.318L246.347 267.31L246.23 267.472ZM235.472 259.712L235.353 259.873L235.355 259.874L235.472 259.712ZM233.518 256.589L233.715 256.553L233.518 256.589ZM234.241 252.977L234.409 253.085L234.409 253.085L234.241 252.977ZM237.245 250.845L237.293 251.039L237.293 251.039L237.245 250.845ZM240.893 251.357L240.994 251.184L240.992 251.183L240.893 251.357ZM245.721 254.164L245.62 254.336L246.088 254.608L245.91 254.098L245.721 254.164ZM247.838 265.238L247.721 265.4L247.726 265.403L247.838 265.238ZM247.945 265.318L247.817 265.472L247.817 265.472L247.945 265.318ZM257.031 270.237L256.984 270.432L256.984 270.432L257.031 270.237ZM276.004 263.15L275.836 263.041L275.836 263.041L276.004 263.15ZM276.938 251.769L277.127 251.705L277.123 251.692L277.117 251.681L276.938 251.769ZM268.764 241.755L268.584 241.668L268.584 241.668L268.764 241.755ZM268.704 242.806L268.77 242.995L268.959 242.929L268.893 242.74L268.704 242.806ZM268.704 242.806L268.638 242.617L268.449 242.683L268.515 242.872L268.704 242.806ZM269.096 245.156L269.276 245.243L269.276 245.243L269.096 245.156ZM267.259 245.797L267.172 245.977L267.172 245.977L267.259 245.797ZM264.633 239.487L264.442 239.546L264.444 239.553L264.633 239.487ZM264.171 238.647L264.324 238.518L264.324 238.518L264.171 238.647ZM263.419 238.054L263.329 238.233L263.329 238.233L263.419 238.054ZM262.494 237.803L262.481 238.002L262.481 238.002L262.494 237.803ZM260.154 239.194L259.972 239.11L259.972 239.11L260.154 239.194ZM259.934 240.127L260.133 240.133L260.133 240.133L259.934 240.127ZM260.095 241.071L260.284 241.005L260.281 240.999L260.095 241.071ZM260.663 242.692L260.474 242.758L260.474 242.758L260.663 242.692ZM260.71 242.862L260.515 242.903L260.517 242.916L260.521 242.928L260.71 242.862ZM261.136 245.308L260.956 245.221L260.956 245.221L261.136 245.308ZM259.299 245.949L259.386 245.768L259.386 245.768L259.299 245.949ZM255.357 238.006L255.27 238.186L255.27 238.186L255.357 238.006ZM252.142 239.127L252.322 239.214L252.322 239.214L252.142 239.127ZM252.036 240.966L252.225 240.9L252.036 240.966ZM254.414 247.787L254.225 247.852L254.414 247.787ZM254.353 248.838L254.173 248.751L254.173 248.751L254.353 248.838ZM252.516 249.478L252.603 249.298L252.603 249.298L252.516 249.478ZM249.251 241.185L249.447 241.146L249.44 241.109L249.419 241.077L249.251 241.185ZM249.109 240.894L248.92 240.96L249.109 240.894ZM245.374 230.176L245.562 230.11L245.374 230.176ZM244.147 228.801L244.234 228.621L244.234 228.621L244.147 228.801ZM240.932 229.921L240.752 229.834L240.752 229.834L240.932 229.921ZM240.827 231.761L240.638 231.827L240.827 231.761ZM249.496 256.635L249.307 256.701L249.311 256.711L249.316 256.721L249.496 256.635ZM249.583 256.869L249.776 256.817L249.776 256.817L249.583 256.869ZM249.619 257.408L249.421 257.382L249.421 257.382L249.619 257.408ZM248.6 258.56L248.55 258.366L248.55 258.366L248.6 258.56ZM247.551 258.41L247.653 258.238L247.651 258.237L247.551 258.41ZM239.513 253.734L239.614 253.562L239.613 253.561L239.513 253.734ZM237.874 253.499L237.921 253.694L237.921 253.694L237.874 253.499ZM236.523 254.456L236.69 254.565L236.69 254.565L236.523 254.456ZM236.199 256.08L236.396 256.044L236.396 256.044L236.199 256.08ZM237.081 257.482L236.963 257.643L236.964 257.644L237.081 257.482ZM238.275 228.637C237.656 229.917 237.572 231.39 238.04 232.732L238.417 232.601C237.984 231.359 238.063 229.996 238.635 228.811L238.275 228.637ZM241.336 225.908C239.994 226.376 238.893 227.358 238.275 228.637L238.635 228.811C239.207 227.627 240.226 226.719 241.468 226.286L241.336 225.908ZM245.431 226.143C244.151 225.525 242.678 225.44 241.336 225.908L241.468 226.286C242.71 225.853 244.073 225.931 245.257 226.503L245.431 226.143ZM248.161 229.205C247.693 227.863 246.711 226.761 245.431 226.143L245.257 226.503C246.442 227.075 247.35 228.094 247.783 229.336L248.161 229.205ZM250.732 236.583L248.161 229.205L247.783 229.336L250.354 236.714L250.732 236.583ZM252.546 235.113C251.72 235.401 250.984 235.884 250.397 236.512L250.689 236.785C251.233 236.205 251.913 235.758 252.678 235.491L252.546 235.113ZM256.641 235.348C255.361 234.73 253.888 234.646 252.546 235.113L252.678 235.491C253.92 235.058 255.283 235.136 256.467 235.709L256.641 235.348ZM258.474 236.8C257.982 236.193 257.358 235.695 256.641 235.348L256.467 235.709C257.131 236.029 257.708 236.49 258.163 237.052L258.474 236.8ZM258.735 236.197C258.528 236.383 258.337 236.585 258.163 236.8L258.474 237.052C258.635 236.853 258.812 236.666 259.003 236.494L258.735 236.197ZM260.558 235.115C259.884 235.35 259.264 235.718 258.735 236.197L259.003 236.494C259.493 236.051 260.066 235.71 260.69 235.492L260.558 235.115ZM262.658 234.825C261.946 234.78 261.232 234.879 260.558 235.115L260.69 235.492C261.313 235.274 261.974 235.183 262.633 235.224L262.658 234.825ZM264.706 235.372C264.067 235.055 263.371 234.869 262.658 234.825L262.633 235.224C263.293 235.265 263.937 235.437 264.529 235.731L264.706 235.372ZM266.382 236.672C265.915 236.131 265.346 235.69 264.706 235.372L264.529 235.731C265.12 236.024 265.647 236.433 266.079 236.933L266.382 236.672ZM267.422 238.52C267.202 237.841 266.848 237.212 266.382 236.672L266.079 236.933C266.51 237.433 266.837 238.015 267.041 238.643L267.422 238.52ZM267.612 239.066L267.42 238.515L267.042 238.647L267.234 239.197L267.612 239.066ZM268.579 238.267C268.11 238.43 267.678 238.671 267.298 238.975L267.548 239.288C267.893 239.011 268.285 238.793 268.71 238.645L268.579 238.267ZM269.553 237.927L268.579 238.267L268.71 238.645L269.685 238.305L269.553 237.927ZM276.377 241.224C275.403 238.428 272.347 236.954 269.553 237.927L269.685 238.305C272.27 237.404 275.098 238.768 276 241.356L276.377 241.224ZM279.603 250.479L276.377 241.224L276 241.356L279.225 250.611L279.603 250.479ZM279.235 250.634C279.257 250.678 279.276 250.724 279.293 250.771L279.67 250.639C279.649 250.576 279.623 250.515 279.593 250.456L279.235 250.634ZM279.293 250.771C281.212 256.278 280.493 260.914 278.147 264.538L278.483 264.755C280.902 261.019 281.627 256.252 279.67 250.639L279.293 250.771ZM278.147 264.538C275.834 268.113 272.022 270.576 267.961 271.992L268.092 272.369C272.21 270.934 276.107 268.427 278.483 264.755L278.147 264.538ZM267.961 271.992C263.866 273.419 260.047 273.598 256.428 272.715L256.333 273.103C260.032 274.006 263.93 273.82 268.092 272.369L267.961 271.992ZM256.428 272.715C252.841 271.842 249.519 269.945 246.358 267.318L246.102 267.626C249.295 270.279 252.672 272.212 256.333 273.103L256.428 272.715ZM235.355 259.874L246.113 267.634L246.347 267.31L235.589 259.55L235.355 259.874ZM233.322 256.625C233.56 257.927 234.287 259.089 235.354 259.873L235.59 259.551C234.606 258.827 233.935 257.755 233.715 256.553L233.322 256.625ZM234.073 252.868C233.352 253.978 233.084 255.322 233.322 256.625L233.715 256.553C233.495 255.351 233.744 254.11 234.409 253.085L234.073 252.868ZM237.198 250.651C235.912 250.964 234.794 251.757 234.073 252.868L234.409 253.085C235.074 252.06 236.105 251.328 237.293 251.039L237.198 250.651ZM240.992 251.183C239.842 250.528 238.484 250.338 237.198 250.651L237.293 251.039C238.48 250.75 239.733 250.926 240.794 251.53L240.992 251.183ZM245.821 253.991L240.994 251.184L240.793 251.529L245.62 254.336L245.821 253.991ZM238.04 232.732L245.532 254.229L245.91 254.098L238.417 232.601L238.04 232.732ZM247.726 265.403C247.757 265.425 247.787 265.448 247.817 265.472L248.073 265.165C248.034 265.132 247.993 265.101 247.951 265.073L247.726 265.403ZM247.817 265.472C250.803 267.962 253.825 269.66 256.984 270.432L257.079 270.043C253.995 269.29 251.027 267.628 248.073 265.165L247.817 265.472ZM256.984 270.432C260.132 271.197 263.487 271.061 267.187 269.771L267.055 269.393C263.423 270.659 260.146 270.789 257.079 270.043L256.984 270.432ZM267.187 269.771C270.92 268.47 274.224 266.268 276.172 263.259L275.836 263.041C273.951 265.954 270.732 268.112 267.055 269.393L267.187 269.771ZM276.172 263.259C278.068 260.33 278.76 256.515 277.127 251.705L276.749 251.833C278.345 256.538 277.661 260.223 275.836 263.041L276.172 263.259ZM276.684 251.68C276.705 251.741 276.73 251.8 276.758 251.857L277.117 251.681C277.096 251.638 277.078 251.594 277.062 251.548L276.684 251.68ZM273.402 242.261L276.684 251.68L277.062 251.548L273.779 242.13L273.402 242.261ZM270.59 240.903C271.741 240.502 273 241.111 273.402 242.261L273.779 242.13C273.305 240.771 271.818 240.052 270.459 240.526L270.59 240.903ZM269.616 241.243L270.59 240.903L270.459 240.526L269.484 240.865L269.616 241.243ZM268.944 241.842C269.08 241.561 269.322 241.346 269.616 241.243L269.484 240.865C269.09 241.003 268.766 241.291 268.584 241.668L268.944 241.842ZM268.893 242.74C268.79 242.446 268.809 242.123 268.944 241.842L268.584 241.668C268.402 242.044 268.377 242.477 268.515 242.872L268.893 242.74ZM268.77 242.995L268.77 242.995L268.638 242.617L268.638 242.617L268.77 242.995ZM269.345 244.039L268.893 242.74L268.515 242.872L268.968 244.171L269.345 244.039ZM269.276 245.243C269.458 244.867 269.483 244.434 269.345 244.039L268.968 244.171C269.07 244.465 269.052 244.789 268.916 245.069L269.276 245.243ZM268.376 246.046C268.771 245.908 269.095 245.62 269.276 245.243L268.916 245.069C268.781 245.35 268.539 245.565 268.244 245.668L268.376 246.046ZM267.172 245.977C267.548 246.159 267.981 246.183 268.376 246.046L268.244 245.668C267.95 245.771 267.627 245.752 267.346 245.617L267.172 245.977ZM266.37 245.076C266.507 245.471 266.796 245.795 267.172 245.977L267.346 245.617C267.065 245.481 266.85 245.239 266.747 244.945L266.37 245.076ZM264.444 239.553L266.37 245.076L266.747 244.945L264.822 239.421L264.444 239.553ZM264.019 238.776C264.21 239.002 264.354 239.264 264.442 239.546L264.824 239.427C264.72 239.094 264.55 238.784 264.324 238.518L264.019 238.776ZM263.329 238.233C263.593 238.366 263.828 238.551 264.019 238.776L264.324 238.518C264.098 238.251 263.821 238.033 263.508 237.876L263.329 238.233ZM262.481 238.002C262.776 238.021 263.064 238.1 263.329 238.233L263.508 237.876C263.196 237.719 262.856 237.626 262.507 237.603L262.481 238.002ZM261.61 238.121C261.89 238.023 262.186 237.983 262.481 238.002L262.507 237.603C262.158 237.58 261.808 237.628 261.479 237.743L261.61 238.121ZM260.855 238.57C261.074 238.371 261.331 238.218 261.61 238.121L261.479 237.743C261.149 237.858 260.845 238.039 260.586 238.274L260.855 238.57ZM260.335 239.278C260.459 239.01 260.636 238.769 260.855 238.57L260.586 238.274C260.328 238.509 260.119 238.793 259.972 239.11L260.335 239.278ZM260.133 240.133C260.143 239.837 260.211 239.547 260.335 239.278L259.972 239.11C259.826 239.428 259.745 239.771 259.734 240.121L260.133 240.133ZM260.281 240.999C260.175 240.723 260.124 240.429 260.133 240.133L259.734 240.121C259.723 240.47 259.782 240.818 259.908 241.144L260.281 240.999ZM260.851 242.626L260.284 241.005L259.906 241.138L260.474 242.758L260.851 242.626ZM260.906 242.82C260.892 242.754 260.874 242.689 260.851 242.626L260.474 242.758C260.491 242.806 260.504 242.854 260.515 242.903L260.906 242.82ZM261.385 244.191L260.899 242.796L260.521 242.928L261.008 244.323L261.385 244.191ZM261.316 245.395C261.498 245.019 261.523 244.586 261.385 244.191L261.008 244.323C261.11 244.617 261.092 244.94 260.956 245.221L261.316 245.395ZM260.416 246.198C260.811 246.06 261.134 245.772 261.316 245.395L260.956 245.221C260.82 245.502 260.579 245.717 260.284 245.82L260.416 246.198ZM259.212 246.129C259.588 246.31 260.021 246.335 260.416 246.198L260.284 245.82C259.99 245.923 259.667 245.904 259.386 245.768L259.212 246.129ZM258.409 245.228C258.547 245.623 258.836 245.947 259.212 246.129L259.386 245.768C259.105 245.633 258.89 245.391 258.787 245.097L258.409 245.228ZM256.395 239.447L258.409 245.228L258.787 245.097L256.772 239.316L256.395 239.447ZM255.27 238.186C255.797 238.441 256.202 238.894 256.395 239.447L256.772 239.316C256.545 238.663 256.067 238.127 255.444 237.826L255.27 238.186ZM253.583 238.089C254.136 237.897 254.743 237.931 255.27 238.186L255.444 237.826C254.821 237.525 254.105 237.484 253.452 237.712L253.583 238.089ZM252.322 239.214C252.577 238.686 253.031 238.282 253.583 238.089L253.452 237.712C252.799 237.939 252.263 238.417 251.962 239.04L252.322 239.214ZM252.225 240.9C252.033 240.348 252.067 239.741 252.322 239.214L251.962 239.04C251.661 239.662 251.62 240.379 251.848 241.032L252.225 240.9ZM254.602 247.721L252.225 240.9L251.848 241.032L254.225 247.852L254.602 247.721ZM254.533 248.925C254.715 248.549 254.74 248.115 254.602 247.721L254.225 247.852C254.327 248.147 254.309 248.47 254.173 248.751L254.533 248.925ZM253.633 249.727C254.028 249.59 254.352 249.301 254.533 248.925L254.173 248.751C254.038 249.032 253.796 249.247 253.501 249.35L253.633 249.727ZM252.429 249.658C252.805 249.84 253.238 249.865 253.633 249.727L253.501 249.35C253.207 249.452 252.884 249.434 252.603 249.298L252.429 249.658ZM251.627 248.758C251.764 249.153 252.053 249.476 252.429 249.658L252.603 249.298C252.322 249.162 252.107 248.921 252.004 248.626L251.627 248.758ZM249.249 241.938L251.627 248.758L252.004 248.626L249.627 241.806L249.249 241.938ZM249.055 241.224C249.103 241.465 249.168 241.703 249.249 241.938L249.627 241.806C249.552 241.589 249.492 241.368 249.447 241.146L249.055 241.224ZM248.92 240.96C248.961 241.078 249.016 241.19 249.083 241.293L249.419 241.077C249.369 241 249.329 240.916 249.298 240.828L248.92 240.96ZM245.185 230.242L248.92 240.96L249.298 240.828L245.562 230.11L245.185 230.242ZM244.06 228.981C244.588 229.235 244.992 229.689 245.185 230.242L245.562 230.11C245.335 229.457 244.857 228.921 244.234 228.621L244.06 228.981ZM242.374 228.884C242.926 228.691 243.533 228.726 244.06 228.981L244.234 228.621C243.612 228.32 242.895 228.279 242.242 228.506L242.374 228.884ZM241.112 230.008C241.367 229.481 241.821 229.077 242.374 228.884L242.242 228.506C241.589 228.734 241.053 229.212 240.752 229.834L241.112 230.008ZM241.016 231.695C240.823 231.142 240.858 230.535 241.112 230.008L240.752 229.834C240.451 230.457 240.41 231.174 240.638 231.827L241.016 231.695ZM249.685 256.569L241.016 231.695L240.638 231.827L249.307 256.701L249.685 256.569ZM249.776 256.817C249.751 256.724 249.718 256.635 249.677 256.549L249.316 256.721C249.346 256.785 249.371 256.852 249.39 256.921L249.776 256.817ZM249.817 257.434C249.844 257.228 249.83 257.018 249.776 256.817L249.39 256.921C249.43 257.071 249.441 257.228 249.421 257.382L249.817 257.434ZM249.617 258.02C249.722 257.84 249.79 257.641 249.817 257.434L249.421 257.382C249.4 257.536 249.35 257.685 249.271 257.819L249.617 258.02ZM249.207 258.484C249.373 258.358 249.513 258.2 249.617 258.02L249.271 257.819C249.193 257.954 249.089 258.071 248.965 258.165L249.207 258.484ZM248.65 258.754C248.852 258.701 249.041 258.61 249.207 258.484L248.965 258.165C248.841 258.259 248.7 258.327 248.55 258.366L248.65 258.754ZM248.032 258.788C248.238 258.818 248.448 258.806 248.65 258.754L248.55 258.366C248.399 258.405 248.242 258.414 248.089 258.392L248.032 258.788ZM247.448 258.582C247.627 258.689 247.826 258.759 248.032 258.788L248.089 258.392C247.935 258.37 247.787 258.318 247.653 258.238L247.448 258.582ZM239.413 253.907L247.45 258.583L247.651 258.237L239.614 253.562L239.413 253.907ZM237.921 253.694C238.428 253.572 238.962 253.648 239.414 253.908L239.613 253.561C239.073 253.25 238.433 253.159 237.827 253.305L237.921 253.694ZM236.69 254.565C236.974 254.128 237.415 253.816 237.921 253.694L237.827 253.305C237.221 253.451 236.694 253.824 236.355 254.347L236.69 254.565ZM236.396 256.044C236.301 255.531 236.407 255.002 236.69 254.565L236.355 254.347C236.015 254.87 235.889 255.503 236.002 256.116L236.396 256.044ZM237.199 257.32C236.778 257.013 236.49 256.556 236.396 256.044L236.002 256.116C236.116 256.729 236.459 257.276 236.963 257.643L237.199 257.32ZM247.955 265.076L237.198 257.319L236.964 257.644L247.721 265.4L247.955 265.076Z" fill="#F2F3F5" mask="url(#path-7-inside-1_490_1746)"/>
</g>
<path d="M214.001 192.167L220.468 206.183L235.797 208.002L224.463 218.481L227.472 233.623L214.001 226.083L200.53 233.625L203.538 218.483L192.205 208L207.536 206.181L214.001 192.167Z" stroke="#B11768" stroke-width="2.5" stroke-linejoin="round"/>
<defs>
<clipPath id="clip0_490_1746">
<rect width="55.0303" height="55.0303" fill="white" transform="translate(222.834 231.111) rotate(-19.2151)"/>
</clipPath>
</defs>
</svg>
