<svg width="40" height="40" viewBox="0 0 40 40" fill="none" xmlns="http://www.w3.org/2000/svg">
<path d="M33.3333 31.9167H33.5833V31.6667V8.33333V8.08333H33.3333H6.66665H6.41665V8.33333V31.6667V31.9167H6.66665H33.3333ZM6.66665 5.25H33.3333C35.0286 5.25 36.4166 6.63807 36.4166 8.33333V31.6667C36.4166 33.3619 35.0286 34.75 33.3333 34.75H6.66665C4.97138 34.75 3.58331 33.3619 3.58331 31.6667V8.33333C3.58331 6.63807 4.97138 5.25 6.66665 5.25Z" fill="#2C4F87" fill-opacity="0.5" stroke="#E6E8EE" stroke-width="0.5"/>
<path d="M24.8768 20.4601L29.9833 15.3535L31.9962 17.3665L24.7008 24.646L20.3529 20.2673L22.3494 18.2708L24.5226 20.4595L24.6994 20.6375L24.8768 20.4601ZM8.58331 11.9167H16.4166V14.75H8.58331V11.9167ZM8.58331 18.5833H16.4166V21.4167H8.58331V18.5833ZM8.58331 25.25H16.4166V28.0833H8.58331V25.25Z" fill="#2C4F87" fill-opacity="0.5" stroke="#E6E8EE" stroke-width="0.5"/>
</svg>
