<svg width="24" height="24" viewBox="0 0 24 24" fill="none" xmlns="http://www.w3.org/2000/svg">
<path fill-rule="evenodd" clip-rule="evenodd" d="M8.25 3C8.25 2.58579 8.58579 2.25 9 2.25H17C17.7293 2.25 18.4288 2.53973 18.9445 3.05546C19.4603 3.57118 19.75 4.27065 19.75 5V19C19.75 19.7293 19.4603 20.4288 18.9445 20.9445C18.4288 21.4603 17.7293 21.75 17 21.75H9C8.58579 21.75 8.25 21.4142 8.25 21C8.25 20.5858 8.58579 20.25 9 20.25H17C17.3315 20.25 17.6495 20.1183 17.8839 19.8839C18.1183 19.6495 18.25 19.3315 18.25 19V5C18.25 4.66848 18.1183 4.35054 17.8839 4.11612C17.6495 3.8817 17.3315 3.75 17 3.75H9C8.58579 3.75 8.25 3.41421 8.25 3ZM10.4697 7.46967C10.7626 7.17678 11.2374 7.17678 11.5303 7.46967L15.5303 11.4697C15.8232 11.7626 15.8232 12.2374 15.5303 12.5303L11.5303 16.5303C11.2374 16.8232 10.7626 16.8232 10.4697 16.5303C10.1768 16.2374 10.1768 15.7626 10.4697 15.4697L13.1893 12.75H5C4.58579 12.75 4.25 12.4142 4.25 12C4.25 11.5858 4.58579 11.25 5 11.25H13.1893L10.4697 8.53033C10.1768 8.23744 10.1768 7.76256 10.4697 7.46967Z" fill="white"/>
</svg>
