<svg width="20" height="18" viewBox="0 0 20 18" fill="none" xmlns="http://www.w3.org/2000/svg">
<path d="M13.4736 1.96875C11.9529 1.96875 10.6033 2.52633 9.6889 3.48469C8.77451 2.52633 7.42488 1.96875 5.90418 1.96875C4.57969 1.97024 3.30991 2.45964 2.37336 3.3296C1.4368 4.19957 0.909943 5.37906 0.90834 6.60938C0.90834 11.6958 8.91757 15.7598 9.2582 15.9307C9.39056 15.9969 9.53856 16.0316 9.6889 16.0316C9.83924 16.0316 9.98723 15.9969 10.1196 15.9307C10.4602 15.7598 18.4695 11.6958 18.4695 6.60938C18.4679 5.37906 17.941 4.19957 17.0044 3.3296C16.0679 2.45964 14.7981 1.97024 13.4736 1.96875ZM13.0581 11.9784C12.0038 12.8094 10.8769 13.5573 9.6889 14.2144C8.50091 13.5573 7.37396 12.8094 6.31974 11.9784C4.67944 10.6713 2.72501 8.67797 2.72501 6.60938C2.72501 5.82616 3.05995 5.07502 3.65616 4.5212C4.25237 3.96738 5.06101 3.65625 5.90418 3.65625C7.25154 3.65625 8.37938 4.31719 8.84793 5.38172C8.91613 5.5369 9.03254 5.6697 9.18232 5.76318C9.33209 5.85667 9.50845 5.90659 9.6889 5.90659C9.86934 5.90659 10.0457 5.85667 10.1955 5.76318C10.3453 5.6697 10.4617 5.5369 10.5299 5.38172C10.9984 4.31719 12.1263 3.65625 13.4736 3.65625C14.3168 3.65625 15.1254 3.96738 15.7216 4.5212C16.3178 5.07502 16.6528 5.82616 16.6528 6.60938C16.6528 8.67797 14.6984 10.6713 13.0581 11.9784Z" fill="white"/>
</svg>
