<svg width="20" height="21" viewBox="0 0 20 21" fill="none" xmlns="http://www.w3.org/2000/svg">
<path d="M9.99999 2.42212C6.33333 2.42212 3.33333 5.42212 3.33333 9.08878C3.33333 13.5888 9.16666 18.6721 9.41666 18.9221C9.58333 19.0054 9.83333 19.0888 9.99999 19.0888C10.1667 19.0888 10.4167 19.0054 10.5833 18.9221C10.8333 18.6721 16.6667 13.5888 16.6667 9.08878C16.6667 5.42212 13.6667 2.42212 9.99999 2.42212ZM9.99999 17.1721C8.24999 15.5055 4.99999 11.9221 4.99999 9.08878C4.99999 6.33879 7.24999 4.08879 9.99999 4.08879C12.75 4.08879 15 6.33879 15 9.08878C15 11.8388 11.75 15.5055 9.99999 17.1721ZM9.99999 5.75545C8.16666 5.75545 6.66666 7.25545 6.66666 9.08878C6.66666 10.9221 8.16666 12.4221 9.99999 12.4221C11.8333 12.4221 13.3333 10.9221 13.3333 9.08878C13.3333 7.25545 11.8333 5.75545 9.99999 5.75545ZM9.99999 10.7555C9.08333 10.7555 8.33333 10.0055 8.33333 9.08878C8.33333 8.17212 9.08333 7.42212 9.99999 7.42212C10.9167 7.42212 11.6667 8.17212 11.6667 9.08878C11.6667 10.0055 10.9167 10.7555 9.99999 10.7555Z" fill="white"/>
</svg>
