<svg width="12" height="9" viewBox="0 0 12 9" fill="none" xmlns="http://www.w3.org/2000/svg">
<path opacity="0.4" d="M5.25586 0.162109C5.50195 0.162109 5.625 0.307943 5.625 0.599609C5.625 0.736328 5.49284 0.886719 5.22852 1.05078C4.97331 1.20573 4.69076 1.39258 4.38086 1.61133C4.07096 1.82096 3.79297 2.0625 3.54688 2.33594C3 2.92839 2.72656 3.60286 2.72656 4.35938C2.72656 4.6875 2.81771 5.0293 3 5.38477C3.35547 6.04102 3.5332 6.52865 3.5332 6.84766C3.5332 7.02995 3.47396 7.23047 3.35547 7.44922C3.09115 7.89583 2.81771 8.11914 2.53516 8.11914C2.2526 8.11914 2.01562 8.06901 1.82422 7.96875C1.64193 7.85938 1.47786 7.72266 1.33203 7.55859C1.02214 7.19401 0.867188 6.73372 0.867188 6.17773C0.867188 5.62174 0.972005 5.03841 1.18164 4.42773C1.40039 3.80794 1.69661 3.23372 2.07031 2.70508C2.81771 1.67513 3.83398 0.841146 5.11914 0.203125C5.17383 0.175781 5.2194 0.162109 5.25586 0.162109ZM10.8613 0.162109C11.1074 0.162109 11.2305 0.307943 11.2305 0.599609C11.2305 0.736328 11.0983 0.886719 10.834 1.05078C10.5788 1.20573 10.2962 1.39258 9.98633 1.61133C9.67643 1.82096 9.39844 2.0625 9.15234 2.33594C8.60547 2.92839 8.33203 3.60286 8.33203 4.35938C8.33203 4.6875 8.42318 5.0293 8.60547 5.38477C8.96094 6.04102 9.13867 6.52865 9.13867 6.84766C9.13867 7.02995 9.07943 7.23047 8.96094 7.44922C8.69661 7.89583 8.42318 8.11914 8.14062 8.11914C7.85807 8.11914 7.62109 8.06901 7.42969 7.96875C7.2474 7.85938 7.08333 7.72266 6.9375 7.55859C6.6276 7.19401 6.47266 6.73372 6.47266 6.17773C6.47266 5.62174 6.57747 5.03841 6.78711 4.42773C7.00586 3.80794 7.30208 3.23372 7.67578 2.70508C8.42318 1.67513 9.43945 0.841146 10.7246 0.203125C10.7793 0.175781 10.8249 0.162109 10.8613 0.162109Z" fill="url(#paint0_linear_232_704)"/>
<defs>
<linearGradient id="paint0_linear_232_704" x1="-0.5" y1="-4.26229" x2="17.8774" y2="5.33074" gradientUnits="userSpaceOnUse">
<stop stop-color="#BFA586"/>
<stop offset="0.315" stop-color="#B98F66"/>
<stop offset="1" stop-color="#DDAD8C"/>
</linearGradient>
</defs>
</svg>
