<svg width="25" height="25" viewBox="0 0 25 25" fill="none" xmlns="http://www.w3.org/2000/svg">
<g opacity="0.5">
<path d="M12.332 13.5C13.9889 13.5 15.332 12.1569 15.332 10.5C15.332 8.84315 13.9889 7.5 12.332 7.5C10.6752 7.5 9.33203 8.84315 9.33203 10.5C9.33203 12.1569 10.6752 13.5 12.332 13.5Z" stroke="#EFF0F1" stroke-width="2" stroke-linecap="round" stroke-linejoin="round"/>
<path d="M12.332 2.5C10.2103 2.5 8.17547 3.34285 6.67518 4.84315C5.17489 6.34344 4.33203 8.37827 4.33203 10.5C4.33203 12.392 4.73403 13.63 5.83203 15L12.332 22.5L18.832 15C19.93 13.63 20.332 12.392 20.332 10.5C20.332 8.37827 19.4892 6.34344 17.9889 4.84315C16.4886 3.34285 14.4538 2.5 12.332 2.5Z" stroke="#EFF0F1" stroke-width="2" stroke-linecap="round" stroke-linejoin="round"/>
</g>
</svg>
