<svg width="25" height="25" viewBox="0 0 25 25" fill="none" xmlns="http://www.w3.org/2000/svg">
<g opacity="0.5" clip-path="url(#clip0_278_1730)">
<path d="M12.3311 2.5C17.8541 2.5 22.3311 6.977 22.3311 12.5C22.3311 18.023 17.8541 22.5 12.3311 22.5C6.80805 22.5 2.33105 18.023 2.33105 12.5C2.33105 6.977 6.80805 2.5 12.3311 2.5ZM12.3311 4.5C10.2093 4.5 8.17449 5.34285 6.6742 6.84315C5.17391 8.34344 4.33105 10.3783 4.33105 12.5C4.33105 14.6217 5.17391 16.6566 6.6742 18.1569C8.17449 19.6571 10.2093 20.5 12.3311 20.5C14.4528 20.5 16.4876 19.6571 17.9879 18.1569C19.4882 16.6566 20.3311 14.6217 20.3311 12.5C20.3311 10.3783 19.4882 8.34344 17.9879 6.84315C16.4876 5.34285 14.4528 4.5 12.3311 4.5ZM12.3311 6.5C12.576 6.50003 12.8124 6.58996 12.9954 6.75272C13.1785 6.91547 13.2954 7.13975 13.3241 7.383L13.3311 7.5V12.086L16.0381 14.793C16.2174 14.973 16.3215 15.2144 16.3293 15.4684C16.337 15.7223 16.2478 15.9697 16.0798 16.1603C15.9118 16.3508 15.6775 16.4703 15.4246 16.4944C15.1717 16.5185 14.919 16.4454 14.7181 16.29L14.6241 16.207L11.6241 13.207C11.4686 13.0514 11.3688 12.849 11.3401 12.631L11.3311 12.5V7.5C11.3311 7.23478 11.4364 6.98043 11.6239 6.79289C11.8115 6.60536 12.0658 6.5 12.3311 6.5Z" fill="#2C4F87"/>
</g>
<defs>
<clipPath id="clip0_278_1730">
<rect width="24" height="24" fill="white" transform="translate(0.331055 0.5)"/>
</clipPath>
</defs>
</svg>
