<svg width="25" height="25" viewBox="0 0 25 25" fill="none" xmlns="http://www.w3.org/2000/svg">
<g opacity="0.5">
<path d="M12.3311 13.5C13.9879 13.5 15.3311 12.1569 15.3311 10.5C15.3311 8.84315 13.9879 7.5 12.3311 7.5C10.6742 7.5 9.33105 8.84315 9.33105 10.5C9.33105 12.1569 10.6742 13.5 12.3311 13.5Z" stroke="#2C4F87" stroke-width="2" stroke-linecap="round" stroke-linejoin="round"/>
<path d="M12.3311 2.5C10.2093 2.5 8.17449 3.34285 6.6742 4.84315C5.17391 6.34344 4.33105 8.37827 4.33105 10.5C4.33105 12.392 4.73305 13.63 5.83105 15L12.3311 22.5L18.8311 15C19.9291 13.63 20.3311 12.392 20.3311 10.5C20.3311 8.37827 19.4882 6.34344 17.9879 4.84315C16.4876 3.34285 14.4528 2.5 12.3311 2.5Z" stroke="#2C4F87" stroke-width="2" stroke-linecap="round" stroke-linejoin="round"/>
</g>
</svg>
