<svg width="40" height="40" viewBox="0 0 40 40" fill="none" xmlns="http://www.w3.org/2000/svg">
<path d="M36.6153 15.454L36.6155 15.4546C36.7807 15.9596 36.794 16.5025 36.6537 17.0151C36.5134 17.5277 36.2257 17.9869 35.8271 18.3354L35.8267 18.3357L29.4798 23.9069L29.3676 24.0054L29.4011 24.1508L31.3057 32.4399L31.3058 32.4402C31.4252 32.9568 31.3905 33.4974 31.2063 33.9943C31.0221 34.4912 30.6965 34.9223 30.2705 35.2338C29.8444 35.5454 29.3367 35.7236 28.8109 35.7465C28.285 35.7693 27.764 35.6358 27.3129 35.3625L20.1345 30.9767L20.0042 30.8971L19.8738 30.9767L12.6954 35.3626C12.6952 35.3627 12.695 35.3628 12.6948 35.3629C12.2438 35.6365 11.7228 35.7702 11.1969 35.7475C10.6708 35.7249 10.1628 35.5467 9.73655 35.2351C9.31024 34.9235 8.98449 34.4923 8.80024 33.9951C8.61599 33.4979 8.58149 32.9571 8.7011 32.4403L8.70119 32.4399L10.6058 24.1508L10.6393 24.0054L10.5271 23.9069L4.1802 18.3357L4.17921 18.3348C3.77954 17.9877 3.49048 17.5294 3.34856 17.0172C3.20663 16.5051 3.21822 15.9622 3.38185 15.4567C3.54548 14.9512 3.8538 14.5058 4.26789 14.1762C4.68196 13.8467 5.18337 13.6477 5.7092 13.6039L5.71012 13.6038L14.0613 12.8772L14.212 12.864L14.2703 12.7245L17.5416 4.89313C17.5417 4.89299 17.5417 4.89286 17.5418 4.89272C17.7476 4.40529 18.0913 3.98976 18.5298 3.69775C18.9685 3.40566 19.4828 3.25 20.0086 3.25C20.5344 3.25 21.0486 3.40566 21.4873 3.69775C21.9258 3.98972 22.2695 4.40518 22.4753 4.89253C22.4754 4.89273 22.4755 4.89293 22.4755 4.89313L25.7424 12.7243L25.8006 12.864L25.9514 12.8772L34.3023 13.6037C34.8253 13.6501 35.3233 13.85 35.7346 14.1788C36.1459 14.5077 36.4522 14.9511 36.6153 15.454ZM27.2381 21.8466L27.2383 21.8464L32.819 16.9487L33.259 16.5626L32.6758 16.5118L25.3296 15.8721L25.3294 15.8721C24.8433 15.8302 24.3778 15.655 23.9836 15.3654C23.5893 15.0757 23.2815 14.6827 23.0936 14.2289L23.0934 14.2283L20.2349 7.37624L20.0042 6.82316L19.7735 7.37624L16.915 14.2283L16.9147 14.2289C16.7269 14.6827 16.419 15.0757 16.0248 15.3654C15.6306 15.655 15.1651 15.8302 14.679 15.8721L14.6787 15.8721L7.33261 16.5118L6.74937 16.5626L7.18939 16.9487L12.7701 21.8464L12.7703 21.8466C13.1379 22.1684 13.4115 22.5849 13.5616 23.0517C13.7117 23.5184 13.7325 24.0175 13.6218 24.4953L13.6216 24.4958L11.9529 31.7649L11.82 32.3439L12.3269 32.0342L18.6181 28.1903L18.6184 28.1902C19.036 27.9343 19.5154 27.7991 20.0042 27.7991C20.4929 27.7991 20.9724 27.9343 21.39 28.1902L21.3902 28.1903L27.6815 32.0342L28.1884 32.3439L28.0555 31.7649L26.3867 24.4958L26.3866 24.4953C26.2759 24.0175 26.2967 23.5184 26.4468 23.0517C26.5968 22.5849 26.8705 22.1684 27.2381 21.8466ZM7.69909 16.7308L7.5192 16.5729L7.3543 16.7608L7.37598 17.0099L7.61443 16.9891L12.935 21.6585L7.69909 16.7308Z" fill="#2C4F87" fill-opacity="0.5" stroke="#E6E8EE" stroke-width="0.5"/>
</svg>
