<svg width="20" height="21" viewBox="0 0 20 21" fill="none" xmlns="http://www.w3.org/2000/svg">
<path d="M15.8333 4.08862H4.16666C3.50362 4.08862 2.86773 4.35202 2.39889 4.82086C1.93005 5.2897 1.66666 5.92558 1.66666 6.58862V14.922C1.66666 15.585 1.93005 16.2209 2.39889 16.6897C2.86773 17.1586 3.50362 17.422 4.16666 17.422H15.8333C16.4964 17.422 17.1322 17.1586 17.6011 16.6897C18.0699 16.2209 18.3333 15.585 18.3333 14.922V6.58862C18.3333 5.92558 18.0699 5.2897 17.6011 4.82086C17.1322 4.35202 16.4964 4.08862 15.8333 4.08862ZM15.275 5.75529L9.99999 9.71362L4.72499 5.75529H15.275ZM15.8333 15.7553H4.16666C3.94564 15.7553 3.73368 15.6675 3.5774 15.5112C3.42112 15.3549 3.33332 15.143 3.33332 14.922V6.79696L9.49999 11.422C9.64424 11.5301 9.81968 11.5886 9.99999 11.5886C10.1803 11.5886 10.3557 11.5301 10.5 11.422L16.6667 6.79696V14.922C16.6667 15.143 16.5789 15.3549 16.4226 15.5112C16.2663 15.6675 16.0543 15.7553 15.8333 15.7553Z" fill="white"/>
</svg>
