<svg width="60" height="60" viewBox="0 0 60 60" fill="none" xmlns="http://www.w3.org/2000/svg">
<path opacity="0.2" fill-rule="evenodd" clip-rule="evenodd" d="M30 57.5C45.1878 57.5 57.5 45.1878 57.5 30C57.5 14.8122 45.1878 2.5 30 2.5C14.8122 2.5 2.5 14.8122 2.5 30C2.5 45.1878 14.8122 57.5 30 57.5ZM30 60C46.5685 60 60 46.5685 60 30C60 13.4315 46.5685 0 30 0C13.4315 0 0 13.4315 0 30C0 46.5685 13.4315 60 30 60Z" fill="#2C4F87"/>
<path opacity="0.4" d="M30.4844 32.6973C30.4661 32.9525 30.3932 33.1621 30.2656 33.3262C30.138 33.4811 29.9557 33.5586 29.7188 33.5586C29.4818 33.5586 29.2949 33.4811 29.1582 33.3262C29.0306 33.1621 28.9577 32.9525 28.9395 32.6973L27.9277 19.5312V18.8066C27.9277 18.6061 27.9779 18.4648 28.0781 18.3828C28.1784 18.3008 28.3151 18.2598 28.4883 18.2598C28.5339 18.2598 28.5885 18.2598 28.6523 18.2598C28.7253 18.2507 28.8073 18.2461 28.8984 18.2461C29.0169 18.237 29.1536 18.2324 29.3086 18.2324C29.4727 18.2324 29.6094 18.2324 29.7188 18.2324C29.8737 18.2324 30.0469 18.2324 30.2383 18.2324C30.4388 18.2324 30.6165 18.2415 30.7715 18.2598C30.8809 18.2598 31.0085 18.2917 31.1543 18.3555C31.3092 18.4102 31.4232 18.5378 31.4961 18.7383V19.5312L30.4844 32.6973ZM27.7773 37.5918C27.7773 37.3275 27.8275 37.0768 27.9277 36.8398C28.0371 36.6029 28.1784 36.3978 28.3516 36.2246C28.5339 36.0423 28.7389 35.901 28.9668 35.8008C29.2038 35.7005 29.4544 35.6504 29.7188 35.6504C29.9922 35.6504 30.2474 35.7051 30.4844 35.8145C30.7214 35.9147 30.9264 36.056 31.0996 36.2383C31.2728 36.4206 31.4095 36.6302 31.5098 36.8672C31.61 37.1042 31.6602 37.3503 31.6602 37.6055C31.6602 37.8698 31.61 38.1204 31.5098 38.3574C31.4095 38.5853 31.2682 38.7904 31.0859 38.9727C30.9128 39.1458 30.7077 39.2826 30.4707 39.3828C30.2337 39.4831 29.9831 39.5332 29.7188 39.5332C29.4362 39.5332 29.1764 39.4831 28.9395 39.3828C28.7025 39.2826 28.4974 39.1458 28.3242 38.9727C28.151 38.7904 28.0143 38.5853 27.9141 38.3574C27.8229 38.1204 27.7773 37.8652 27.7773 37.5918Z" fill="#2C4F87"/>
</svg>
