<svg width="24" height="24" viewBox="0 0 24 24" fill="none" xmlns="http://www.w3.org/2000/svg">
<g clip-path="url(#clip0_403_1783)">
<path fill-rule="evenodd" clip-rule="evenodd" d="M17.8175 6.98903C17.4645 6.48103 16.5205 5.76703 14.9915 6.07503C14.0995 6.25403 13.5665 6.69503 13.2275 7.27703C12.8665 7.89703 12.6915 8.74003 12.6915 9.72103C12.6915 9.98624 12.5862 10.2406 12.3986 10.4281C12.2111 10.6157 11.9567 10.721 11.6915 10.721C9.32553 10.721 7.07353 10.018 5.17853 8.11703C5.03546 8.88832 4.97911 9.6732 5.01053 10.457C5.06353 11.543 5.32253 12.632 5.93753 13.565C6.54253 14.482 7.53753 15.322 9.20153 15.85C9.36458 15.9017 9.51164 15.9944 9.62865 16.1192C9.74565 16.244 9.82869 16.3967 9.86982 16.5628C9.91096 16.7288 9.90881 16.9026 9.86359 17.0676C9.81837 17.2326 9.73158 17.3832 9.61153 17.505C9.07852 18.0517 8.47445 18.5243 7.81553 18.91C8.87553 19.02 9.89753 19.028 10.8455 18.942C12.7655 18.768 14.2945 18.219 15.2505 17.442C17.2635 15.81 18.3405 13.376 18.1405 9.29803C18.1065 8.62803 18.7535 7.90503 19.0655 7.35603C18.5945 7.44403 18.1225 7.42803 17.8175 6.98903ZM4.59453 4.98403C4.77558 4.96299 4.95895 4.99183 5.12479 5.06744C5.29064 5.14305 5.43267 5.26255 5.53553 5.41303C7.01153 7.57203 8.78353 8.47003 10.7505 8.67403C10.8465 7.83303 11.0735 7.00203 11.5005 6.27003C12.1265 5.19603 13.1445 4.40603 14.5985 4.11403C16.6085 3.71003 18.1385 4.43803 19.0255 5.32903L20.8175 4.99403C21.0051 4.95889 21.1987 4.97813 21.3757 5.04947C21.5526 5.12082 21.7054 5.24129 21.8161 5.39667C21.9268 5.55206 21.9908 5.73586 22.0004 5.9264C22.0101 6.11695 21.965 6.30627 21.8705 6.47203L20.1505 9.49403C20.3075 13.855 19.0955 16.899 16.5115 18.996C15.1415 20.108 13.1795 20.739 11.0265 20.934C8.85653 21.13 6.40353 20.893 3.96553 20.181C3.75722 20.1203 3.57433 19.9934 3.44446 19.8196C3.31458 19.6457 3.24477 19.4344 3.24556 19.2174C3.24635 19.0004 3.3177 18.7896 3.44884 18.6167C3.57998 18.4438 3.76379 18.3183 3.97253 18.259C5.19853 17.91 6.13253 17.609 6.97553 17.082C5.77653 16.446 4.89353 15.614 4.26853 14.666C3.40053 13.348 3.07853 11.878 3.01453 10.553C2.95053 9.22803 3.14153 8.00003 3.34353 7.11503C3.45853 6.61003 3.59253 6.10403 3.77753 5.62003C3.84279 5.44942 3.95353 5.29994 4.09773 5.18782C4.24194 5.0757 4.4131 5.00522 4.59453 4.98403Z" fill="#001E45"/>
</g>
<defs>
<clipPath id="clip0_403_1783">
<rect width="24" height="24" fill="white"/>
</clipPath>
</defs>
</svg>
