<svg width="40" height="40" viewBox="0 0 40 40" fill="none" xmlns="http://www.w3.org/2000/svg">
<path d="M28.3334 11.6667C28.3334 6.14334 25.02 3.33334 20 3.33334C14.98 3.33334 11.6667 6.14334 11.6667 11.6667M20 20V24.1667" stroke="#2C4F87" stroke-opacity="0.5" stroke-width="2.5" stroke-linecap="round"/>
<path d="M20 14.885L19.1133 15.765C19.2295 15.8819 19.3677 15.9747 19.5198 16.038C19.672 16.1013 19.8352 16.1339 20 16.1339C20.1648 16.1339 20.328 16.1013 20.4802 16.038C20.6323 15.9747 20.7705 15.8819 20.8867 15.765L20 14.885ZM16.2017 33.365C13.9183 31.6233 11.4483 29.94 9.48667 27.8017C7.57 25.7117 6.25 23.2934 6.25 20.165H3.75C3.75 24.1 5.445 27.0933 7.645 29.4917C9.80167 31.8433 12.5533 33.725 14.685 35.3533L16.2017 33.365ZM6.25 20.1667C6.25 17.1267 8.025 14.56 10.475 13.475C12.8567 12.4217 16.0617 12.6984 19.1133 15.7667L20.8867 14.005C17.1867 10.285 12.895 9.67168 9.46333 11.1883C6.1 12.6767 3.75 16.145 3.75 20.1667H6.25ZM14.6833 35.355C15.4517 35.94 16.2833 36.5717 17.1267 37.0483C17.9717 37.5267 18.9433 37.9184 20 37.9184V35.4183C19.5567 35.4183 19.0283 35.2517 18.3583 34.8717C17.6883 34.4934 16.9917 33.97 16.2017 33.3667L14.6833 35.355ZM25.3167 35.3533C27.4467 33.725 30.1983 31.845 32.355 29.4933C34.555 27.095 36.25 24.1017 36.25 20.1667H33.75C33.75 23.295 32.43 25.7133 30.5133 27.8033C28.5517 29.9417 26.08 31.625 23.7983 33.3667L25.3167 35.3533ZM36.25 20.1667C36.25 16.145 33.9 12.6767 30.5367 11.19C27.105 9.67002 22.8117 10.285 19.1133 14.005L20.8867 15.7667C23.9367 12.6984 27.1433 12.4217 29.525 13.475C31.975 14.5584 33.75 17.125 33.75 20.1667H36.25ZM23.7983 33.3667C23.0067 33.97 22.3117 34.4934 21.6417 34.8717C20.9717 35.2517 20.4417 35.4183 20 35.4183V37.9184C21.0567 37.9184 22.0283 37.5267 22.8733 37.0483C23.7167 36.57 24.5483 35.9383 25.3167 35.3533L23.7983 33.3667Z" fill="#2C4F87" fill-opacity="0.5"/>
</svg>
