<svg width="25" height="25" viewBox="0 0 25 25" fill="none" xmlns="http://www.w3.org/2000/svg">
<g opacity="0.5" clip-path="url(#clip0_506_1650)">
<path d="M12.332 2.5C17.855 2.5 22.332 6.977 22.332 12.5C22.332 18.023 17.855 22.5 12.332 22.5C6.80903 22.5 2.33203 18.023 2.33203 12.5C2.33203 6.977 6.80903 2.5 12.332 2.5ZM12.332 4.5C10.2103 4.5 8.17547 5.34285 6.67518 6.84315C5.17489 8.34344 4.33203 10.3783 4.33203 12.5C4.33203 14.6217 5.17489 16.6566 6.67518 18.1569C8.17547 19.6571 10.2103 20.5 12.332 20.5C14.4538 20.5 16.4886 19.6571 17.9889 18.1569C19.4892 16.6566 20.332 14.6217 20.332 12.5C20.332 10.3783 19.4892 8.34344 17.9889 6.84315C16.4886 5.34285 14.4538 4.5 12.332 4.5ZM12.332 6.5C12.577 6.50003 12.8134 6.58996 12.9964 6.75272C13.1794 6.91547 13.2964 7.13975 13.325 7.383L13.332 7.5V12.086L16.039 14.793C16.2184 14.973 16.3225 15.2144 16.3303 15.4684C16.338 15.7223 16.2488 15.9697 16.0808 16.1603C15.9127 16.3508 15.6785 16.4703 15.4256 16.4944C15.1726 16.5185 14.92 16.4454 14.719 16.29L14.625 16.207L11.625 13.207C11.4696 13.0514 11.3698 12.849 11.341 12.631L11.332 12.5V7.5C11.332 7.23478 11.4374 6.98043 11.6249 6.79289C11.8125 6.60536 12.0668 6.5 12.332 6.5Z" fill="#EFF0F1"/>
</g>
<defs>
<clipPath id="clip0_506_1650">
<rect width="24" height="24" fill="white" transform="translate(0.332031 0.5)"/>
</clipPath>
</defs>
</svg>
