<svg width="23" height="19" viewBox="0 0 23 19" fill="none" xmlns="http://www.w3.org/2000/svg">
<path d="M0 12.3391C0 7.8742 2.11954 4.12516 6.35861 1.09195C7.35176 0.363985 8.09057 0 8.57504 0C8.91417 0 9.08373 0.218391 9.08373 0.655172C9.08373 1.06769 9.01106 1.37101 8.86572 1.56513C8.7446 1.73499 8.58715 1.89272 8.39336 2.03831C8.19958 2.18391 8.00579 2.31737 7.81201 2.4387C7.61822 2.56003 7.3881 2.74202 7.12164 2.98467C4.74776 5.02299 3.56082 7.01277 3.56082 8.95402C3.56082 9.99745 3.98473 10.5192 4.83254 10.5192C8.39336 10.5192 10.1738 11.9872 10.1738 14.9234C10.1738 16.0639 9.73776 17.0345 8.86572 17.8352C7.99368 18.6117 7.03686 19 5.99526 19C4.08162 19 2.604 18.2599 1.5624 16.7797C0.5208 15.2752 0 13.795 0 12.3391ZM12.8626 12.3391C12.8626 7.8014 14.9215 4.08876 19.0395 1.20115C20.0084 0.400383 20.7351 0 21.2196 0C21.7041 0 21.9463 0.218391 21.9463 0.655172C21.9463 1.06769 21.8736 1.35888 21.7283 1.52874C21.6072 1.6986 21.4497 1.86845 21.2559 2.03831C21.0621 2.18391 20.8684 2.31737 20.6746 2.4387C20.4808 2.56003 20.2628 2.74202 20.0205 2.98467C17.574 5.16858 16.3507 7.15837 16.3507 8.95402C16.3507 9.99745 16.7988 10.5192 17.6951 10.5192C21.2317 10.5192 23 11.9751 23 14.887C23 16.0032 22.564 16.9738 21.6919 17.7989C20.8441 18.5996 19.8873 19 18.8215 19C16.9563 19 15.4908 18.272 14.425 16.8161C13.3834 15.3359 12.8626 13.8436 12.8626 12.3391Z" fill="url(#paint0_linear_279_2086)"/>
<defs>
<linearGradient id="paint0_linear_279_2086" x1="-1.70327e-07" y1="1.86885" x2="8.48132" y2="20.3829" gradientUnits="userSpaceOnUse">
<stop stop-color="#BFA586"/>
<stop offset="0.315" stop-color="#B98F66"/>
<stop offset="1" stop-color="#DDAD8C"/>
</linearGradient>
</defs>
</svg>
