<svg width="18" height="19" viewBox="0 0 18 19" fill="none" xmlns="http://www.w3.org/2000/svg">
<g clip-path="url(#clip0_232_355)">
<path fill-rule="evenodd" clip-rule="evenodd" d="M6.129 12.6272C9.01275 15.511 11.685 15.8267 12.4695 15.856C13.4175 15.8905 14.385 15.1165 14.8035 14.3237C14.136 13.5407 13.2668 12.9332 12.315 12.2747C11.7533 12.8357 11.061 13.8782 10.1393 13.5047C9.615 13.294 8.3205 12.6977 7.1895 11.566C6.05775 10.435 5.46225 9.14047 5.25 8.61697C4.8765 7.69372 5.922 6.99997 6.48375 6.43822C5.82525 5.47072 5.22825 4.57897 4.44675 3.94522C3.64275 4.36522 2.86425 5.32522 2.8995 6.28597C2.92875 7.07047 3.2445 9.74272 6.129 12.6272ZM12.414 17.3552C11.334 17.3155 8.27325 16.8925 5.06775 13.6877C1.863 10.4822 1.44075 7.42222 1.40025 6.34147C1.34025 4.69447 2.60175 3.09472 4.059 2.46997C4.23448 2.3942 4.42665 2.36535 4.61665 2.38625C4.80665 2.40716 4.98794 2.4771 5.14275 2.58922C6.34875 3.46897 7.1805 4.80172 7.89525 5.84572C8.04394 6.06281 8.11205 6.32505 8.08781 6.58705C8.06357 6.84906 7.94849 7.09435 7.7625 7.28047L6.7455 8.29822C6.98175 8.81947 7.4625 9.71797 8.25 10.5055C9.0375 11.293 9.936 11.7737 10.458 12.01L11.4743 10.993C11.6611 10.8066 11.9074 10.6917 12.1703 10.6682C12.4331 10.6448 12.6959 10.7143 12.9128 10.8647C13.9777 11.6027 15.2288 12.4225 16.1408 13.5902C16.262 13.7462 16.3391 13.9318 16.364 14.1277C16.389 14.3236 16.3608 14.5227 16.2825 14.704C15.6548 16.1687 14.0663 17.416 12.414 17.3552Z" fill="white"/>
</g>
<defs>
<clipPath id="clip0_232_355">
<rect width="18" height="18" fill="white" transform="translate(0 0.755371)"/>
</clipPath>
</defs>
</svg>
