<svg width="243" height="55" viewBox="0 0 243 55" fill="none" xmlns="http://www.w3.org/2000/svg">
<path d="M226.999 37.95C226.699 37.95 226.349 37.8 225.949 37.5C225.599 37.2 225.424 36.9 225.424 36.6C225.424 35.65 225.674 34.5 226.174 33.15C226.674 31.8 227.274 30.4 227.974 28.95C228.724 27.5 229.449 26.125 230.149 24.825C230.899 23.525 231.524 22.45 232.024 21.6C232.274 21.15 232.474 20.675 232.624 20.175C232.824 19.675 233.099 19.225 233.449 18.825C233.849 18.875 234.299 19 234.799 19.2C235.349 19.4 235.624 19.775 235.624 20.325C235.624 20.725 235.374 21.175 234.874 21.675C234.424 22.125 234.074 22.5 233.824 22.8C232.724 24.05 231.724 25.4 230.824 26.85C229.974 28.3 229.199 29.775 228.499 31.275C228.349 31.575 228.224 31.875 228.124 32.175C228.024 32.425 227.924 32.675 227.824 32.925C227.724 33.175 227.599 33.425 227.449 33.675C227.299 33.875 227.224 34.1 227.224 34.35C227.224 34.45 227.249 34.575 227.299 34.725C227.349 34.875 227.449 34.95 227.599 34.95C227.999 34.55 228.624 33.875 229.474 32.925C230.324 31.925 231.249 30.9 232.249 29.85C233.249 28.75 234.149 27.8 234.949 27C235.799 26.2 236.374 25.725 236.674 25.575C236.774 25.525 236.874 25.5 236.974 25.5C237.074 25.45 237.174 25.425 237.274 25.425C238.074 25.425 238.699 25.8 239.149 26.55C239.599 27.25 239.824 27.95 239.824 28.65C239.824 29.45 239.749 30.225 239.599 30.975C239.449 31.725 239.374 32.475 239.374 33.225C239.374 33.825 239.499 34.6 239.749 35.55C239.999 36.5 240.524 36.975 241.324 36.975C241.524 36.875 241.749 36.775 241.999 36.675C242.249 36.575 242.474 36.525 242.674 36.525C242.824 36.525 242.899 36.625 242.899 36.825C242.899 37.075 242.749 37.275 242.449 37.425C242.199 37.575 241.974 37.65 241.774 37.65C241.024 37.65 240.249 37.325 239.449 36.675C238.649 35.975 238.149 35.275 237.949 34.575C237.749 33.825 237.599 33.075 237.499 32.325C237.449 31.525 237.424 30.75 237.424 30C237.424 29.65 237.449 29.15 237.499 28.5C237.599 27.8 237.649 27.35 237.649 27.15C237.349 27.15 236.949 27.375 236.449 27.825C235.949 28.225 235.474 28.675 235.024 29.175C234.574 29.625 234.249 29.975 234.049 30.225C233.949 30.325 233.799 30.425 233.599 30.525C233.449 30.625 233.299 30.75 233.149 30.9C232.949 31.15 232.724 31.45 232.474 31.8C232.224 32.1 231.974 32.375 231.724 32.625C231.624 32.725 231.399 32.9 231.049 33.15C230.749 33.4 230.549 33.6 230.449 33.75C230.199 34.25 229.874 34.725 229.474 35.175C229.074 35.625 228.699 36.1 228.349 36.6C228.249 36.75 228.149 36.95 228.049 37.2C227.949 37.4 227.824 37.55 227.674 37.65C227.524 37.85 227.299 37.95 226.999 37.95Z" fill="#D0D4DF"/>
<path d="M205.284 38.925C204.584 38.925 203.809 38.55 202.959 37.8C202.109 37 201.684 36.225 201.684 35.475H201.609C201.659 35.275 201.709 34.8 201.759 34.05C201.809 33.3 201.934 32.9 202.134 32.85V32.7C202.184 32.65 202.309 32.45 202.509 32.1C202.709 31.75 202.909 31.375 203.109 30.975C203.359 30.575 203.509 30.325 203.559 30.225C203.709 29.975 204.109 29.5 204.759 28.8C205.409 28.05 206.084 27.35 206.784 26.7C207.484 26.05 207.934 25.725 208.134 25.725C208.434 25.275 208.984 24.775 209.784 24.225C210.634 23.675 211.484 23.15 212.334 22.65C213.234 22.15 213.859 21.8 214.209 21.6V21.525L214.284 21.6H214.359C214.559 21.4 214.934 21.2 215.484 21C216.084 20.75 216.484 20.6 216.684 20.55C217.034 20.4 217.384 20.3 217.734 20.25C218.084 20.2 218.434 20.15 218.784 20.1C219.034 20.15 219.284 20.175 219.534 20.175C219.834 20.175 220.109 20.2 220.359 20.25C220.859 20.35 221.409 20.625 222.009 21.075C222.609 21.475 222.909 21.975 222.909 22.575C222.859 22.625 222.809 22.7 222.759 22.8C222.709 22.9 222.709 22.975 222.759 23.025L222.459 22.875C222.159 22.325 221.709 22 221.109 21.9C220.509 21.75 219.934 21.675 219.384 21.675C218.034 21.675 216.609 22.025 215.109 22.725C213.609 23.375 212.134 24.25 210.684 25.35C209.234 26.45 207.934 27.625 206.784 28.875C205.684 30.125 204.859 31.325 204.309 32.475L204.084 33.375C203.984 33.875 203.834 34.35 203.634 34.8C203.434 35.25 203.334 35.75 203.334 36.3C203.334 36.7 203.384 37 203.484 37.2C203.584 37.35 203.759 37.6 204.009 37.95L204.159 37.875V37.95L204.309 37.8L204.609 37.875C204.959 37.675 205.334 37.525 205.734 37.425C206.134 37.275 206.459 37.075 206.709 36.825L206.859 36.675C207.159 36.575 207.434 36.4 207.684 36.15C207.934 35.9 208.159 35.675 208.359 35.475C209.109 34.775 209.859 34.075 210.609 33.375C211.359 32.675 212.059 31.95 212.709 31.2C213.059 30.8 213.509 30.3 214.059 29.7C214.609 29.1 215.084 28.675 215.484 28.425L215.559 28.125C215.959 27.975 216.334 27.625 216.684 27.075C217.084 26.525 217.459 26 217.809 25.5C218.209 24.95 218.584 24.675 218.934 24.675L219.234 24.6C219.634 24.6 219.959 24.775 220.209 25.125C220.459 25.425 220.584 25.75 220.584 26.1C220.584 26.5 220.459 26.95 220.209 27.45C219.959 27.95 219.784 28.4 219.684 28.8C219.434 29.85 219.259 30.8 219.159 31.65C219.059 32.45 219.009 33.375 219.009 34.425C219.009 35.075 219.109 35.625 219.309 36.075C219.559 36.525 219.909 37 220.359 37.5H220.734C221.434 37.1 221.934 36.675 222.234 36.225C222.534 35.775 222.909 35.3 223.359 34.8C223.409 34.8 223.459 34.775 223.509 34.725C223.559 34.675 223.584 34.65 223.584 34.65C223.684 34.65 223.734 34.7 223.734 34.8C223.734 35 223.684 35.2 223.584 35.4C223.534 35.55 223.484 35.75 223.434 36C223.334 36.55 223.184 37.075 222.984 37.575C222.834 38.025 222.359 38.25 221.559 38.25C221.109 38.25 220.609 38.15 220.059 37.95C219.509 37.75 219.059 37.475 218.709 37.125C217.959 36.275 217.484 35.35 217.284 34.35C217.134 33.3 217.059 32.225 217.059 31.125V28.725H216.909C216.709 29.025 216.484 29.325 216.234 29.625C215.984 29.925 215.734 30.225 215.484 30.525C215.284 30.725 215.034 30.95 214.734 31.2C214.484 31.4 214.259 31.65 214.059 31.95C213.959 31.95 213.759 32.125 213.459 32.475C213.209 32.775 213.084 33 213.084 33.15C212.734 33.2 212.334 33.5 211.884 34.05C211.484 34.6 211.209 34.875 211.059 34.875C211.009 35.025 210.834 35.275 210.534 35.625C210.234 35.925 210.009 36.15 209.859 36.3C209.509 36.35 209.209 36.525 208.959 36.825C208.759 37.125 208.559 37.4 208.359 37.65C207.909 37.85 207.409 38.125 206.859 38.475C206.309 38.775 205.784 38.925 205.284 38.925Z" fill="#D0D4DF"/>
<path d="M198.954 42.9749C198.704 42.9749 198.454 42.95 198.204 42.9C198.004 42.85 197.779 42.8 197.529 42.75L197.304 42.9C196.504 42.25 195.979 41.35 195.729 40.2C195.529 39.05 195.429 37.9999 195.429 37.0499C195.429 36.0499 195.454 35.0499 195.504 34.0499C195.604 32.9999 195.679 31.9999 195.729 31.0499C195.779 30.3499 195.879 29.65 196.029 28.95C196.229 28.25 196.329 27.575 196.329 26.9249C196.329 26.6249 196.304 26.425 196.254 26.325L196.104 26.1749L195.954 26.25C195.554 26.45 195.179 26.95 194.829 27.75C194.529 28.5 194.279 29.0749 194.079 29.4749C193.929 29.7749 193.579 30.3749 193.029 31.2749C192.529 32.1249 192.004 32.95 191.454 33.75C190.904 34.55 190.504 35.05 190.254 35.25C189.804 35.6 189.354 35.775 188.904 35.775C188.404 35.775 187.929 35.65 187.479 35.4C187.079 35.15 186.879 34.725 186.879 34.125C186.879 33.925 187.004 33.425 187.254 32.625C187.554 31.825 187.904 30.9249 188.304 29.9249C188.704 28.9249 189.029 27.975 189.279 27.075C189.579 26.125 189.729 25.3999 189.729 24.8999C189.729 24.5999 189.654 24.45 189.504 24.45C189.304 24.45 188.879 24.7249 188.229 25.2749C187.629 25.7749 187.029 26.3249 186.429 26.9249C185.829 27.475 185.454 27.8499 185.304 28.0499L184.779 28.95C183.979 29.6 183.254 30.3749 182.604 31.2749C182.554 31.3249 182.504 31.4 182.454 31.5C182.404 31.6 182.354 31.6999 182.304 31.7999C182.204 31.9499 181.954 32.275 181.554 32.775C181.204 33.225 180.829 33.675 180.429 34.125C180.079 34.525 179.804 34.775 179.604 34.875C179.454 35.225 179.254 35.5499 179.004 35.8499C178.804 36.0999 178.554 36.3749 178.254 36.6749C177.954 36.9749 177.579 37.5749 177.129 38.4749C176.729 39.3749 176.454 40.0249 176.304 40.4249C176.254 40.5249 176.054 40.6249 175.704 40.7249C175.404 40.8249 175.179 40.875 175.029 40.875C174.829 40.875 174.579 40.775 174.279 40.575C174.029 40.375 173.904 40.1749 173.904 39.9749C173.904 39.8249 174.079 39.3249 174.429 38.4749C174.829 37.6249 175.279 36.6499 175.779 35.5499C176.279 34.4499 176.729 33.475 177.129 32.625C177.579 31.775 177.854 31.3 177.954 31.2C177.904 31.1 177.929 31 178.029 30.9C178.129 30.8 178.204 30.7249 178.254 30.6749C178.254 30.4249 178.404 30.0499 178.704 29.5499C179.004 28.9999 179.204 28.6249 179.304 28.4249C179.754 27.5749 180.254 26.5499 180.804 25.3499C181.404 24.1499 181.904 22.9499 182.304 21.75C182.754 20.55 182.979 19.4999 182.979 18.5999C182.679 18.5999 182.379 18.65 182.079 18.75C181.779 18.85 181.479 18.8999 181.179 18.8999C180.979 18.7499 180.879 18.625 180.879 18.525C180.879 18.225 181.229 18.075 181.929 18.075C182.229 18.175 182.654 18.2249 183.204 18.2249C183.804 18.1749 184.354 18.1999 184.854 18.2999C185.354 18.3999 185.604 18.7249 185.604 19.2749C185.604 19.5249 185.379 20.1 184.929 21C184.529 21.9 184.029 22.9499 183.429 24.1499C182.829 25.2999 182.254 26.4 181.704 27.45C181.204 28.5 180.854 29.275 180.654 29.775C180.604 30.025 180.479 30.25 180.279 30.45C180.079 30.6 179.979 30.85 179.979 31.2C179.829 31.25 179.754 31.4 179.754 31.65C179.754 31.7 179.754 31.775 179.754 31.875C179.804 31.975 179.829 32.0749 179.829 32.1749H179.904C180.004 31.9749 180.304 31.5749 180.804 30.9749C181.304 30.3749 181.829 29.775 182.379 29.1749C182.929 28.5249 183.279 28.1 183.429 27.9H183.579C184.329 27.05 185.079 26.25 185.829 25.5C186.629 24.7 187.504 24 188.454 23.4C188.654 23.3 188.779 23.1749 188.829 23.0249L188.979 23.0999C189.079 23.0999 189.179 23.0749 189.279 23.0249C189.429 22.9749 189.579 22.9499 189.729 22.9499C190.279 22.9499 190.804 23.175 191.304 23.625C191.804 24.075 192.054 24.5999 192.054 25.1999C192.054 25.9499 191.804 26.7249 191.304 27.5249C190.854 28.2749 190.454 29 190.104 29.7C189.904 30.1 189.729 30.5249 189.579 30.9749C189.429 31.3749 189.254 31.7749 189.054 32.1749C189.004 32.3749 188.854 32.7 188.604 33.15C188.404 33.6 188.304 33.925 188.304 34.125C188.304 34.175 188.304 34.225 188.304 34.275C188.354 34.275 188.379 34.2999 188.379 34.3499C188.779 34.2499 189.104 34.05 189.354 33.75C189.604 33.4 189.854 33.075 190.104 32.775C190.604 32.125 191.104 31.475 191.604 30.825C192.104 30.175 192.604 29.525 193.104 28.875L194.079 27.75C194.329 27.35 194.629 26.8999 194.979 26.3999C195.329 25.8999 195.679 25.5499 196.029 25.3499C196.429 25.1999 196.804 25.125 197.154 25.125C197.554 25.125 198.004 25.1749 198.504 25.2749C199.054 25.3749 199.329 25.6749 199.329 26.1749C199.329 26.9249 199.154 27.6499 198.804 28.3499C198.454 28.9999 198.179 29.675 197.979 30.375C197.879 30.725 197.729 31.375 197.529 32.325C197.329 33.225 197.154 34.1499 197.004 35.0999C196.854 35.9999 196.779 36.6499 196.779 37.0499C196.779 37.3499 196.829 37.55 196.929 37.65C196.879 37.7 196.854 37.825 196.854 38.025C196.854 38.225 196.879 38.45 196.929 38.7C197.029 38.9 197.104 39.125 197.154 39.375C197.154 39.875 197.204 40.5 197.304 41.25C197.454 42.05 197.904 42.45 198.654 42.45V42.375L198.729 42.45V42.375C198.979 42.275 199.279 42.025 199.629 41.625C200.029 41.275 200.379 40.8749 200.679 40.4249C201.029 39.9749 201.204 39.65 201.204 39.45H201.279V39.525C201.279 39.575 201.229 39.8 201.129 40.2C201.079 40.6 201.004 41 200.904 41.4C200.854 41.85 200.804 42.1 200.754 42.15C200.304 42.7 199.704 42.9749 198.954 42.9749Z" fill="#D0D4DF"/>
<path d="M158.637 40.425C158.337 40.425 158.037 40.325 157.737 40.125C157.437 39.975 157.237 39.725 157.137 39.375C157.137 39.325 157.137 39.2 157.137 39C157.187 38.85 157.237 38.775 157.287 38.775L160.887 30.3C161.237 29.45 161.612 28.45 162.012 27.3C162.412 26.1 162.712 24.925 162.912 23.775C163.162 22.575 163.237 21.55 163.137 20.7C162.837 20.7 162.512 20.75 162.162 20.85C161.812 20.95 161.487 21 161.187 21C161.087 21 161.037 20.925 161.037 20.775C161.037 20.625 161.087 20.475 161.187 20.325C161.337 20.125 161.587 20.05 161.937 20.1C162.037 20.15 162.262 20.175 162.612 20.175C163.212 20.175 163.887 20.2 164.637 20.25C165.387 20.25 165.787 20.575 165.837 21.225C165.837 21.475 165.662 22.05 165.312 22.95C165.012 23.85 164.612 24.875 164.112 26.025C163.662 27.175 163.237 28.275 162.837 29.325C162.437 30.325 162.162 31.075 162.012 31.575C161.762 32.075 161.637 32.425 161.637 32.625H161.862C162.262 31.975 162.712 31.4 163.212 30.9C163.762 30.35 164.237 29.75 164.637 29.1C164.937 28.9 165.387 28.425 165.987 27.675C166.587 26.875 167.212 26.075 167.862 25.275C168.562 24.425 169.212 23.825 169.812 23.475C169.912 23.425 170.137 23.3 170.487 23.1C170.837 22.85 171.037 22.7 171.087 22.65C171.237 22.65 171.387 22.65 171.537 22.65C171.737 22.6 171.912 22.575 172.062 22.575C172.212 22.575 172.337 22.6 172.437 22.65C172.587 22.65 172.737 22.65 172.887 22.65C173.037 22.65 173.362 22.775 173.862 23.025C174.362 23.225 174.837 23.475 175.287 23.775C175.737 24.025 175.962 24.225 175.962 24.375C175.962 24.825 175.787 25.175 175.437 25.425C175.087 25.625 174.787 25.85 174.537 26.1C174.187 26.55 173.787 27.05 173.337 27.6C172.937 28.1 172.687 28.65 172.587 29.25L172.512 29.625L172.437 29.7C172.437 29.7 172.412 29.675 172.362 29.625C172.362 29.575 172.337 29.55 172.287 29.55L172.212 29.625C172.212 28.625 172.462 27.675 172.962 26.775C173.462 25.825 173.712 24.875 173.712 23.925C173.712 23.675 173.612 23.55 173.412 23.55C173.062 23.55 172.587 23.775 171.987 24.225C171.387 24.625 170.837 25.05 170.337 25.5C169.837 25.9 169.537 26.1 169.437 26.1C169.337 26.3 169.037 26.625 168.537 27.075C168.087 27.525 167.762 27.825 167.562 27.975C167.212 28.275 166.887 28.625 166.587 29.025C166.337 29.425 166.062 29.825 165.762 30.225C165.712 30.275 165.612 30.35 165.462 30.45C165.312 30.55 165.187 30.65 165.087 30.75C164.887 31.1 164.637 31.425 164.337 31.725C164.237 31.925 164.137 32.125 164.037 32.325C163.987 32.525 163.862 32.725 163.662 32.925L163.287 33C163.087 33.4 162.837 33.775 162.537 34.125C162.237 34.425 161.962 34.75 161.712 35.1C161.512 35.45 161.337 35.825 161.187 36.225C161.087 36.625 160.912 36.975 160.662 37.275C160.362 37.675 160.037 38.15 159.687 38.7C159.387 39.2 159.237 39.725 159.237 40.275H159.162C158.962 40.375 158.787 40.425 158.637 40.425Z" fill="#D0D4DF"/>
<path d="M146.595 39.375C145.345 39.375 144.095 38.975 142.845 38.175C141.595 37.375 140.97 36.275 140.97 34.875C140.97 34.625 140.97 34.375 140.97 34.125C141.02 33.875 141.045 33.65 141.045 33.45C141.045 33.15 140.82 32.9 140.37 32.7C139.92 32.45 139.695 32.175 139.695 31.875C139.745 31.825 139.82 31.8 139.92 31.8C140.12 31.8 140.32 31.85 140.52 31.95C140.72 32 140.92 32.025 141.12 32.025C141.27 32.025 141.445 31.975 141.645 31.875C141.745 31.775 141.945 31.325 142.245 30.525C142.595 29.725 143.095 28.75 143.745 27.6C144.395 26.45 145.22 25.35 146.22 24.3C147.22 23.2 148.42 22.35 149.82 21.75C150.12 21.65 150.42 21.55 150.72 21.45C151.07 21.3 151.395 21.225 151.695 21.225C152.245 21.225 152.82 21.45 153.42 21.9C154.07 22.3 154.395 22.8 154.395 23.4C154.395 23.75 154.32 24.075 154.17 24.375C154.02 24.625 153.87 24.9 153.72 25.2L153.345 25.425C153.195 25.675 152.92 26.025 152.52 26.475C152.17 26.875 151.995 27.175 151.995 27.375C151.995 27.375 151.97 27.375 151.92 27.375C151.92 27.375 151.92 27.4 151.92 27.45L151.62 27.525C151.32 27.725 151.07 27.975 150.87 28.275C150.67 28.575 150.445 28.8 150.195 28.95C149.245 29.6 148.295 30.225 147.345 30.825C146.445 31.425 145.47 31.975 144.42 32.475C144.22 32.575 143.995 32.65 143.745 32.7C143.495 32.75 143.295 32.875 143.145 33.075C142.945 33.375 142.795 33.725 142.695 34.125C142.645 34.525 142.62 34.925 142.62 35.325C142.62 35.925 142.77 36.6 143.07 37.35C143.37 38.05 143.895 38.4 144.645 38.4C144.745 38.4 144.82 38.4 144.87 38.4C144.97 38.35 145.045 38.325 145.095 38.325C145.395 38.325 145.67 38.3 145.92 38.25C146.22 38.2 146.52 38.15 146.82 38.1L147.27 37.875H147.345C147.595 37.875 148.07 37.7 148.77 37.35C149.52 36.95 150.245 36.55 150.945 36.15C151.645 35.7 152.07 35.4 152.22 35.25C152.32 35.2 152.395 35.125 152.445 35.025C152.545 34.925 152.62 34.85 152.67 34.8C153.52 34.15 154.395 33.525 155.295 32.925C156.195 32.325 157.045 31.625 157.845 30.825V30.9H157.995C157.945 31.15 157.745 31.4 157.395 31.65C157.095 31.9 156.87 32.15 156.72 32.4C156.17 33.4 155.295 34.35 154.095 35.25C152.895 36.15 151.795 36.925 150.795 37.575C150.445 37.825 150.095 38.1 149.745 38.4C149.445 38.65 149.095 38.85 148.695 39C147.945 39.25 147.245 39.375 146.595 39.375ZM143.67 31.125C144.07 31.125 144.445 30.975 144.795 30.675C145.195 30.325 145.495 30.125 145.695 30.075L145.77 30.15V30.075C146.72 29.625 147.62 29 148.47 28.2C149.37 27.4 150.195 26.625 150.945 25.875H151.095C151.095 25.575 151.32 25.25 151.77 24.9C152.22 24.5 152.445 24.175 152.445 23.925C152.545 23.825 152.645 23.675 152.745 23.475C152.845 23.225 152.895 23.05 152.895 22.95C152.745 22.85 152.52 22.8 152.22 22.8C151.97 22.9 151.645 23.075 151.245 23.325C150.845 23.575 150.495 23.7 150.195 23.7C150.195 23.75 149.945 23.95 149.445 24.3C148.995 24.65 148.52 25.025 148.02 25.425C147.52 25.825 147.195 26.1 147.045 26.25C146.795 26.5 146.395 26.95 145.845 27.6C145.295 28.25 144.795 28.9 144.345 29.55C143.895 30.2 143.67 30.7 143.67 31.05V31.125Z" fill="#D0D4DF"/>
<path d="M124.087 41.1C122.987 41.1 122.113 40.575 121.463 39.525C120.863 38.525 120.562 37.55 120.562 36.6C120.562 35.55 120.738 34.425 121.088 33.225C121.438 31.975 121.888 30.9 122.438 30H122.512V29.55C122.512 29.2 122.687 28.65 123.037 27.9C123.387 27.15 123.762 26.375 124.162 25.575C124.562 24.725 124.887 24.025 125.137 23.475C125.387 22.875 125.387 22.575 125.137 22.575C124.937 22.775 124.262 23.05 123.112 23.4C121.962 23.7 120.662 24 119.212 24.3C117.762 24.6 116.412 24.85 115.162 25.05C113.912 25.25 113.088 25.35 112.688 25.35C112.188 25.35 111.787 25.05 111.487 24.45C111.237 23.85 111.112 23.35 111.112 22.95C111.112 22.9 111.112 22.825 111.112 22.725C111.162 22.625 111.237 22.575 111.337 22.575L111.262 22.725C111.362 22.825 111.512 22.95 111.712 23.1C111.912 23.2 112.087 23.25 112.237 23.25C112.487 23.25 112.862 23.2 113.362 23.1C113.812 23.05 114.262 22.975 114.712 22.875C115.212 22.725 115.687 22.6 116.137 22.5C117.287 22.25 118.437 21.975 119.587 21.675C120.737 21.375 121.862 21.125 122.962 20.925C123.812 20.725 124.537 20.625 125.137 20.625C125.787 20.575 126.438 20.25 127.088 19.65C127.288 19.45 127.387 19.35 127.387 19.35C127.387 19.3 127.387 19.15 127.387 18.9C128.237 17.35 129.188 15.85 130.238 14.4C131.288 12.95 132.288 11.5 133.238 10.05C133.488 9.95002 133.537 9.85002 133.387 9.75002C133.237 9.60002 133.188 9.60002 133.238 9.75002C132.738 10.05 132.488 10.125 132.488 9.97502C132.488 9.82502 132.512 9.75002 132.562 9.75002C132.812 9.40002 133.262 8.82502 133.912 8.02502C134.612 7.17502 135.163 6.57503 135.562 6.22503C133.663 6.67502 131.512 7.22502 129.112 7.87502C126.762 8.47502 124.362 9.05002 121.912 9.60002C119.512 10.15 117.287 10.625 115.237 11.025C113.187 11.375 111.512 11.55 110.212 11.55C109.562 11.55 108.937 11.45 108.337 11.25C107.737 11.05 107.237 10.675 106.837 10.125C106.637 9.82502 106.437 9.47502 106.237 9.07502C106.037 8.62502 105.938 8.20002 105.938 7.80002C105.938 7.15002 106.312 6.45002 107.062 5.70002C107.862 4.95002 108.762 4.32502 109.762 3.82502C110.762 3.27502 111.562 3.05002 112.162 3.15002C112.862 2.65002 113.887 2.15002 115.237 1.65002C116.587 1.15002 117.662 0.900024 118.462 0.900024C118.862 0.900024 119.237 0.850023 119.587 0.750021C119.987 0.650022 120.362 0.625023 120.712 0.675022C120.812 0.575023 120.938 0.525024 121.088 0.525024C121.238 0.525024 121.363 0.525024 121.463 0.525024C121.563 0.525024 121.837 0.550024 122.287 0.600023C122.737 0.600023 122.962 0.650022 122.962 0.750021C123.062 0.850023 123.062 0.900024 122.962 0.900024C122.212 1.10002 121.437 1.27502 120.637 1.42502C119.887 1.52502 119.137 1.67502 118.387 1.87502C116.687 2.32502 114.837 3.02502 112.837 3.97502C110.887 4.92502 109.213 5.95002 107.812 7.05002C107.662 7.15002 107.512 7.37502 107.362 7.72502C107.262 8.02502 107.212 8.27502 107.212 8.47503C107.212 8.62502 107.487 8.77502 108.037 8.92502C108.587 9.07502 108.937 9.15002 109.087 9.15002C109.937 9.15002 110.687 9.07502 111.337 8.92502C112.737 8.72502 114.287 8.50002 115.987 8.25002C117.687 8.00002 119.312 7.72502 120.862 7.42502C122.412 7.12502 123.613 6.85002 124.463 6.60002C127.313 5.85002 130.187 5.30002 133.087 4.95002C135.987 4.55002 138.837 4.00002 141.637 3.30002C141.837 3.25002 142.012 3.22502 142.162 3.22502C142.312 3.22502 142.487 3.22502 142.688 3.22502C143.038 3.22502 143.388 3.22502 143.738 3.22502C144.138 3.17502 144.562 3.10002 145.012 3.00002H152.363C153.063 3.00002 153.837 3.15002 154.688 3.45002C155.537 3.70002 156.238 4.02502 156.788 4.42502C157.588 4.97502 158.262 5.85002 158.812 7.05002C159.362 8.25002 159.637 9.32502 159.637 10.275C159.637 11.525 159.362 12.275 158.812 12.525C158.313 12.725 157.638 13.025 156.788 13.425C156.438 13.575 156.063 13.8 155.663 14.1C155.263 14.4 154.862 14.55 154.462 14.55L154.238 14.475V14.4H154.162V14.325H154.238C154.788 13.925 155.413 13.45 156.113 12.9C156.863 12.3 157.512 11.65 158.062 10.95C158.612 10.25 158.887 9.55002 158.887 8.85002C158.887 8.00002 158.512 7.32502 157.762 6.82502C157.012 6.27502 156.088 5.87502 154.988 5.62502C153.938 5.32502 152.887 5.12502 151.837 5.02502C150.787 4.92502 149.937 4.87502 149.287 4.87502C147.587 4.87502 145.863 4.97502 144.113 5.17502C142.363 5.37502 140.637 5.47502 138.938 5.47502C138.837 5.47502 138.612 5.52502 138.262 5.62502C137.912 5.72502 137.738 5.80002 137.738 5.85002C138.288 6.15002 138.562 6.65002 138.562 7.35002C138.562 7.45002 138.362 7.77502 137.962 8.32502C137.612 8.87502 137.187 9.45002 136.688 10.05C136.187 10.65 135.788 11.1 135.488 11.4C135.188 11.65 135.112 11.55 135.262 11.1C135.062 11.1 134.937 11.175 134.887 11.325C134.887 11.475 134.862 11.65 134.812 11.85H134.137C134.187 12.55 133.912 13.15 133.312 13.65C132.762 14.1 132.488 14.675 132.488 15.375C132.188 15.425 131.838 15.725 131.438 16.275C131.038 16.775 130.687 17.325 130.387 17.925C130.137 18.475 130.012 18.9 130.012 19.2C130.212 19.2 130.312 19.225 130.312 19.275C130.312 19.275 130.387 19.325 130.537 19.425C131.087 19.375 131.613 19.325 132.113 19.275C132.663 19.175 133.212 19.125 133.762 19.125H134.587C135.237 19.125 135.862 19.125 136.462 19.125C137.112 19.075 137.762 19.05 138.412 19.05C138.712 19.05 139.212 19.125 139.912 19.275C140.662 19.375 141.438 19.55 142.238 19.8C143.088 20 143.812 20.25 144.412 20.55C145.012 20.85 145.312 21.175 145.312 21.525V21.675C144.363 21.125 143.363 20.775 142.312 20.625C141.263 20.475 140.213 20.4 139.163 20.4C137.363 20.4 135.587 20.5 133.837 20.7C132.137 20.9 130.562 21.425 129.112 22.275C127.712 23.075 126.562 24.4 125.662 26.25C125.462 26.7 125.312 27.175 125.212 27.675C125.162 28.175 125.038 28.65 124.838 29.1C124.388 30.15 123.912 31.325 123.412 32.625C122.912 33.925 122.662 35.15 122.662 36.3C122.662 36.9 122.662 37.55 122.662 38.25C122.662 38.9 122.787 39.5 123.037 40.05H123.338C123.988 40.1 124.537 39.9 124.987 39.45C125.437 39 125.838 38.55 126.188 38.1C126.537 37.65 126.862 37.425 127.162 37.425C126.962 38.075 126.612 38.85 126.112 39.75C125.612 40.65 124.937 41.1 124.087 41.1Z" fill="#D0D4DF"/>
<path d="M82.9469 39.375C81.6969 39.375 80.4469 38.975 79.1969 38.175C77.9469 37.375 77.3219 36.275 77.3219 34.875C77.3219 34.625 77.3219 34.375 77.3219 34.125C77.3719 33.875 77.3969 33.65 77.3969 33.45C77.3969 33.15 77.1719 32.9 76.7219 32.7C76.2719 32.45 76.0469 32.175 76.0469 31.875C76.0969 31.825 76.1719 31.8 76.2719 31.8C76.4719 31.8 76.6719 31.85 76.8719 31.95C77.0719 32 77.2719 32.025 77.4719 32.025C77.6219 32.025 77.7969 31.975 77.9969 31.875C78.0969 31.775 78.2969 31.325 78.5969 30.525C78.9469 29.725 79.4469 28.75 80.0969 27.6C80.7469 26.45 81.5719 25.35 82.5719 24.3C83.5719 23.2 84.7719 22.35 86.1719 21.75C86.4719 21.65 86.7719 21.55 87.0719 21.45C87.4219 21.3 87.7469 21.225 88.0469 21.225C88.5969 21.225 89.1719 21.45 89.7719 21.9C90.4219 22.3 90.7469 22.8 90.7469 23.4C90.7469 23.75 90.6719 24.075 90.5219 24.375C90.3719 24.625 90.2219 24.9 90.0719 25.2L89.6969 25.425C89.5469 25.675 89.2719 26.025 88.8719 26.475C88.5219 26.875 88.3469 27.175 88.3469 27.375C88.3469 27.375 88.3219 27.375 88.2719 27.375C88.2719 27.375 88.2719 27.4 88.2719 27.45L87.9719 27.525C87.6719 27.725 87.4219 27.975 87.2219 28.275C87.0219 28.575 86.7969 28.8 86.5469 28.95C85.5969 29.6 84.6469 30.225 83.6969 30.825C82.7969 31.425 81.8219 31.975 80.7719 32.475C80.5719 32.575 80.3469 32.65 80.0969 32.7C79.8469 32.75 79.6469 32.875 79.4969 33.075C79.2969 33.375 79.1469 33.725 79.0469 34.125C78.9969 34.525 78.9719 34.925 78.9719 35.325C78.9719 35.925 79.1219 36.6 79.4219 37.35C79.7219 38.05 80.2469 38.4 80.9969 38.4C81.0969 38.4 81.1719 38.4 81.2219 38.4C81.3219 38.35 81.3969 38.325 81.4469 38.325C81.7469 38.325 82.0219 38.3 82.2719 38.25C82.5719 38.2 82.8719 38.15 83.1719 38.1L83.6219 37.875H83.6969C83.9469 37.875 84.4219 37.7 85.1219 37.35C85.8719 36.95 86.5969 36.55 87.2969 36.15C87.9969 35.7 88.4219 35.4 88.5719 35.25C88.6719 35.2 88.7469 35.125 88.7969 35.025C88.8969 34.925 88.9719 34.85 89.0219 34.8C89.8719 34.15 90.7469 33.525 91.6469 32.925C92.5469 32.325 93.3969 31.625 94.1969 30.825V30.9H94.3469C94.2969 31.15 94.0969 31.4 93.7469 31.65C93.4469 31.9 93.2219 32.15 93.0719 32.4C92.5219 33.4 91.6469 34.35 90.4469 35.25C89.2469 36.15 88.1469 36.925 87.1469 37.575C86.7969 37.825 86.4469 38.1 86.0969 38.4C85.7969 38.65 85.4469 38.85 85.0469 39C84.2969 39.25 83.5969 39.375 82.9469 39.375ZM80.0219 31.125C80.4219 31.125 80.7969 30.975 81.1469 30.675C81.5469 30.325 81.8469 30.125 82.0469 30.075L82.1219 30.15V30.075C83.0719 29.625 83.9719 29 84.8219 28.2C85.7219 27.4 86.5469 26.625 87.2969 25.875H87.4469C87.4469 25.575 87.6719 25.25 88.1219 24.9C88.5719 24.5 88.7969 24.175 88.7969 23.925C88.8969 23.825 88.9969 23.675 89.0969 23.475C89.1969 23.225 89.2469 23.05 89.2469 22.95C89.0969 22.85 88.8719 22.8 88.5719 22.8C88.3219 22.9 87.9969 23.075 87.5969 23.325C87.1969 23.575 86.8469 23.7 86.5469 23.7C86.5469 23.75 86.2969 23.95 85.7969 24.3C85.3469 24.65 84.8719 25.025 84.3719 25.425C83.8719 25.825 83.5469 26.1 83.3969 26.25C83.1469 26.5 82.7469 26.95 82.1969 27.6C81.6469 28.25 81.1469 28.9 80.6969 29.55C80.2469 30.2 80.0219 30.7 80.0219 31.05V31.125Z" fill="#D0D4DF"/>
<path d="M78.6504 20.325C78.4504 20.325 78.2004 20.2 77.9004 19.95C77.6004 19.7 77.4504 19.475 77.4504 19.275C77.4504 19.175 77.6254 18.95 77.9754 18.6C78.3254 18.2 78.7004 17.825 79.1004 17.475C79.5504 17.075 79.8254 16.825 79.9254 16.725C80.3254 16.825 80.5254 17.05 80.5254 17.4C80.5254 17.6 80.4004 17.95 80.1504 18.45C79.9504 18.9 79.7004 19.325 79.4004 19.725C79.1504 20.125 78.9004 20.325 78.6504 20.325ZM70.7004 39.75C70.5504 39.75 70.4004 39.7 70.2504 39.6C70.1504 39.5 70.0254 39.425 69.8754 39.375C69.5254 39.075 69.2754 38.825 69.1254 38.625C68.9754 38.425 68.9004 38.075 68.9004 37.575C68.9004 35.975 69.2754 34.45 70.0254 33C70.7754 31.5 71.4754 30.075 72.1254 28.725C72.2254 28.625 72.2504 28.525 72.2004 28.425C72.1504 28.275 72.1254 28.15 72.1254 28.05C72.1254 27.6 72.3004 27.1 72.6504 26.55C73.0504 25.95 73.5004 25.375 74.0004 24.825C74.5004 24.275 74.9004 23.875 75.2004 23.625C75.5004 23.625 75.9504 23.675 76.5504 23.775C77.1504 23.825 77.4504 24.05 77.4504 24.45C77.4504 24.5 77.2004 24.8 76.7004 25.35C76.2004 25.9 75.9004 26.25 75.8004 26.4C75.1504 27.4 74.3754 28.6 73.4754 30C72.6254 31.35 71.8754 32.75 71.2254 34.2C70.5754 35.65 70.2504 37.025 70.2504 38.325C70.8504 38.225 71.4754 37.875 72.1254 37.275C72.8254 36.625 73.3504 36.075 73.7004 35.625H73.7754V35.7C73.7754 35.9 73.6754 36.1 73.4754 36.3C73.2754 36.5 73.1254 36.675 73.0254 36.825C72.8254 37.175 72.5004 37.75 72.0504 38.55C71.6504 39.35 71.2004 39.75 70.7004 39.75Z" fill="#D0D4DF"/>
<path d="M59.354 40.2C58.054 40.2 57.079 39.8999 56.429 39.2999C55.779 38.6999 55.354 37.925 55.154 36.975C54.954 36.025 54.854 35.05 54.854 34.05C54.854 33.25 54.654 32.825 54.254 32.775C53.854 32.675 53.679 32.5 53.729 32.25L55.304 31.05C55.304 31.05 55.379 30.775 55.529 30.225C55.729 29.675 55.929 29.1 56.129 28.5C56.329 27.9 56.454 27.55 56.504 27.45C56.454 27.3 56.579 26.875 56.879 26.175C57.229 25.475 57.604 24.7 58.004 23.85C58.454 22.95 58.879 22.1749 59.279 21.525C59.679 20.825 59.929 20.45 60.029 20.4V20.325H59.954C60.204 19.925 60.404 19.525 60.554 19.125C60.754 18.725 61.029 18.375 61.379 18.075C61.379 17.975 61.554 17.675 61.904 17.175C62.304 16.625 62.554 16.275 62.654 16.125C63.954 14.375 65.454 12.475 67.154 10.425C68.904 8.32495 70.729 6.72495 72.629 5.62495C72.879 5.52495 73.104 5.42495 73.304 5.32495C73.504 5.17495 73.704 5.07495 73.904 5.02495C74.004 5.02495 74.054 5.02495 74.054 5.02495C74.104 4.97495 74.154 4.94995 74.204 4.94995C74.804 4.94995 75.504 5.19995 76.304 5.69995C77.154 6.19995 77.579 6.79995 77.579 7.49995C77.579 7.99995 77.229 8.79995 76.529 9.89995C75.879 10.95 75.054 12.15 74.054 13.5C73.054 14.8 71.979 16.125 70.829 17.475C69.729 18.775 68.729 19.925 67.829 20.925C66.929 21.925 66.279 22.6249 65.879 23.025C65.729 23.175 65.554 23.325 65.354 23.475C65.154 23.625 64.954 23.8 64.754 24C64.354 24.4 63.954 24.825 63.554 25.275C63.204 25.725 62.804 26.15 62.354 26.55C61.704 27.15 61.054 27.75 60.404 28.35C59.804 28.95 59.179 29.525 58.529 30.075C58.279 30.275 58.004 30.5 57.704 30.75C57.454 31 57.204 31.25 56.954 31.5C56.704 31.8 56.529 32.35 56.429 33.15C56.329 33.95 56.279 34.55 56.279 34.95C56.279 35.4 56.329 36 56.429 36.75C56.579 37.45 56.829 38.075 57.179 38.625C57.529 39.175 58.004 39.45 58.604 39.45C58.904 39.45 59.154 39.3999 59.354 39.2999C59.604 39.1999 59.854 39.0749 60.104 38.9249C61.554 38.1249 62.904 37.225 64.154 36.225C65.404 35.175 66.579 34.075 67.679 32.925C68.079 32.525 68.454 32.125 68.804 31.725C69.204 31.275 69.604 30.85 70.004 30.45C70.104 30.35 70.304 30.15 70.604 29.85C70.904 29.55 71.154 29.425 71.354 29.475C71.304 29.825 71.104 30.15 70.754 30.45C70.454 30.7 70.204 30.975 70.004 31.275C69.704 31.725 69.429 32.175 69.179 32.625C68.929 33.025 68.679 33.475 68.429 33.975C68.329 34.175 68.179 34.375 67.979 34.575C67.779 34.775 67.604 34.975 67.454 35.175C66.704 36.075 65.879 36.9 64.979 37.65C64.129 38.4 63.129 39.025 61.979 39.525C61.529 39.725 61.104 39.875 60.704 39.975C60.304 40.125 59.854 40.2 59.354 40.2ZM57.854 28.95C60.804 26.2 63.679 23.35 66.479 20.4C69.279 17.3999 71.754 14.175 73.904 10.725C74.154 10.325 74.479 9.69995 74.879 8.84995C75.329 7.94995 75.554 7.29995 75.554 6.89995C75.554 6.59995 75.479 6.42495 75.329 6.37495C74.729 6.57495 74.204 6.84995 73.754 7.19995C73.304 7.54995 72.829 7.92495 72.329 8.32495C72.229 8.42495 72.054 8.54995 71.804 8.69995C71.604 8.79995 71.454 8.89995 71.354 8.99995C71.004 9.39995 70.629 9.79995 70.229 10.2C69.829 10.6 69.429 11 69.029 11.4C68.479 12 67.954 12.625 67.454 13.275C66.954 13.925 66.454 14.575 65.954 15.225C64.804 16.675 63.829 17.975 63.029 19.125C62.279 20.275 61.404 21.65 60.404 23.25C60.204 23.55 59.879 24.0999 59.429 24.9C58.979 25.65 58.554 26.425 58.154 27.225C57.804 27.975 57.604 28.525 57.554 28.875L57.854 28.95Z" fill="#D0D4DF"/>
<path d="M36.1285 39.675C35.3285 39.675 34.7285 39.4 34.3285 38.85C33.9285 38.25 33.7285 37.6 33.7285 36.9C33.7285 35.8 34.0035 34.5 34.5535 33C35.1035 31.5 35.6035 30.225 36.0535 29.175C36.2035 28.875 36.3785 28.575 36.5785 28.275C36.7785 27.925 36.8785 27.575 36.8785 27.225C37.0785 27.075 37.3035 26.7 37.5535 26.1C37.8035 25.5 37.9535 25.175 38.0035 25.125V25.05C37.8035 25.1 37.6285 25.225 37.4785 25.425C37.3285 25.575 37.1285 25.7 36.8785 25.8H36.8035C36.7535 25.75 36.7285 25.725 36.7285 25.725C36.7285 25.675 36.7285 25.65 36.7285 25.65C36.7285 25.5 36.7785 25.425 36.8785 25.425C36.9785 25.225 37.1285 25.075 37.3285 24.975C37.5285 24.825 37.6785 24.65 37.7785 24.45C38.1285 24.05 38.4285 23.65 38.6785 23.25C38.9785 22.85 39.3285 22.475 39.7285 22.125C40.0285 22.175 40.5035 22.325 41.1535 22.575C41.8035 22.775 42.1285 23.075 42.1285 23.475C42.1285 23.775 41.9035 24.225 41.4535 24.825C41.0535 25.425 40.6035 26.025 40.1035 26.625C39.6535 27.225 39.3285 27.675 39.1285 27.975C38.6285 28.725 38.2535 29.35 38.0035 29.85C37.7535 30.35 37.5285 30.85 37.3285 31.35C37.1285 31.85 36.8535 32.5 36.5035 33.3C36.2535 33.85 36.0035 34.425 35.7535 35.025C35.5035 35.625 35.3785 36.25 35.3785 36.9V37.575C35.3785 37.825 35.4035 38.1 35.4535 38.4C35.5035 38.65 35.6285 38.775 35.8285 38.775C36.0285 38.775 36.2535 38.7 36.5035 38.55C36.8035 38.4 37.0285 38.25 37.1785 38.1C38.1785 37.25 39.1035 36.325 39.9535 35.325C40.8535 34.325 41.7285 33.35 42.5785 32.4C43.6785 31.25 44.7785 30.1 45.8785 28.95C47.0285 27.75 48.1035 26.525 49.1035 25.275C49.3035 25.075 49.5535 24.725 49.8535 24.225C50.1535 23.725 50.4535 23.475 50.7535 23.475H50.9035C51.1535 23.475 51.4785 23.6 51.8785 23.85C52.3285 24.05 52.5535 24.3 52.5535 24.6C52.5535 25.25 52.4035 25.7 52.1035 25.95C51.8535 26.2 51.6285 26.6 51.4285 27.15C51.3785 27.4 51.2785 27.65 51.1285 27.9C51.0285 28.1 50.9035 28.325 50.7535 28.575C50.3035 29.325 49.9285 30.4 49.6285 31.8C49.3785 33.2 49.2535 34.325 49.2535 35.175V35.85C49.2535 36.2 49.2785 36.575 49.3285 36.975C49.3785 37.325 49.5035 37.55 49.7035 37.65C50.1535 37.6 50.5285 37.325 50.8285 36.825C51.1785 36.325 51.4785 35.85 51.7285 35.4C52.0285 34.9 52.3035 34.65 52.5535 34.65V34.95C52.5535 35.2 52.4785 35.425 52.3285 35.625C52.2285 35.825 52.1285 36.05 52.0285 36.3C51.8285 36.85 51.6035 37.4 51.3535 37.95C51.1535 38.45 50.6535 38.7 49.8535 38.7C48.8535 38.7 48.1785 38.25 47.8285 37.35C47.4785 36.4 47.3035 35.525 47.3035 34.725C47.3035 33.775 47.4035 32.725 47.6035 31.575C47.8535 30.375 48.1535 29.35 48.5035 28.5C48.5535 28.4 48.6035 28.3 48.6535 28.2C48.7035 28.1 48.7035 28 48.6535 27.9H48.5035C48.2035 27.9 47.8785 28.125 47.5285 28.575C47.1785 28.975 46.8535 29.4 46.5535 29.85C46.2535 30.25 45.9535 30.5 45.6535 30.6V30.675L45.0535 31.2C44.5535 32.1 43.9285 32.95 43.1785 33.75C42.4285 34.55 41.7035 35.325 41.0035 36.075C40.4035 36.725 39.6785 37.5 38.8285 38.4C38.0285 39.25 37.1285 39.675 36.1285 39.675Z" fill="#D0D4DF"/>
<path d="M5.90039 54.975C4.20039 54.975 2.85039 54.325 1.85039 53.025C0.800391 51.775 0.275391 50.325 0.275391 48.675C0.275391 47.225 0.525391 45.775 1.02539 44.325C1.52539 42.875 2.02539 41.475 2.52539 40.125C2.57539 40.025 2.67539 39.775 2.82539 39.375C2.97539 38.975 3.02539 38.75 2.97539 38.7C3.52539 38 4.00039 37.275 4.40039 36.525C4.80039 35.725 5.25039 34.95 5.75039 34.2C6.60039 32.95 7.52539 31.775 8.52539 30.675C9.52539 29.575 10.5254 28.5 11.5254 27.45C11.6254 27.35 11.7254 27.25 11.8254 27.15C11.9754 27 12.1004 26.95 12.2004 27C14.2504 24.9 16.6254 23.05 19.3254 21.45C22.0754 19.8 24.8754 18.625 27.7254 17.925C28.2254 17.825 28.7254 17.675 29.2254 17.475C29.7254 17.275 30.2254 17.15 30.7254 17.1C30.8754 16.6 30.9754 16.1 31.0254 15.6C31.0754 15.05 31.1004 14.525 31.1004 14.025C31.1004 13.325 31.0004 12.375 30.8004 11.175C30.6504 9.92498 30.2504 9.07498 29.6004 8.62498C29.4004 8.47498 29.1504 8.39997 28.8504 8.39997C28.5504 8.34998 28.2504 8.32498 27.9504 8.32498C27.0004 8.32498 26.0004 8.42498 24.9504 8.62498C23.9504 8.77498 22.9504 8.84998 21.9504 8.84998C21.4504 8.84998 20.9504 8.79998 20.4504 8.69998C20.0004 8.54998 19.7754 8.14998 19.7754 7.49998C19.7754 6.79998 20.0254 6.39998 20.5254 6.29998C21.0754 6.14998 21.6004 6.07498 22.1004 6.07498C22.9004 6.07498 23.6754 6.12498 24.4254 6.22498C25.1754 6.32498 25.9504 6.39998 26.7504 6.44998C28.5004 6.49998 30.2754 6.52497 32.0754 6.52497C33.8754 6.52497 35.6504 6.52497 37.4004 6.52497C37.9504 6.52497 38.5004 6.52497 39.0504 6.52497C39.6004 6.47498 40.1254 6.44998 40.6254 6.44998C40.6754 6.44998 40.7004 6.44998 40.7004 6.44998C40.7004 6.39998 40.7004 6.37498 40.7004 6.37498C41.3004 6.32498 41.9004 6.27498 42.5004 6.22498C43.1004 6.17498 43.7004 6.04998 44.3004 5.84998C44.3504 5.89998 44.3754 5.94998 44.3754 5.99998C44.3754 6.14998 44.1754 6.32498 43.7754 6.52497C43.4254 6.67498 43.2004 6.79998 43.1004 6.89997C42.4504 7.14998 41.7504 7.29998 41.0004 7.34998C40.2504 7.34998 39.5254 7.39998 38.8254 7.49998C38.0254 7.54997 37.2504 7.64998 36.5004 7.79998C35.8004 7.94998 35.0254 8.02498 34.1754 8.02498C33.4754 8.02498 32.7504 7.99997 32.0004 7.94997C31.3004 7.89997 30.6004 7.87498 29.9004 7.87498V7.94997H29.9754C30.7754 8.29998 31.6504 8.62498 32.6004 8.92498C33.1504 9.12498 33.5004 9.64998 33.6504 10.5C33.8004 11.35 33.8754 12 33.8754 12.45C33.8754 13.1 33.8254 13.75 33.7254 14.4C33.6254 15.05 33.5004 15.725 33.3504 16.425H33.4254V16.5C33.6254 16.5 34.0504 16.55 34.7004 16.65C35.4004 16.7 36.1254 16.775 36.8754 16.875C37.6754 16.975 38.3504 17.1 38.9004 17.25C39.5004 17.35 39.8254 17.475 39.8754 17.625L39.9504 17.925H39.8754V18.075H39.5754C39.3754 17.925 39.1004 17.825 38.7504 17.775C38.4504 17.725 38.1754 17.7 37.9254 17.7C37.3754 17.7 36.5254 17.825 35.3754 18.075C34.2754 18.275 33.5254 18.625 33.1254 19.125C32.9254 19.775 32.7254 20.45 32.5254 21.15C32.3254 21.85 32.1004 22.55 31.8504 23.25C31.5004 24.35 31.0754 25.45 30.5754 26.55C30.1254 27.6 29.6254 28.65 29.0754 29.7C28.6754 30.5 28.2254 31.3 27.7254 32.1C27.2754 32.85 26.8004 33.625 26.3004 34.425C26.1004 34.775 25.8754 35.15 25.6254 35.55C25.3754 35.95 25.1504 36.35 24.9504 36.75C24.8504 36.95 24.7504 37.175 24.6504 37.425C24.5504 37.625 24.4504 37.85 24.3504 38.1C24.3504 38.15 24.1754 38.45 23.8254 39C23.4754 39.5 23.0754 40.075 22.6254 40.725C22.1754 41.425 21.7504 42.025 21.3504 42.525C21.0004 43.075 20.8004 43.4 20.7504 43.5C20.2004 44.25 19.6254 44.975 19.0254 45.675C18.4254 46.375 17.8504 47.075 17.3004 47.775L17.2254 48C16.9254 48.2 16.6504 48.475 16.4004 48.825C16.2004 49.175 15.9754 49.475 15.7254 49.725C14.9754 50.475 14.0254 51.25 12.8754 52.05C11.7754 52.9 10.6254 53.6 9.42539 54.15C8.22539 54.7 7.05039 54.975 5.90039 54.975ZM6.35039 54.075C7.35039 53.675 8.30039 53.25 9.20039 52.8C10.1004 52.35 10.9504 51.8 11.7504 51.15C12.3004 50.75 12.7754 50.3 13.1754 49.8C13.6254 49.3 14.0754 48.825 14.5254 48.375C16.8754 45.975 18.9504 43.35 20.7504 40.5C22.5504 37.7 24.2504 34.85 25.8504 31.95C25.9504 31.75 26.1254 31.4 26.3754 30.9C26.6254 30.35 26.8754 29.85 27.1254 29.4C27.3754 28.9 27.5504 28.625 27.6504 28.575C27.6004 28.175 27.7254 27.675 28.0254 27.075C28.3254 26.475 28.5254 25.975 28.6254 25.575L29.7504 21.9C29.8004 21.85 29.8254 21.775 29.8254 21.675C29.8254 21.625 29.8004 21.6 29.7504 21.6L29.9754 21.375L29.9004 21.3C30.0004 20.9 30.1254 20.525 30.2754 20.175C30.4254 19.775 30.5004 19.375 30.5004 18.975C30.5004 18.675 30.4254 18.425 30.2754 18.225C29.2254 18.575 28.1504 18.925 27.0504 19.275C25.9504 19.625 24.9004 20.05 23.9004 20.55C22.6504 21.05 21.4754 21.725 20.3754 22.575C19.3254 23.375 18.2754 24.2 17.2254 25.05C16.5254 25.6 15.7004 26.225 14.7504 26.925C13.8504 27.575 13.1004 28.25 12.5004 28.95C12.3004 29.15 12.1254 29.375 11.9754 29.625C11.8754 29.825 11.7254 30.025 11.5254 30.225C10.1254 31.975 8.85039 33.625 7.70039 35.175C6.60039 36.675 5.62539 38.475 4.77539 40.575C4.67539 40.875 4.52539 41.175 4.32539 41.475C4.17539 41.775 4.02539 42.05 3.87539 42.3C3.37539 43.4 2.95039 44.525 2.60039 45.675C2.25039 46.875 2.07539 48.075 2.07539 49.275C2.07539 50.825 2.37539 52 2.97539 52.8C3.57539 53.65 4.70039 54.075 6.35039 54.075Z" fill="#D0D4DF"/>
</svg>
