<svg width="1920" height="84" viewBox="0 0 1920 84" fill="none" xmlns="http://www.w3.org/2000/svg">
<mask id="mask0_353_1935" style="mask-type:alpha" maskUnits="userSpaceOnUse" x="0" y="0" width="1920" height="84">
<rect width="1920" height="84" fill="#D9D9D9"/>
</mask>
<g mask="url(#mask0_353_1935)">
<path d="M699.119 43.5818C90.9901 143.741 -102.428 24.7632 -196.804 43.5817C-291.18 62.4003 64.3925 235.742 64.3925 235.742H1978.5V64.8836C1978.5 64.8836 1307.25 -56.5774 699.119 43.5818Z" fill="white"/>
<path fill-rule="evenodd" clip-rule="evenodd" d="M1567.24 38.7619C1324.06 13.9458 1004.59 -0.529126 699.329 40.8081C393.862 82.1728 193.687 68.4093 57.9928 46.3046C1.49322 37.1007 -43.8244 26.4507 -80.8714 17.7444C-88.3052 15.9974 -95.4061 14.3286 -102.197 12.7655C-142.897 3.39791 -172.331 -2.13061 -195.817 1.85695L-196.152 -0.114832C-172.2 -4.18143 -142.36 1.46925 -101.749 10.8164C-94.9472 12.3819 -87.8391 14.0524 -80.4004 15.8005C-43.3548 24.5063 1.88918 35.1388 58.3143 44.3306C193.804 66.402 393.78 80.1657 699.061 38.8262C1004.54 -2.5408 1324.19 11.9483 1567.44 36.7722C1689.07 49.1846 1791.61 64.1822 1863.75 76.0769C1899.82 82.0243 1928.28 87.1961 1947.74 90.8813C1957.46 92.7239 1964.93 94.1949 1969.97 95.2054C1972.5 95.7107 1974.41 96.1008 1975.69 96.3647C1976.1 96.4482 1976.44 96.5191 1976.72 96.5769L1977.14 96.6645L1977.6 96.76L1977.62 96.7649C1977.63 96.766 1977.63 96.7666 1977.42 97.7451C1977.22 98.7236 1977.21 98.7231 1977.21 98.7221L1976.73 98.6225C1976.41 98.5554 1975.93 98.4553 1975.29 98.3237C1974.01 98.0604 1972.1 97.671 1969.58 97.1664C1964.55 96.1572 1957.08 94.6876 1947.36 92.8464C1927.93 89.1638 1899.48 83.9949 1863.42 78.0502C1791.32 66.161 1688.82 51.1694 1567.24 38.7619Z" fill="url(#paint0_linear_353_1935)"/>
</g>
<defs>
<linearGradient id="paint0_linear_353_1935" x1="-195.622" y1="-18.6052" x2="-196.408" y2="75.0688" gradientUnits="userSpaceOnUse">
<stop stop-color="#BFA586"/>
<stop offset="0.315" stop-color="#B98F66"/>
<stop offset="1" stop-color="#DDAD8C"/>
</linearGradient>
</defs>
</svg>
