<svg width="374" height="144" viewBox="0 0 374 144" fill="none" xmlns="http://www.w3.org/2000/svg">
<path fill-rule="evenodd" clip-rule="evenodd" d="M346.155 11.8626C337.255 11.7126 330.905 21.9526 329.045 24.7426C325.455 19.3726 319.965 11.8726 311.855 11.8626C301.675 11.8626 297.995 21.0226 297.985 26.2826C297.985 38.0526 306.265 47.6326 314.815 58.7526C308.315 52.8826 290.005 36.3026 290.075 23.3026C290.135 11.4826 300.685 3.87261 311.475 3.92261C317.495 3.92261 324.615 6.79263 329.045 13.1926C332.695 7.82263 339.385 3.9126 346.535 3.9126C358.665 3.9126 367.935 12.7926 367.935 23.2926C367.935 44.3126 336.995 58.4826 331.765 74.6626C332.015 62.7726 360.025 46.7626 360.025 26.2726C360.025 19.2026 355.015 12.0126 346.155 11.8626Z" fill="#B11768"/>
<path d="M329.556 10.6127C329.556 10.6127 329.856 10.2126 330.416 9.45264C330.936 8.66264 331.886 7.66265 333.136 6.40265C333.826 5.84265 334.556 5.20268 335.406 4.55268C336.316 4.00268 337.226 3.26268 338.346 2.74268C340.506 1.52268 343.206 0.652691 346.236 0.192691C349.276 -0.197309 352.626 -0.00731677 356.056 0.872683C359.456 1.77268 362.876 3.47265 365.796 6.02265C368.686 8.57265 371.096 11.9827 372.256 15.9127C372.916 17.8627 373.106 19.9126 373.136 22.0226C373.136 23.9826 372.806 26.1427 372.316 28.1227C371.196 32.1027 369.256 35.7727 366.936 39.0327C364.646 42.3227 362.026 45.2527 359.396 47.9727C354.136 53.4127 348.766 57.9527 344.486 62.1727C342.346 64.2727 340.416 66.2327 338.816 68.0727C337.216 69.9127 335.946 71.6226 334.996 73.0826C334.076 74.5726 333.446 75.8027 333.086 76.6627C332.736 77.5327 332.546 78.0027 332.546 78.0027C332.546 78.0027 332.716 77.5326 333.026 76.6426C333.356 75.7626 333.926 74.5026 334.796 72.9526C336.566 69.9026 339.656 65.8626 343.916 61.5826C348.136 57.2626 353.316 52.5027 358.496 47.0927C361.066 44.3727 363.626 41.4627 365.826 38.2427C368.056 35.0527 369.886 31.5027 370.916 27.7327C371.396 25.8127 371.706 23.9927 371.736 21.9427C371.716 20.0627 371.556 18.1027 370.956 16.2927C369.906 12.6227 367.676 9.40265 364.966 6.96265C362.206 4.55265 359.016 2.83264 355.776 1.89264C352.546 0.972642 349.276 0.692688 346.336 1.00269C343.416 1.39269 340.746 2.11264 338.586 3.20264C337.456 3.65264 336.546 4.35265 335.616 4.84265C334.756 5.44265 333.996 6.0527 333.296 6.5727C332.026 7.7627 331.016 8.71267 330.466 9.48267C329.876 10.2127 329.556 10.6027 329.556 10.6027V10.6127Z" fill="#001E45"/>
<path d="M224.056 113.323H223.426V143.353H224.056V113.323Z" fill="#001E45"/>
<path d="M234.675 115.843H233.045C232.485 115.843 232.125 115.873 231.955 115.943C231.785 116.013 231.685 116.173 231.625 116.423C231.575 116.683 231.525 116.883 231.485 117.043L231.445 117.183H230.715L231.085 115.283H239.935L239.565 117.183H238.825L238.845 117.043C238.865 116.873 238.905 116.673 238.945 116.423C238.965 116.323 238.975 116.213 238.975 116.113C238.975 115.933 238.575 115.843 237.765 115.843H236.135L234.545 123.823C234.475 124.203 234.435 124.543 234.435 124.823C234.435 124.963 234.485 125.053 234.595 125.093C234.705 125.133 234.985 125.163 235.435 125.193H235.735L235.655 125.633H231.235L231.325 125.203H231.625C231.995 125.203 232.305 125.163 232.545 125.083C232.735 125.023 232.905 124.603 233.065 123.823L234.655 115.833L234.675 115.843Z" fill="#B11768"/>
<path d="M239.685 125.643L240.835 119.853C240.905 119.473 240.945 119.143 240.945 118.863C240.945 118.713 240.905 118.623 240.815 118.593C240.725 118.563 240.435 118.523 239.935 118.483H239.805L239.885 118.043H242.565L241.945 121.153C243.295 118.963 244.585 117.873 245.825 117.873C245.945 117.873 246.065 117.893 246.165 117.933L245.575 119.513C245.365 119.423 245.155 119.373 244.935 119.373C244.045 119.373 242.985 120.283 241.745 122.093L241.035 125.643H239.655H239.685Z" fill="#B11768"/>
<path d="M250.865 125.643L251.505 122.433C250.925 123.453 250.275 124.273 249.565 124.893C248.855 125.503 248.185 125.813 247.575 125.813C247.075 125.813 246.705 125.663 246.455 125.373C246.205 125.083 246.085 124.643 246.085 124.053C246.085 122.533 246.615 121.123 247.685 119.813C248.755 118.503 249.905 117.853 251.145 117.853C251.275 117.853 251.445 117.873 251.645 117.893C251.845 117.923 252.095 117.963 252.375 118.023H253.755L252.615 123.813C252.535 124.193 252.495 124.533 252.495 124.813C252.495 124.963 252.535 125.053 252.625 125.083C252.715 125.113 253.005 125.153 253.505 125.183H253.635L253.555 125.623H250.875L250.865 125.643ZM251.715 121.403L252.195 118.973C251.925 118.833 251.645 118.723 251.365 118.653C251.085 118.583 250.785 118.553 250.485 118.553C249.785 118.553 249.225 118.873 248.795 119.503C248.455 120.003 248.155 120.683 247.905 121.523C247.655 122.363 247.535 123.123 247.535 123.793C247.535 124.133 247.595 124.383 247.705 124.553C247.815 124.723 247.985 124.803 248.205 124.803C249.095 124.803 250.265 123.673 251.705 121.413L251.715 121.403Z" fill="#B11768"/>
<path d="M255.146 125.643L256.296 119.853C256.366 119.463 256.406 119.133 256.406 118.863C256.406 118.713 256.366 118.623 256.276 118.593C256.186 118.563 255.896 118.523 255.396 118.483H255.266L255.345 118.043H258.026L257.406 121.143C258.006 120.133 258.665 119.333 259.375 118.743C260.085 118.153 260.745 117.863 261.355 117.863C261.765 117.863 262.066 117.973 262.266 118.193C262.466 118.413 262.565 118.743 262.565 119.183C262.565 119.403 262.526 119.733 262.436 120.183L261.706 123.833C261.636 124.213 261.595 124.553 261.595 124.833C261.595 124.983 261.635 125.073 261.725 125.103C261.815 125.133 262.105 125.173 262.605 125.203H262.736L262.656 125.643H259.975L261.105 119.983C261.155 119.733 261.176 119.533 261.176 119.393C261.176 119.233 261.136 119.103 261.056 119.023C260.976 118.943 260.856 118.903 260.686 118.903C259.926 118.903 258.776 120.003 257.216 122.203L256.526 125.643H255.146Z" fill="#B11768"/>
<path d="M263.415 125.223L263.755 123.483H264.445V123.613C264.375 124.073 264.345 124.343 264.345 124.403C264.345 124.653 264.515 124.873 264.855 125.083C265.195 125.283 265.576 125.383 265.996 125.383C266.416 125.383 266.746 125.253 267.016 125.003C267.296 124.753 267.426 124.433 267.426 124.053C267.426 123.673 267.235 123.283 266.845 122.873L266.116 122.103C265.266 121.213 264.845 120.483 264.845 119.913C264.845 119.313 265.085 118.823 265.565 118.443C266.045 118.053 266.666 117.863 267.426 117.863C267.786 117.863 268.146 117.903 268.496 117.993C268.846 118.073 269.186 118.203 269.526 118.373L269.186 120.063H268.496V119.933C268.536 119.703 268.566 119.543 268.576 119.433C268.606 119.293 268.616 119.173 268.616 119.073C268.616 118.803 268.505 118.613 268.285 118.483C268.065 118.353 267.746 118.283 267.306 118.283C266.956 118.283 266.676 118.403 266.436 118.653C266.206 118.903 266.086 119.203 266.086 119.573C266.086 119.943 266.316 120.353 266.776 120.813L267.505 121.533C268.305 122.323 268.706 123.053 268.706 123.703C268.706 124.353 268.455 124.843 267.945 125.223C267.445 125.613 266.775 125.803 265.945 125.803C265.535 125.803 265.115 125.753 264.695 125.653C264.275 125.553 263.836 125.403 263.396 125.213L263.415 125.223Z" fill="#B11768"/>
<path d="M270.025 128.413L271.975 118.613H270.855L270.965 118.043H272.085C272.505 116.733 272.975 115.803 273.515 115.253C274.055 114.693 274.745 114.423 275.595 114.423C275.875 114.423 276.135 114.443 276.385 114.483C276.635 114.523 276.865 114.583 277.085 114.663L276.725 116.493H276.035V116.363C276.085 116.123 276.105 115.933 276.135 115.793C276.155 115.673 276.165 115.563 276.165 115.473C276.165 115.273 276.085 115.133 275.925 115.033C275.765 114.933 275.535 114.893 275.215 114.893C274.765 114.893 274.435 115.073 274.205 115.443C273.975 115.813 273.765 116.523 273.545 117.593L273.455 118.043H275.615L275.505 118.613H273.335L271.385 128.413H270.005H270.025Z" fill="#B11768"/>
<path d="M278.115 125.823C277.315 125.823 276.715 125.603 276.305 125.163C275.905 124.723 275.705 124.073 275.705 123.193C275.705 121.783 276.175 120.553 277.105 119.473C278.035 118.403 279.115 117.863 280.345 117.863C281.165 117.863 281.785 118.083 282.185 118.523C282.595 118.963 282.795 119.613 282.795 120.493C282.795 121.913 282.325 123.153 281.385 124.223C280.445 125.293 279.355 125.823 278.105 125.823H278.115ZM278.475 125.293C279.215 125.293 279.875 124.803 280.435 123.813C280.995 122.823 281.285 121.693 281.285 120.403C281.285 119.733 281.175 119.233 280.965 118.903C280.755 118.573 280.425 118.403 279.995 118.403C279.275 118.403 278.625 118.903 278.075 119.913C277.515 120.923 277.235 122.083 277.235 123.383C277.235 123.943 277.355 124.403 277.585 124.753C277.815 125.103 278.115 125.283 278.485 125.283L278.475 125.293Z" fill="#B11768"/>
<path d="M283.966 125.643L285.116 119.853C285.186 119.473 285.226 119.143 285.226 118.863C285.226 118.713 285.186 118.623 285.096 118.593C285.006 118.563 284.716 118.523 284.216 118.483H284.086L284.166 118.043H286.846L286.226 121.153C287.576 118.963 288.866 117.873 290.106 117.873C290.226 117.873 290.346 117.893 290.446 117.933L289.856 119.513C289.646 119.423 289.436 119.373 289.216 119.373C288.326 119.373 287.266 120.283 286.026 122.093L285.316 125.643H283.936H283.966Z" fill="#B11768"/>
<path d="M290.696 125.643L291.846 119.853C291.916 119.463 291.956 119.133 291.956 118.863C291.956 118.713 291.916 118.623 291.826 118.593C291.736 118.563 291.446 118.523 290.946 118.483H290.816L290.896 118.043H293.576L292.956 121.133C294.346 118.963 295.616 117.873 296.756 117.873C297.146 117.873 297.426 117.983 297.626 118.203C297.816 118.423 297.916 118.743 297.916 119.183C297.916 119.343 297.866 119.673 297.766 120.183L297.586 121.133C299.056 118.963 300.336 117.873 301.446 117.873C301.826 117.873 302.116 117.993 302.306 118.223C302.496 118.453 302.586 118.813 302.586 119.283C302.586 119.503 302.546 119.823 302.456 120.243L301.746 123.843C301.676 124.233 301.636 124.563 301.636 124.843C301.636 124.993 301.676 125.083 301.766 125.113C301.856 125.143 302.146 125.183 302.636 125.213H302.766L302.676 125.653H299.996L301.156 119.833C301.186 119.663 301.206 119.533 301.206 119.433C301.206 119.253 301.176 119.123 301.116 119.033C301.056 118.943 300.956 118.903 300.836 118.903C300.456 118.903 299.916 119.233 299.226 119.893C298.526 120.553 297.936 121.293 297.436 122.123L296.726 125.653H295.346L296.506 119.833C296.536 119.663 296.556 119.533 296.556 119.433C296.556 119.253 296.526 119.123 296.466 119.033C296.406 118.943 296.306 118.903 296.186 118.903C295.806 118.903 295.266 119.233 294.576 119.893C293.886 120.553 293.286 121.303 292.766 122.163L292.066 125.653H290.686L290.696 125.643Z" fill="#B11768"/>
<path d="M304.235 125.643L305.385 119.853C305.455 119.463 305.495 119.133 305.495 118.863C305.495 118.713 305.455 118.623 305.365 118.593C305.275 118.563 304.985 118.523 304.485 118.483H304.355L304.435 118.043H307.125L305.965 123.833C305.895 124.213 305.855 124.553 305.855 124.833C305.855 124.983 305.895 125.073 305.985 125.103C306.075 125.133 306.365 125.173 306.865 125.203H306.995L306.915 125.643H304.235ZM306.025 116.663L306.295 115.283H307.685L307.415 116.663H306.025Z" fill="#B11768"/>
<path d="M308.375 125.643L309.525 119.853C309.595 119.463 309.635 119.133 309.635 118.863C309.635 118.713 309.595 118.623 309.505 118.593C309.415 118.563 309.125 118.523 308.625 118.483H308.495L308.575 118.043H311.255L310.635 121.143C311.235 120.133 311.895 119.333 312.605 118.743C313.315 118.153 313.975 117.863 314.585 117.863C314.995 117.863 315.295 117.973 315.495 118.193C315.695 118.413 315.795 118.743 315.795 119.183C315.795 119.403 315.755 119.733 315.665 120.183L314.935 123.833C314.865 124.213 314.825 124.553 314.825 124.833C314.825 124.983 314.865 125.073 314.955 125.103C315.045 125.133 315.335 125.173 315.835 125.203H315.965L315.885 125.643H313.205L314.335 119.983C314.385 119.733 314.405 119.533 314.405 119.393C314.405 119.233 314.365 119.103 314.285 119.023C314.205 118.943 314.085 118.903 313.915 118.903C313.155 118.903 312.005 120.003 310.445 122.203L309.755 125.643H308.375Z" fill="#B11768"/>
<path d="M317.115 128.193L316.605 126.233C317.885 127.373 319.085 127.943 320.225 127.943C320.705 127.943 321.065 127.743 321.315 127.333C321.555 126.923 321.805 126.143 322.035 124.963L322.625 122.013C322.055 123.023 321.395 123.843 320.665 124.463C319.935 125.083 319.265 125.393 318.655 125.393C318.215 125.393 317.855 125.243 317.585 124.923C317.315 124.613 317.175 124.213 317.175 123.723C317.175 123.033 317.355 122.273 317.725 121.453C318.095 120.633 318.565 119.923 319.135 119.323C320.065 118.353 321.075 117.863 322.165 117.863C322.295 117.863 322.455 117.883 322.665 117.903C322.875 117.933 323.115 117.973 323.405 118.033H324.785L323.725 123.313C323.375 125.053 323.025 126.193 322.685 126.743C321.935 127.963 320.705 128.563 318.995 128.563C318.465 128.563 317.835 128.433 317.095 128.173L317.115 128.193ZM322.835 120.933L323.225 118.953C322.965 118.813 322.695 118.713 322.425 118.653C322.155 118.583 321.875 118.553 321.585 118.553C320.875 118.553 320.305 118.843 319.875 119.413C319.055 120.523 318.645 121.853 318.645 123.403C318.645 123.723 318.695 123.963 318.805 124.123C318.915 124.283 319.075 124.363 319.295 124.363C320.155 124.363 321.335 123.223 322.825 120.943L322.835 120.933Z" fill="#B11768"/>
<path d="M239.555 133.593L234.725 141.653H234.225L232.745 134.483L231.475 141.033C231.405 141.413 231.365 141.753 231.365 142.033C231.365 142.183 231.405 142.273 231.495 142.303C231.585 142.333 231.875 142.373 232.375 142.403H232.505L232.425 142.843H229.065L229.145 142.413H229.275C229.875 142.363 230.225 142.293 230.325 142.203C230.425 142.103 230.555 141.723 230.725 141.033L232.065 134.303C232.135 133.923 232.175 133.593 232.175 133.303C232.175 133.153 232.135 133.063 232.045 133.033C231.955 133.003 231.665 132.963 231.165 132.933H231.035L231.115 132.483H233.765L235.275 139.803L239.705 132.483H242.455L242.375 132.913H242.245C241.665 132.963 241.305 133.033 241.185 133.143C241.065 133.253 240.935 133.613 240.815 134.213L239.465 140.943C239.385 141.343 239.345 141.703 239.345 142.003C239.345 142.163 239.385 142.253 239.475 142.293C239.565 142.323 239.855 142.363 240.355 142.393H240.485L240.405 142.833H236.435L236.515 142.403H236.645C237.225 142.353 237.585 142.273 237.705 142.153C237.825 142.033 237.955 141.653 238.085 141.023L239.565 133.583L239.555 133.593Z" fill="#B11768"/>
<path d="M248.355 141.633C246.955 142.553 245.725 143.023 244.655 143.023C243.945 143.023 243.375 142.783 242.955 142.303C242.535 141.823 242.325 141.173 242.325 140.363C242.325 139.003 242.805 137.773 243.755 136.693C244.705 135.613 245.785 135.073 246.975 135.073C247.425 135.073 247.805 135.213 248.105 135.483C248.405 135.753 248.555 136.103 248.555 136.523C248.555 137.463 248.125 138.243 247.255 138.843C246.385 139.443 245.225 139.783 243.785 139.853V140.213C243.775 140.883 243.915 141.393 244.195 141.723C244.475 142.063 244.895 142.223 245.455 142.223C246.395 142.223 247.405 141.823 248.495 141.023L248.365 141.643L248.355 141.633ZM243.805 139.443C244.865 139.363 245.695 139.093 246.295 138.623C246.895 138.153 247.205 137.553 247.205 136.803C247.205 136.433 247.125 136.153 246.975 135.963C246.825 135.773 246.585 135.683 246.285 135.683C245.665 135.683 245.125 136.033 244.665 136.743C244.195 137.453 243.915 138.353 243.815 139.443H243.805Z" fill="#B11768"/>
<path d="M257.455 142.763C257.055 142.933 256.685 143.023 256.335 143.023C255.805 143.023 255.375 142.863 255.055 142.553C254.735 142.243 254.565 141.833 254.565 141.343C254.565 141.143 254.595 140.903 254.645 140.623L255.605 135.813H254.485L254.595 135.243H255.715L255.985 133.863L257.445 133.473L257.095 135.243H259.075L258.955 135.813H256.985L255.985 140.813C255.935 141.073 255.915 141.313 255.915 141.543C255.915 141.813 255.985 142.023 256.115 142.163C256.245 142.303 256.445 142.373 256.715 142.373C256.945 142.373 257.235 142.313 257.565 142.183L257.445 142.763H257.455Z" fill="#B11768"/>
<path d="M261.655 143.023C260.855 143.023 260.255 142.803 259.845 142.363C259.445 141.923 259.245 141.263 259.245 140.393C259.245 138.983 259.715 137.753 260.645 136.673C261.575 135.603 262.655 135.063 263.885 135.063C264.705 135.063 265.325 135.283 265.725 135.713C266.135 136.153 266.335 136.803 266.335 137.683C266.335 139.103 265.865 140.343 264.925 141.413C263.985 142.483 262.895 143.013 261.645 143.013L261.655 143.023ZM262.015 142.493C262.755 142.493 263.415 142.003 263.975 141.013C264.535 140.023 264.825 138.893 264.825 137.603C264.825 136.933 264.715 136.433 264.505 136.103C264.295 135.773 263.965 135.603 263.535 135.603C262.815 135.603 262.165 136.103 261.615 137.113C261.055 138.123 260.775 139.283 260.775 140.593C260.775 141.153 260.895 141.613 261.125 141.963C261.355 142.313 261.655 142.493 262.025 142.493H262.015Z" fill="#B11768"/>
<path d="M273.555 142.983L273.095 134.313C273.055 133.583 273.005 133.183 272.955 133.093C272.905 133.013 272.655 132.953 272.235 132.933H272.105L272.185 132.483H275.815L275.735 132.913H275.605C275.115 132.913 274.795 132.953 274.645 133.033C274.505 133.113 274.435 133.283 274.435 133.553L274.465 134.333L274.795 140.433L278.715 132.563H279.375L279.945 140.473L282.975 134.373C283.305 133.723 283.465 133.333 283.465 133.213C283.465 133.023 283.145 132.923 282.505 132.923H282.375L282.455 132.493H285.315L285.225 132.923H285.095C284.575 132.963 284.285 133.003 284.225 133.063C284.165 133.113 283.925 133.553 283.505 134.383L279.235 142.983H278.735L278.185 134.743L274.095 142.983H273.545H273.555Z" fill="#B11768"/>
<path d="M290.216 141.633C288.816 142.553 287.586 143.023 286.516 143.023C285.806 143.023 285.236 142.783 284.816 142.303C284.396 141.823 284.186 141.173 284.186 140.363C284.186 139.003 284.666 137.773 285.616 136.693C286.566 135.613 287.646 135.073 288.836 135.073C289.286 135.073 289.666 135.213 289.966 135.483C290.266 135.753 290.416 136.103 290.416 136.523C290.416 137.463 289.986 138.243 289.116 138.843C288.246 139.443 287.086 139.783 285.646 139.853V140.213C285.636 140.883 285.776 141.393 286.056 141.723C286.336 142.063 286.756 142.223 287.316 142.223C288.256 142.223 289.266 141.823 290.356 141.023L290.226 141.643L290.216 141.633ZM285.666 139.443C286.726 139.363 287.556 139.093 288.156 138.623C288.756 138.153 289.066 137.553 289.066 136.803C289.066 136.433 288.986 136.153 288.836 135.963C288.686 135.773 288.446 135.683 288.146 135.683C287.526 135.683 286.986 136.033 286.526 136.743C286.056 137.453 285.776 138.353 285.676 139.443H285.666Z" fill="#B11768"/>
<path d="M30.5152 97.5727C27.2052 99.4827 23.3652 100.433 18.9752 100.433C13.3652 100.433 8.94522 98.7126 5.71523 95.2726C2.48523 91.8326 0.865234 87.1427 0.865234 81.1927C0.865234 75.2427 2.41522 70.4727 5.52522 67.1227C8.63522 63.7727 12.9852 62.1027 18.5952 62.1027C21.4552 62.1027 25.2152 62.7127 29.8652 63.9327V70.9127H26.8352L26.8052 70.4227C26.7852 69.9327 26.7652 69.4426 26.7352 68.9626C26.7352 67.3526 25.9852 66.0826 24.4952 65.1526C23.0052 64.2226 20.9652 63.7626 18.3852 63.7626C14.6852 63.7626 11.7452 65.3427 9.54523 68.5027C7.34523 71.6627 6.24522 75.8826 6.24522 81.1526C6.24522 86.4226 7.53523 90.5827 10.1152 93.5427C12.6952 96.5127 16.2852 97.9927 20.8952 97.9927C23.9052 97.9927 27.1152 97.0626 30.5152 95.2026V97.5727Z" fill="#001E45"/>
<path d="M52.5053 99.5226V94.4927C51.2753 96.3627 49.8553 97.7727 48.2553 98.7227C46.6553 99.6727 44.8553 100.143 42.8653 100.143C40.5653 100.143 38.7553 99.3827 37.4353 97.8527C36.1153 96.3427 35.4653 94.2627 35.4653 91.6127V79.1327C35.4653 76.9127 35.2853 75.5927 34.9153 75.1627C34.5453 74.7327 33.3653 74.4427 31.3753 74.3027L30.9053 74.2827V72.7527H40.3253V90.8527C40.3253 92.9127 40.6953 94.4527 41.4253 95.4727C42.1553 96.5027 43.2553 97.0126 44.7153 97.0126C46.0653 97.0126 47.3853 96.6627 48.6853 95.9727C49.9853 95.2827 51.2553 94.2427 52.5053 92.8627V79.1227C52.3853 76.6727 52.2053 75.2927 51.9353 74.9827C51.6753 74.6727 50.4853 74.4427 48.3853 74.2927L47.9453 74.2726V72.7427H57.3653V93.1426C57.4753 95.5926 57.6653 96.9727 57.9253 97.2827C58.1853 97.5927 59.3653 97.8227 61.4553 97.9727L61.9253 97.9927V99.5226H52.5053Z" fill="#001E45"/>
<path d="M70.6454 96.4827V102.873C70.6454 105.113 70.8253 106.433 71.1853 106.853C71.5453 107.273 72.7353 107.553 74.7453 107.703L75.2153 107.723V109.253H61.2354V107.723L61.7054 107.703C63.6954 107.553 64.8753 107.263 65.2453 106.843C65.6153 106.423 65.7953 105.093 65.7953 102.873V79.1227C65.7953 76.9027 65.6153 75.5826 65.2453 75.1526C64.8753 74.7226 63.6954 74.4327 61.7054 74.2927L61.2354 74.2726V72.7427H70.6553V77.7527C71.8253 75.8727 73.1654 74.4727 74.6754 73.5327C76.1854 72.5927 77.8653 72.1227 79.7153 72.1227C82.6253 72.1227 84.9453 73.3126 86.6653 75.7026C88.3853 78.0926 89.2554 81.3026 89.2554 85.3326C89.2554 89.8126 88.2653 93.3927 86.2953 96.0927C84.3153 98.7927 81.6953 100.143 78.4153 100.143C76.9153 100.143 75.5153 99.8327 74.2153 99.2327C72.9153 98.6227 71.7353 97.7127 70.6553 96.4927L70.6454 96.4827ZM70.6454 94.5627C71.8754 95.5127 73.0854 96.2326 74.2554 96.7126C75.4254 97.1926 76.5753 97.4327 77.6953 97.4327C79.8353 97.4327 81.4353 96.5327 82.4953 94.7427C83.5553 92.9527 84.0854 90.2527 84.0854 86.6727C84.0854 82.8727 83.5654 80.0227 82.5354 78.1127C81.5054 76.2127 79.9554 75.2626 77.8754 75.2626C76.4854 75.2626 75.1854 75.6127 73.9854 76.3127C72.7854 77.0127 71.6653 78.0626 70.6353 79.4626V94.5727L70.6454 94.5627Z" fill="#001E45"/>
<path d="M100.535 72.7327V93.1328C100.535 95.3728 100.715 96.7028 101.075 97.1328C101.435 97.5628 102.625 97.8427 104.635 97.9727L105.105 97.9927V99.5227H91.125V97.9927L91.595 97.9727C93.585 97.8427 94.765 97.5527 95.135 97.1227C95.505 96.6827 95.685 95.3627 95.685 93.1427V79.1328C95.685 76.9128 95.505 75.5927 95.135 75.1627C94.765 74.7327 93.585 74.4427 91.595 74.3027L91.125 74.2827V72.7527H100.545L100.535 72.7327ZM95.675 67.8727V63.0127H100.535V67.8727H95.675Z" fill="#001E45"/>
<path d="M125.266 99.5227V94.5127C124.076 96.3827 122.706 97.7827 121.126 98.7327C119.556 99.6727 117.796 100.143 115.856 100.143C112.826 100.143 110.416 98.9427 108.616 96.5527C106.826 94.1627 105.926 90.9427 105.926 86.9127C105.926 82.4327 106.956 78.8527 109.016 76.1627C111.076 73.4727 113.806 72.1227 117.216 72.1227C118.776 72.1227 120.236 72.4227 121.576 73.0327C122.916 73.6427 124.146 74.5527 125.266 75.7727V66.9627C125.266 64.7127 125.086 63.3727 124.736 62.9527C124.386 62.5327 123.196 62.2627 121.176 62.1227L120.706 62.1027V60.5728H130.126V93.1328C130.126 95.3728 130.306 96.7028 130.656 97.1328C131.006 97.5628 132.196 97.8427 134.216 97.9727L134.686 97.9927V99.5227H125.266ZM125.266 77.6727C123.996 76.7127 122.746 76.0027 121.506 75.5327C120.266 75.0627 119.056 74.8327 117.846 74.8327C115.586 74.8327 113.896 75.7227 112.766 77.5127C111.636 79.3027 111.076 81.9927 111.076 85.5827C111.076 89.3927 111.626 92.2427 112.716 94.1527C113.816 96.0527 115.456 97.0027 117.646 97.0027C119.126 97.0027 120.506 96.6527 121.776 95.9527C123.046 95.2527 124.206 94.2027 125.256 92.8027V77.6727H125.266Z" fill="#001E45"/>
<path d="M139.166 66.6627H136.726V60.5728H142.816V65.8627C142.816 67.9527 142.696 69.3927 142.466 70.1827C142.236 70.9727 141.706 71.8027 140.866 72.6827C139.716 73.8527 138.336 74.4827 136.726 74.5827V73.0827C138.356 72.9327 139.166 71.3227 139.166 68.2527V66.6727V66.6627Z" fill="#001E45"/>
<path d="M143.325 98.1426V91.3326H146.065L146.115 91.8027C146.325 94.2627 146.485 95.6527 146.595 95.9727C146.705 96.2927 147.135 96.7027 147.885 97.1927C149.365 98.1527 151.015 98.6327 152.845 98.6327C154.325 98.6327 155.535 98.1827 156.485 97.2827C157.435 96.3827 157.905 95.2227 157.905 93.8027C157.905 92.5527 157.595 91.5527 156.965 90.8127C156.325 90.0827 155.195 89.4127 153.585 88.7827L151.095 87.8227C148.415 86.7827 146.475 85.6127 145.275 84.3127C144.075 83.0327 143.475 81.4627 143.475 79.6227C143.475 77.4527 144.345 75.6527 146.075 74.2427C147.805 72.8227 150.015 72.1227 152.695 72.1227C155.375 72.1227 158.015 72.6326 160.805 73.6526V80.0427H158.065V79.6027C157.965 77.9927 157.835 76.8726 157.675 76.2626C157.515 75.6426 157.245 75.1926 156.885 74.8926C155.815 74.0526 154.525 73.6327 153.015 73.6327C151.585 73.6327 150.395 74.0926 149.455 75.0126C148.515 75.9326 148.035 77.0927 148.035 78.4827C148.035 79.6327 148.425 80.5527 149.195 81.2427C149.955 81.9527 151.485 82.7726 153.785 83.7026L156.055 84.6426C158.535 85.6626 160.275 86.7127 161.255 87.8027C162.225 88.9027 162.715 90.3227 162.715 92.0527C162.715 94.4427 161.765 96.3826 159.865 97.8926C157.965 99.4026 155.495 100.153 152.455 100.153C149.245 100.153 146.205 99.4826 143.325 98.1526V98.1426Z" fill="#001E45"/>
<path d="M207.876 97.5727C204.576 99.4827 200.726 100.433 196.336 100.433C190.726 100.433 186.306 98.7126 183.076 95.2726C179.846 91.8326 178.226 87.1427 178.226 81.1927C178.226 75.2427 179.776 70.4727 182.886 67.1227C185.996 63.7727 190.356 62.1027 195.956 62.1027C198.816 62.1027 202.576 62.7127 207.226 63.9327V70.9127H204.196L204.166 70.4227C204.146 69.9327 204.126 69.4426 204.096 68.9626C204.096 67.3526 203.346 66.0826 201.856 65.1526C200.356 64.2226 198.326 63.7626 195.746 63.7626C192.046 63.7626 189.106 65.3427 186.906 68.5027C184.706 71.6627 183.606 75.8826 183.606 81.1526C183.606 86.4226 184.896 90.5827 187.476 93.5427C190.056 96.5027 193.646 97.9927 198.256 97.9927C201.266 97.9927 204.476 97.0626 207.876 95.2026V97.5727Z" fill="#001E45"/>
<path d="M223.475 100.133C219.525 100.133 216.415 98.8827 214.125 96.3727C211.835 93.8627 210.695 90.4427 210.695 86.1127C210.695 81.7827 211.835 78.3727 214.125 75.8727C216.415 73.3727 219.525 72.1227 223.475 72.1227C227.425 72.1227 230.555 73.3727 232.835 75.8727C235.115 78.3727 236.255 81.7927 236.255 86.1127C236.255 90.4327 235.115 93.8627 232.825 96.3727C230.535 98.8827 227.425 100.133 223.475 100.133ZM223.465 98.6327C225.655 98.6327 227.475 97.4526 228.925 95.0826C230.375 92.7226 231.095 89.7327 231.095 86.1227C231.095 82.5127 230.375 79.5727 228.925 77.1927C227.475 74.8127 225.655 73.6227 223.465 73.6227C221.275 73.6227 219.475 74.8127 218.035 77.1927C216.585 79.5727 215.865 82.5527 215.865 86.1227C215.865 89.6927 216.585 92.7126 218.025 95.0826C219.465 97.4526 221.285 98.6327 223.475 98.6327H223.465Z" fill="#001E45"/>
<path d="M255.175 95.8527C252.275 98.7027 249.415 100.133 246.585 100.133C244.315 100.133 242.425 99.4127 240.905 97.9727C239.395 96.5327 238.635 94.7227 238.635 92.5527C238.635 90.0127 239.625 87.9627 241.595 86.3727C243.845 84.5627 247.665 83.6526 253.035 83.6526H254.045V80.3227C254.045 76.0927 252.445 73.9827 249.235 73.9827C247.735 73.9827 246.415 74.4427 245.265 75.3627C244.595 75.9227 244.165 77.0627 243.985 78.7927L243.965 79.2626H240.655V74.3527C244.075 72.8527 247.245 72.1127 250.175 72.1127C255.995 72.1127 258.905 74.7827 258.905 80.1327V92.0826C258.905 94.2226 259.085 95.7327 259.455 96.6027C259.825 97.4727 260.475 97.9127 261.395 97.9127C261.725 97.9127 262.155 97.8327 262.705 97.6827L262.855 99.5126C261.685 99.9226 260.645 100.133 259.725 100.133C257.335 100.133 255.815 98.7027 255.175 95.8527ZM254.055 95.3027V85.1627H252.925C250.065 85.1627 247.825 85.7527 246.215 86.9427C244.605 88.1327 243.795 89.7627 243.795 91.8427C243.795 93.3927 244.295 94.6826 245.295 95.7026C246.295 96.7226 247.545 97.2427 249.045 97.2427C250.455 97.2427 252.125 96.5927 254.055 95.2927V95.3027Z" fill="#001E45"/>
<path d="M284.206 98.6027C281.646 99.6227 279.136 100.133 276.686 100.133C272.776 100.133 269.596 98.8226 267.166 96.2026C264.736 93.5826 263.516 90.1827 263.516 85.9827C263.516 81.7827 264.686 78.4226 267.026 75.9026C269.366 73.3726 272.486 72.1127 276.386 72.1127C278.376 72.1127 280.986 72.5127 284.206 73.3227V79.7126H281.176L281.156 79.2726C281.156 75.5926 279.536 73.7527 276.296 73.7527C273.946 73.7527 272.076 74.8226 270.686 76.9626C269.296 79.1026 268.606 82.0026 268.606 85.6526C268.606 89.3026 269.426 92.3327 271.076 94.4927C272.716 96.6527 274.956 97.7227 277.786 97.7227C280.216 97.7227 282.366 97.3127 284.226 96.4927V98.6127L284.206 98.6027Z" fill="#001E45"/>
<path d="M294.586 77.7427C295.816 75.8627 297.236 74.4626 298.856 73.5226C300.466 72.5826 302.266 72.1127 304.256 72.1127C306.556 72.1127 308.366 72.8727 309.686 74.3827C310.986 75.8927 311.636 77.9827 311.636 80.6327V93.1227C311.756 95.5727 311.936 96.9526 312.206 97.2626C312.466 97.5726 313.656 97.8026 315.756 97.9526L316.196 97.9727V99.5027H302.216V97.9727L302.656 97.9526C304.766 97.8026 305.946 97.5726 306.206 97.2626C306.466 96.9526 306.656 95.5727 306.776 93.1227V81.3926C306.776 79.0926 306.476 77.4827 305.876 76.5927C305.276 75.6927 304.206 75.2427 302.656 75.2427C301.566 75.2427 300.356 75.5826 299.006 76.2626C297.656 76.9426 296.186 77.9827 294.596 79.3627V93.1227C294.596 95.3627 294.776 96.6927 295.136 97.1227C295.496 97.5527 296.686 97.8326 298.696 97.9626L299.166 97.9827V99.5126H285.186V97.9827L285.656 97.9626C287.646 97.8326 288.826 97.5427 289.196 97.1127C289.566 96.6727 289.746 95.3527 289.746 93.1327V66.9626C289.746 64.7426 289.566 63.4127 289.196 62.9827C288.826 62.5427 287.646 62.2627 285.656 62.1327L285.186 62.1127V60.5826H294.606V77.7527L294.586 77.7427Z" fill="#001E45"/>
<path d="M67.4254 131.523V137.143C67.4254 138.533 67.5554 139.373 67.8054 139.673C68.0554 139.973 68.8054 140.153 70.0454 140.213L70.7154 140.233V141.203H61.2754V140.233L61.5754 140.213C62.8354 140.133 63.5854 139.953 63.8254 139.673C64.0554 139.393 64.1754 138.553 64.1754 137.143V122.083C64.1754 120.673 64.0554 119.833 63.8254 119.563C63.5954 119.293 62.8454 119.113 61.5754 119.033L61.2754 119.003V118.033H68.1154L70.3854 117.953L71.4554 117.923C75.9254 117.923 78.1654 119.963 78.1654 124.033C78.1654 126.523 77.3554 128.393 75.7254 129.643C74.1054 130.893 71.6554 131.523 68.3954 131.523H67.4254ZM67.4254 130.483H68.5754C70.6154 130.483 72.1454 129.953 73.1554 128.883C74.1754 127.823 74.6754 126.223 74.6754 124.113C74.6754 122.303 74.2854 121.023 73.5154 120.243C72.7454 119.473 71.4454 119.083 69.6354 119.083H67.4154V130.473L67.4254 130.483Z" fill="#001E45"/>
<path d="M91.4449 141.783C88.0849 141.783 85.4349 140.703 83.4949 138.523C81.5549 136.353 80.585 133.383 80.585 129.613C80.585 125.843 81.5549 122.883 83.4949 120.713C85.4349 118.543 88.0849 117.453 91.4449 117.453C94.8049 117.453 97.455 118.533 99.395 120.713C101.335 122.883 102.305 125.853 102.305 129.613C102.305 133.373 101.335 136.353 99.395 138.523C97.455 140.693 94.8049 141.783 91.4449 141.783ZM91.4449 140.733C93.7549 140.733 95.555 139.753 96.865 137.793C98.175 135.833 98.825 133.113 98.825 129.633C98.825 126.153 98.175 123.433 96.865 121.463C95.555 119.493 93.7549 118.513 91.4449 118.513C89.1349 118.513 87.3349 119.493 86.0249 121.463C84.7149 123.433 84.065 126.153 84.065 129.633C84.065 133.113 84.7149 135.833 86.0249 137.793C87.3349 139.753 89.1349 140.733 91.4449 140.733Z" fill="#001E45"/>
<path d="M104.535 141.203V140.233L104.835 140.213C106.095 140.133 106.845 139.953 107.085 139.673C107.315 139.393 107.435 138.553 107.435 137.143V122.083C107.435 120.673 107.315 119.833 107.085 119.563C106.855 119.293 106.105 119.113 104.835 119.033L104.535 119.003V118.033H111.935L114.355 117.973L115.475 117.953C119.095 117.953 121.875 118.913 123.805 120.833C125.725 122.753 126.695 125.513 126.695 129.113C126.695 132.713 125.705 135.783 123.715 137.953C121.725 140.123 119.025 141.203 115.595 141.203H104.525H104.535ZM110.715 119.083V137.153C110.715 138.563 110.855 139.363 111.135 139.563C111.695 139.953 112.785 140.143 114.405 140.143C117.345 140.143 119.545 139.263 121.015 137.493C122.485 135.723 123.215 133.073 123.215 129.533C123.215 125.993 122.425 123.183 120.845 121.543C119.265 119.903 116.705 119.083 113.165 119.083H110.705H110.715Z" fill="#001E45"/>
<path d="M148.925 139.963C146.825 141.173 144.385 141.783 141.605 141.783C138.045 141.783 135.245 140.693 133.195 138.513C131.145 136.333 130.115 133.353 130.115 129.573C130.115 125.793 131.105 122.763 133.075 120.643C135.045 118.523 137.815 117.463 141.375 117.463C143.195 117.463 145.575 117.853 148.525 118.623V123.053H146.595L146.575 122.743C146.565 122.433 146.545 122.123 146.535 121.823C146.535 120.803 146.065 119.993 145.115 119.403C144.165 118.813 142.875 118.523 141.235 118.523C138.895 118.523 137.015 119.523 135.625 121.523C134.225 123.523 133.535 126.203 133.535 129.553C133.535 132.903 134.355 135.533 135.995 137.413C137.635 139.293 139.915 140.233 142.835 140.233C144.745 140.233 146.775 139.643 148.935 138.463V139.963H148.925Z" fill="#001E45"/>
<path d="M156.616 134.063L155.276 137.143C154.766 138.353 154.506 139.163 154.506 139.573C154.506 140.013 155.176 140.233 156.526 140.233H156.776V141.203H150.766V140.233L151.096 140.213C151.996 140.173 152.526 140.063 152.696 139.873C152.866 139.693 153.306 138.783 154.006 137.143L162.176 117.733H163.266L171.396 137.253C172.036 138.653 172.486 139.483 172.746 139.753C173.006 140.023 173.516 140.173 174.276 140.213L174.636 140.233V141.203H166.046V140.233H166.326C167.786 140.233 168.516 140.023 168.516 139.603C168.516 138.983 168.296 138.173 167.856 137.143L166.556 134.063H156.616ZM157.116 132.793H165.986L161.586 122.243L157.116 132.793Z" fill="#001E45"/>
<path d="M176.485 140.733V136.273H178.125L178.145 136.553C178.175 137.073 178.195 137.463 178.195 137.723C178.195 138.543 178.535 139.163 179.215 139.583C180.325 140.273 181.545 140.613 182.875 140.613C184.205 140.613 185.345 140.223 186.135 139.433C186.925 138.643 187.305 137.553 187.305 136.173C187.305 135.003 187.055 134.073 186.555 133.383C186.055 132.693 185.075 131.943 183.625 131.133L181.985 130.193C178.435 128.193 176.665 126.003 176.665 123.633C176.665 121.853 177.305 120.373 178.585 119.203C179.865 118.033 181.465 117.453 183.395 117.453C184.225 117.453 185.135 117.533 186.115 117.693C187.095 117.853 188.135 118.103 189.255 118.433V122.553H187.515V122.283C187.465 121.723 187.455 121.303 187.455 121.043C187.455 120.163 187.145 119.523 186.515 119.113C185.885 118.703 184.905 118.493 183.565 118.493C182.445 118.493 181.535 118.863 180.845 119.593C180.145 120.333 179.805 121.293 179.805 122.493C179.805 123.513 180.045 124.363 180.525 125.033C181.005 125.703 181.875 126.393 183.125 127.103L184.765 128.043C187.035 129.333 188.575 130.463 189.365 131.423C190.155 132.383 190.555 133.583 190.555 135.043C190.555 136.973 189.835 138.573 188.405 139.853C186.975 141.133 185.175 141.773 183.025 141.773C181.775 141.773 180.605 141.683 179.515 141.503C178.425 141.323 177.425 141.063 176.505 140.723L176.485 140.733Z" fill="#001E45"/>
<path d="M200.955 119.293H197.265C196.395 119.293 195.645 119.343 194.995 119.433C194.565 119.493 194.355 119.883 194.355 120.593C194.355 121.123 194.345 121.583 194.325 121.973L194.305 122.283H192.665V118.043H212.545V122.283H210.905L210.885 121.973C210.855 121.583 210.835 121.133 210.835 120.593C210.835 119.883 210.625 119.493 210.205 119.433C209.545 119.343 208.795 119.293 207.935 119.293H204.235V137.153C204.235 138.543 204.355 139.383 204.615 139.683C204.865 139.983 205.615 140.163 206.855 140.223L207.525 140.243V141.213H197.685V140.243L198.355 140.223C199.595 140.163 200.335 139.983 200.585 139.683C200.825 139.383 200.955 138.543 200.955 137.153V119.293Z" fill="#001E45"/>
</svg>
