<svg width="309" height="80" viewBox="0 0 309 80" fill="none" xmlns="http://www.w3.org/2000/svg">
<path d="M0.014908 79.1923V74.8624H1.88546L1.90037 75.2425L1.95999 76.4275C1.95999 77.6795 2.62326 78.3055 3.94233 78.3055C4.7621 78.3055 5.43282 77.9701 5.95449 77.2919C6.47616 76.6138 6.737 75.7493 6.737 74.6761L6.72209 72.4106V55.27C6.65502 53.6826 6.53578 52.7809 6.36437 52.5871C6.19297 52.3859 5.42537 52.2443 4.06903 52.1623L3.76348 52.1325V51.1414H13.0268V52.1325L12.7213 52.1623C11.4246 52.2443 10.657 52.4306 10.4185 52.6989C10.1875 52.9747 10.0682 53.8317 10.0682 55.2775V70.473C10.0682 73.7595 9.5093 76.0846 8.40634 77.4484C7.29593 78.8271 5.41046 79.5053 2.73504 79.5053C1.88546 79.5053 0.968816 79.401 0 79.1848L0.014908 79.1923Z" fill="white"/>
<path d="M25.8155 74.7804V71.5237C25.0181 72.7384 24.1014 73.6476 23.0581 74.2662C22.0222 74.8847 20.8522 75.1828 19.5703 75.1828C18.0799 75.1828 16.9098 74.6835 16.0528 73.6998C15.2032 72.7161 14.7784 71.3746 14.7784 69.6531V61.5673C14.7784 60.1289 14.6592 59.2719 14.4207 58.9962C14.1822 58.7204 13.4146 58.5341 12.1254 58.4372L11.8198 58.4223V57.4312H17.9234V69.1538C17.9234 70.4878 18.1618 71.4864 18.6313 72.1497C19.1083 72.813 19.8163 73.1483 20.7627 73.1483C21.6347 73.1483 22.4917 72.9247 23.3338 72.4776C24.1759 72.0305 25.0032 71.3597 25.808 70.4655V61.5673C25.7335 59.9873 25.6068 59.0856 25.4429 58.8844C25.2715 58.6832 24.5039 58.5341 23.1401 58.4372L22.8569 58.4223V57.4312H28.9604V70.6369C29.0349 72.2242 29.1542 73.1185 29.3256 73.3197C29.497 73.5209 30.2571 73.67 31.6135 73.7669L31.919 73.7818V74.773H25.8155V74.7804Z" fill="white"/>
<path d="M38.0595 49.5613V70.6442C38.0595 72.0974 38.1713 72.9544 38.4097 73.2302C38.6408 73.5134 39.4084 73.6848 40.7125 73.7742L41.0106 73.7891V74.7803H31.9559V73.7891L32.2615 73.7742C33.5508 73.6922 34.3183 73.5059 34.5568 73.2227C34.7953 72.9395 34.9145 72.0751 34.9145 70.6442V53.6974C34.9145 52.2591 34.7953 51.402 34.5568 51.1188C34.3183 50.8356 33.5508 50.6568 32.2615 50.5748L31.9559 50.5525V49.5613H38.0595Z" fill="white"/>
<path d="M48.4783 57.4383V70.644C48.4783 72.0972 48.5975 72.9542 48.8286 73.23C49.0596 73.5132 49.8272 73.6846 51.1314 73.774L51.4295 73.7889V74.7801H42.3748V73.7889L42.6803 73.774C43.9696 73.692 44.7297 73.5057 44.9682 73.2225C45.2067 72.9393 45.3259 72.0748 45.3259 70.644V61.5744C45.3259 60.1361 45.2067 59.279 44.9682 59.0033C44.7297 58.7276 43.9621 58.5412 42.6803 58.4444L42.3748 58.4295V57.4383H48.4783ZM45.3334 54.2934V51.1484H48.4783V54.2934H45.3334Z" fill="white"/>
<path d="M66.9899 74.0051C64.9852 74.795 63.1593 75.1826 61.5123 75.1826C58.9636 75.1826 56.8993 74.3255 55.3045 72.604C53.7096 70.89 52.9122 68.6617 52.9122 65.9266C52.9122 63.1916 53.6277 61.1943 55.0511 59.5325C56.4745 57.8706 58.3078 57.0359 60.5435 57.0359C62.6078 57.0359 64.1952 57.7364 65.3131 59.13C66.4309 60.5236 66.9824 62.506 66.9824 65.092V65.3975H56.3925C56.3925 68.1027 56.862 70.1447 57.801 71.5234C58.7475 72.9021 60.1411 73.5952 61.9967 73.5952C63.9493 73.5952 65.6037 73.1928 66.9824 72.3953V74.0125L66.9899 74.0051ZM56.467 64.4138H63.6512L63.6661 63.7133C63.6661 61.7011 63.4053 60.2479 62.8836 59.3536C62.3619 58.4593 61.5123 58.0122 60.3274 58.0122C59.1425 58.0122 58.2035 58.5934 57.5104 59.756C56.8173 60.9111 56.467 62.4687 56.467 64.4138Z" fill="white"/>
<path d="M77.7884 63.3186V70.6518C77.7884 71.9113 77.9002 72.731 78.1312 73.1186C78.3622 73.5061 78.8466 73.6999 79.5919 73.6999C79.6291 73.6999 80.0465 73.7222 80.8364 73.7744L81.142 73.7893V74.7805H71.4836V73.7893L71.7817 73.7744C73.071 73.6924 73.8386 73.5061 74.0771 73.2229C74.3156 72.9397 74.4423 72.0752 74.4423 70.6444V55.2775C74.4423 53.8391 74.323 52.9821 74.0771 52.6989C73.8386 52.4232 73.0785 52.2443 71.7817 52.1623L71.4836 52.1325V51.1414H87.4393V55.2775H85.6656L85.6507 54.9719C85.5613 53.5038 85.4495 52.7064 85.3153 52.5946C85.1737 52.4753 84.3167 52.4232 82.7443 52.4232H77.7958V62.0219H82.1257C83.0871 62.0219 83.6684 61.9772 83.8845 61.8803C84.0931 61.7834 84.2273 61.2767 84.2795 60.3675L84.2944 60.0768H85.5687V65.301H84.2944L84.2795 64.9954C84.2273 64.1906 84.0931 63.7062 83.8845 63.5497C83.6684 63.3932 83.0871 63.3186 82.1257 63.3186H77.7958H77.7884Z" fill="white"/>
<path d="M103.895 74.0051C101.89 74.795 100.071 75.1826 98.417 75.1826C95.8683 75.1826 93.8039 74.3255 92.2091 72.604C90.6143 70.89 89.8243 68.6617 89.8243 65.9266C89.8243 63.1916 90.5398 61.1943 91.9632 59.5325C93.394 57.8706 95.2199 57.0359 97.4556 57.0359C99.52 57.0359 101.107 57.7364 102.225 59.13C103.336 60.5236 103.895 62.506 103.895 65.092V65.3975H93.3046C93.3046 68.1027 93.7741 70.1447 94.7131 71.5234C95.6521 72.9021 97.0532 73.5952 98.9089 73.5952C100.854 73.5952 102.523 73.1928 103.887 72.3953V74.0125L103.895 74.0051ZM93.3717 64.4138H100.563L100.578 63.7133C100.578 61.7011 100.317 60.2479 99.7957 59.3536C99.274 58.4593 98.4244 58.0122 97.2395 58.0122C96.0546 58.0122 95.1156 58.5934 94.4225 59.756C93.722 60.9111 93.3717 62.4687 93.3717 64.4138Z" fill="white"/>
<path d="M113.083 62.1632V70.644C113.083 72.0823 113.21 72.9468 113.456 73.23C113.702 73.5132 114.469 73.6995 115.751 73.774L116.437 73.7889V74.7801H106.979V73.7889L107.285 73.774C108.574 73.6921 109.342 73.5058 109.58 73.2226C109.819 72.9394 109.938 72.0749 109.938 70.644V61.5744C109.938 60.1361 109.819 59.2791 109.58 59.0033C109.342 58.7276 108.582 58.5413 107.285 58.4444L106.979 58.4295V57.4383H113.083V60.695C114.521 58.2581 116.399 57.0359 118.725 57.0359C119.045 57.0359 119.403 57.0955 119.798 57.2148V61.9619H118.024L118.009 61.6713C117.89 60.6801 117.786 60.0914 117.696 59.9051C117.607 59.7188 117.361 59.6219 116.966 59.6219C115.393 59.6219 114.097 60.464 113.083 62.1632Z" fill="white"/>
<path d="M128.949 60.6652C129.866 59.4579 130.82 58.5487 131.811 57.9451C132.802 57.3414 133.845 57.0359 134.926 57.0359C136.193 57.0359 137.199 57.3414 137.944 57.9451C138.689 58.5487 139.166 59.4579 139.382 60.6652C140.396 59.4579 141.417 58.5487 142.445 57.9451C143.481 57.3414 144.525 57.0359 145.56 57.0359C148.676 57.0359 150.226 58.7425 150.226 62.1557V70.644C150.226 72.0972 150.345 72.9543 150.568 73.2226C150.792 73.4909 151.567 73.6772 152.879 73.774L153.184 73.7889V74.7801H144.13V73.7889L144.435 73.774C145.747 73.6772 146.514 73.4983 146.745 73.2226C146.969 72.9468 147.088 72.0898 147.088 70.644V62.7146C147.088 61.3359 146.909 60.3895 146.552 59.8529C146.194 59.3238 145.56 59.0629 144.636 59.0629C143.869 59.0629 143.064 59.2865 142.229 59.7337C141.387 60.1808 140.515 60.8515 139.599 61.7533V70.644C139.599 72.0823 139.718 72.9468 139.956 73.2226C140.187 73.5058 140.955 73.6846 142.252 73.774L142.557 73.7889V74.7801H133.495V73.7889L133.801 73.774C135.112 73.6921 135.88 73.5132 136.111 73.23C136.342 72.9543 136.454 72.0898 136.454 70.644V62.7146C136.454 61.3583 136.275 60.4118 135.924 59.8753C135.574 59.3387 134.956 59.0629 134.069 59.0629C133.234 59.0629 132.399 59.2865 131.542 59.7337C130.693 60.1808 129.828 60.8515 128.956 61.7533V70.644C128.956 72.0972 129.068 72.9543 129.307 73.23C129.538 73.5132 130.313 73.6846 131.61 73.774L131.908 73.7889V74.7801H122.853V73.7889L123.158 73.774C124.448 73.6921 125.208 73.5058 125.454 73.2226C125.692 72.9394 125.812 72.0749 125.812 70.644V61.5744C125.812 60.1361 125.692 59.2791 125.454 59.0033C125.215 58.7276 124.448 58.5413 123.158 58.4444L122.853 58.4295V57.4383H128.956V60.6652H128.949Z" fill="white"/>
<path d="M165.667 72.4103C163.789 74.2585 161.934 75.1826 160.108 75.1826C158.632 75.1826 157.41 74.713 156.426 73.7815C155.45 72.8499 154.951 71.6799 154.951 70.2714C154.951 68.6244 155.592 67.2904 156.866 66.2694C158.327 65.0994 160.801 64.5107 164.274 64.5107H164.93V62.3569C164.93 59.6219 163.886 58.2506 161.815 58.2506C160.846 58.2506 159.989 58.5487 159.243 59.1449C158.804 59.5101 158.528 60.2479 158.416 61.3657L158.401 61.6639H156.262V58.4891C158.476 57.5203 160.533 57.0359 162.426 57.0359C166.197 57.0359 168.082 58.7723 168.082 62.2302V69.9733C168.082 71.3595 168.201 72.3283 168.44 72.8947C168.678 73.461 169.096 73.7442 169.692 73.7442C169.908 73.7442 170.191 73.6995 170.541 73.5952L170.638 74.7801C169.878 75.0484 169.207 75.1826 168.611 75.1826C167.054 75.1826 166.07 74.2585 165.66 72.4103H165.667ZM164.945 72.0525V65.4869H164.207C162.351 65.4869 160.905 65.8745 159.862 66.6421C158.819 67.4097 158.297 68.4754 158.297 69.8243C158.297 70.8303 158.617 71.6575 159.273 72.3208C159.922 72.9841 160.726 73.3194 161.703 73.3194C162.619 73.3194 163.7 72.9021 164.945 72.0525Z" fill="white"/>
<path d="M177.979 60.6801C178.776 59.4728 179.693 58.5562 180.743 57.9525C181.787 57.3414 182.949 57.0359 184.246 57.0359C185.737 57.0359 186.907 57.5277 187.756 58.504C188.598 59.4877 189.016 60.8366 189.016 62.5507V70.6366C189.09 72.2239 189.217 73.1182 189.381 73.3194C189.552 73.5207 190.32 73.6697 191.676 73.7666L191.967 73.7815V74.7727H182.905V73.7815L183.188 73.7666C184.552 73.6697 185.327 73.5207 185.491 73.3194C185.655 73.1182 185.781 72.2239 185.856 70.6366V63.0425C185.856 61.5521 185.662 60.5162 185.274 59.9349C184.887 59.3536 184.194 59.0629 183.188 59.0629C182.487 59.0629 181.697 59.2865 180.825 59.7262C179.953 60.1659 179 60.8366 177.964 61.7309V70.644C177.964 72.0972 178.075 72.9543 178.306 73.23C178.537 73.5132 179.305 73.6846 180.609 73.774L180.907 73.7889V74.7801H171.853V73.7889L172.158 73.774C173.44 73.6921 174.208 73.5058 174.446 73.2226C174.685 72.9394 174.804 72.0749 174.804 70.644V61.5744C174.804 60.1361 174.685 59.2791 174.446 59.0033C174.208 58.7276 173.44 58.5413 172.158 58.4444L171.853 58.4295V57.4383H177.956V60.6801H177.979Z" fill="white"/>
<path d="M195.805 74.7805V70.8381H199.748V74.7805H195.805Z" fill="white"/>
<path d="M218.572 74.1914C216.91 74.8546 215.286 75.1826 213.698 75.1826C211.164 75.1826 209.108 74.333 207.535 72.6413C205.955 70.9421 205.165 68.7437 205.165 66.0235C205.165 63.3034 205.925 61.1273 207.438 59.4952C208.959 57.8631 210.978 57.0359 213.504 57.0359C214.794 57.0359 216.478 57.2967 218.572 57.8184V61.9545H216.605L216.59 61.6639C216.59 59.2791 215.546 58.0867 213.445 58.0867C211.917 58.0867 210.71 58.7798 209.808 60.1659C208.906 61.5521 208.459 63.4301 208.459 65.7925C208.459 68.1549 208.988 70.1224 210.061 71.516C211.127 72.9096 212.573 73.6101 214.406 73.6101C215.986 73.6101 217.372 73.3418 218.58 72.8127V74.1839L218.572 74.1914Z" fill="white"/>
<path d="M228.946 75.1826C226.39 75.1826 224.37 74.3702 222.895 72.7456C221.412 71.121 220.674 68.9076 220.674 66.098C220.674 63.2885 221.412 61.0826 222.895 59.4654C224.378 57.8482 226.398 57.0359 228.946 57.0359C231.495 57.0359 233.53 57.8482 235.013 59.4654C236.481 61.09 237.218 63.2959 237.218 66.098C237.218 68.9002 236.481 71.121 235.005 72.7456C233.522 74.3702 231.502 75.1826 228.946 75.1826ZM228.939 74.2063C230.355 74.2063 231.532 73.4387 232.471 71.9109C233.41 70.3832 233.88 68.4456 233.88 66.1055C233.88 63.7654 233.41 61.8651 232.471 60.3224C231.532 58.7798 230.355 58.0122 228.939 58.0122C227.523 58.0122 226.353 58.7798 225.421 60.3224C224.482 61.8651 224.013 63.7952 224.013 66.1055C224.013 68.4157 224.475 70.3757 225.414 71.9109C226.345 73.4387 227.523 74.2063 228.939 74.2063Z" fill="white"/>
<path d="M244.998 60.6652C245.915 59.4579 246.869 58.5487 247.86 57.9451C248.859 57.3414 249.894 57.0359 250.975 57.0359C252.242 57.0359 253.248 57.3414 253.993 57.9451C254.739 58.5487 255.215 59.4579 255.432 60.6652C256.438 59.4579 257.466 58.5487 258.495 57.9451C259.53 57.3414 260.566 57.0359 261.61 57.0359C264.725 57.0359 266.275 58.7425 266.275 62.1557V70.644C266.275 72.0972 266.394 72.9543 266.618 73.2226C266.849 73.4909 267.616 73.6772 268.928 73.774L269.233 73.7889V74.7801H260.171V73.7889L260.477 73.774C261.789 73.6772 262.556 73.4983 262.787 73.2226C263.011 72.9468 263.13 72.0898 263.13 70.644V62.7146C263.13 61.3359 262.951 60.3895 262.593 59.8529C262.243 59.3238 261.602 59.0629 260.678 59.0629C259.911 59.0629 259.106 59.2865 258.271 59.7337C257.429 60.1808 256.557 60.8515 255.64 61.7533V70.644C255.64 72.0823 255.752 72.9468 255.991 73.2226C256.222 73.5058 256.989 73.6846 258.286 73.774L258.591 73.7889V74.7801H249.537V73.7889L249.842 73.774C251.154 73.6921 251.922 73.5132 252.153 73.23C252.384 72.9543 252.495 72.0898 252.495 70.644V62.7146C252.495 61.3583 252.324 60.4118 251.966 59.8753C251.616 59.3387 250.997 59.0629 250.111 59.0629C249.276 59.0629 248.441 59.2865 247.584 59.7337C246.735 60.1808 245.87 60.8515 244.998 61.7533V70.644C244.998 72.0972 245.117 72.9543 245.348 73.23C245.587 73.5132 246.355 73.6846 247.651 73.774L247.949 73.7889V74.7801H238.895V73.7889L239.2 73.774C240.489 73.6921 241.257 73.5058 241.496 73.2226C241.734 72.9394 241.853 72.0749 241.853 70.644V61.5744C241.853 60.1361 241.734 59.2791 241.496 59.0033C241.257 58.7276 240.489 58.5413 239.2 58.4444L238.895 58.4295V57.4383H244.998V60.6652Z" fill="white"/>
<path fill-rule="evenodd" clip-rule="evenodd" d="M289.102 9.62396C282.536 9.51217 277.856 17.0615 276.485 19.1184C273.839 15.1611 269.785 9.63141 263.808 9.62396C256.296 9.62396 253.583 16.3759 253.583 20.2586C253.583 28.9407 259.687 35.9981 265.992 44.2032C261.2 39.8734 247.696 27.6514 247.748 18.0601C247.793 9.34822 255.573 3.73654 263.525 3.77381C267.967 3.77381 273.213 5.89029 276.477 10.6077C279.168 6.65044 284.101 3.76636 289.37 3.76636C298.313 3.76636 305.147 10.3096 305.147 18.0601C305.147 33.5612 282.327 44.002 278.475 55.9333C278.661 47.1693 299.312 35.3646 299.312 20.2586C299.312 15.0493 295.615 9.7432 289.087 9.63141L289.102 9.62396Z" fill="#B11768"/>
<path d="M276.858 8.70707C276.858 8.70707 277.074 8.40897 277.491 7.85749C277.871 7.26875 278.579 6.53841 279.496 5.60686C280.003 5.19697 280.547 4.72002 281.173 4.24307C281.843 3.84063 282.514 3.28915 283.341 2.90908C284.929 2.01479 286.926 1.37388 289.162 1.03107C291.405 0.740421 293.872 0.882021 296.405 1.53038C298.917 2.19365 301.436 3.45311 303.59 5.32367C305.721 7.20168 307.495 9.7206 308.352 12.6121C308.836 14.0505 308.978 15.5633 309 17.1209C309 18.5666 308.754 20.1614 308.396 21.6147C307.569 24.5509 306.138 27.2562 304.432 29.6633C302.74 32.0853 300.81 34.2465 298.872 36.2587C294.989 40.2681 291.032 43.6217 287.88 46.7293C286.3 48.2795 284.876 49.7252 283.699 51.0816C282.514 52.4379 281.583 53.6974 280.882 54.778C280.204 55.8735 279.742 56.7827 279.473 57.4161C279.213 58.057 279.078 58.3999 279.078 58.3999C279.078 58.3999 279.198 58.0496 279.429 57.3938C279.675 56.7454 280.092 55.8139 280.733 54.6736C282.037 52.423 284.318 49.4495 287.455 46.2897C290.563 43.1075 294.386 39.5974 298.201 35.6029C300.102 33.5982 301.98 31.4519 303.604 29.082C305.251 26.727 306.593 24.1112 307.36 21.3315C307.711 19.9155 307.942 18.5741 307.964 17.0687C307.949 15.6825 307.837 14.2293 307.39 12.9028C306.615 10.1976 304.968 7.82023 302.971 6.0242C300.936 4.25052 298.581 2.9836 296.197 2.28307C293.812 1.6049 291.405 1.40369 289.236 1.62726C287.082 1.91791 285.115 2.44703 283.52 3.25189C282.693 3.58725 282.015 4.09401 281.329 4.46663C280.696 4.90633 280.137 5.35347 279.623 5.741C278.684 6.61293 277.946 7.32092 277.536 7.8873C277.096 8.42388 276.865 8.71452 276.865 8.71452L276.858 8.70707Z" fill="white"/>
</svg>
