<svg width="378" height="101" viewBox="0 0 378 101" fill="none" xmlns="http://www.w3.org/2000/svg">
<path fill-rule="evenodd" clip-rule="evenodd" d="M357.245 8.79996C350.632 8.68736 345.917 16.2915 344.536 18.3633C341.871 14.3773 337.788 8.80747 331.768 8.79996C324.201 8.79996 321.469 15.6009 321.469 19.5118C321.469 28.257 327.616 35.3657 333.967 43.6305C329.14 39.2692 315.538 26.9584 315.591 17.2974C315.636 8.52222 323.473 2.86976 331.482 2.90729C335.956 2.90729 341.241 5.03167 344.529 9.79084C347.239 5.80484 352.208 2.89978 357.515 2.89978C366.523 2.89978 373.407 9.49057 373.407 17.2974C373.407 32.9111 350.421 43.4278 346.54 55.4458C346.728 46.6181 367.529 34.7277 367.529 19.5118C367.529 14.2647 363.806 8.92007 357.23 8.80748L357.245 8.79996Z" fill="#B11768"/>
<path d="M344.919 7.87667C344.919 7.87667 345.137 7.57642 345.557 7.02094C345.94 6.42792 346.653 5.69226 347.576 4.75393C348.087 4.34107 348.635 3.86066 349.265 3.38024C349.941 2.97489 350.617 2.41939 351.45 2.03656C353.049 1.13577 355.06 0.490211 357.312 0.144908C359.572 -0.147849 362.057 -0.00523646 364.609 0.647836C367.139 1.31592 369.676 2.58455 371.845 4.4687C373.992 6.36036 375.779 8.89758 376.642 11.8101C377.13 13.2589 377.272 14.7827 377.295 16.3516C377.295 17.8079 377.047 19.4143 376.687 20.8781C375.854 23.8357 374.412 26.5605 372.693 28.9852C370.989 31.4248 369.045 33.6017 367.094 35.6285C363.183 39.667 359.197 43.045 356.021 46.1753C354.43 47.7366 352.996 49.1929 351.81 50.5591C350.617 51.9253 349.678 53.1939 348.973 54.2823C348.29 55.3858 347.824 56.3016 347.554 56.9397C347.291 57.5852 347.156 57.9305 347.156 57.9305C347.156 57.9305 347.276 57.5777 347.509 56.9172C347.757 56.2641 348.177 55.3257 348.823 54.1772C350.136 51.9103 352.433 48.9151 355.593 45.7323C358.724 42.527 362.575 38.9914 366.418 34.9679C368.332 32.9486 370.224 30.7867 371.86 28.3997C373.519 26.0276 374.87 23.3928 375.644 20.5928C375.996 19.1666 376.229 17.8154 376.252 16.2991C376.237 14.9028 376.124 13.4391 375.674 12.1029C374.893 9.37799 373.234 6.98339 371.222 5.1743C369.173 3.38774 366.801 2.11163 364.399 1.40601C361.997 0.722909 359.572 0.512721 357.388 0.745425C355.218 1.03818 353.236 1.57114 351.63 2.38185C350.797 2.71965 350.114 3.2301 349.423 3.60543C348.785 4.04832 348.222 4.49873 347.704 4.88907C346.758 5.76734 346.015 6.48045 345.602 7.05095C345.159 7.59142 344.927 7.88419 344.927 7.88419L344.919 7.87667Z" fill="white"/>
<path d="M194.082 85.99H192.19C191.545 85.99 191.124 86.0276 190.929 86.1101C190.734 86.1852 190.614 86.3729 190.554 86.6656C190.494 86.9659 190.441 87.1986 190.389 87.3788L190.351 87.5439H189.503L189.931 85.3445H200.185L199.757 87.5439H198.909L198.931 87.3788C198.961 87.1836 198.999 86.9434 199.051 86.6656C199.074 86.5455 199.081 86.4254 199.081 86.2978C199.081 86.0951 198.616 85.99 197.678 85.99H195.786L193.939 95.2381C193.849 95.681 193.812 96.0714 193.812 96.4017C193.812 96.5668 193.872 96.6719 193.999 96.7169C194.127 96.762 194.45 96.807 194.975 96.8295H195.321L195.223 97.34H190.103L190.209 96.8371H190.554C190.982 96.8295 191.335 96.7845 191.627 96.7019C191.845 96.6344 192.048 96.154 192.228 95.2457L194.074 85.99H194.082Z" fill="url(#paint0_linear_232_311)"/>
<path d="M199.892 97.3474L201.228 90.6441C201.311 90.2012 201.356 89.8183 201.356 89.4956C201.356 89.3229 201.303 89.2178 201.206 89.1803C201.108 89.1427 200.763 89.1052 200.185 89.0602H200.042L200.14 88.5497H203.247L202.527 92.1529C204.088 89.6157 205.59 88.347 207.023 88.347C207.166 88.347 207.294 88.3696 207.421 88.4221L206.738 90.2537C206.498 90.1486 206.25 90.0886 206.002 90.0886C204.974 90.0886 203.743 91.1395 202.309 93.2413L201.491 97.3549H199.885L199.892 97.3474Z" fill="url(#paint1_linear_232_311)"/>
<path d="M212.848 97.3474L213.592 93.6317C212.916 94.8177 212.173 95.7635 211.347 96.4767C210.521 97.1898 209.748 97.5426 209.043 97.5426C208.465 97.5426 208.029 97.37 207.744 97.0322C207.459 96.6944 207.309 96.1839 207.309 95.5083C207.309 93.7518 207.924 92.1154 209.163 90.599C210.401 89.0827 211.737 88.332 213.171 88.332C213.321 88.332 213.516 88.347 213.757 88.3846C213.997 88.4221 214.275 88.4672 214.605 88.5347H216.204L214.883 95.2381C214.793 95.681 214.748 96.0713 214.748 96.4016C214.748 96.5743 214.8 96.6794 214.898 96.7169C215.003 96.7544 215.341 96.792 215.911 96.8295H216.054L215.956 97.3399H212.856L212.848 97.3474ZM213.824 92.4231L214.387 89.6082C214.072 89.443 213.757 89.3229 213.426 89.2403C213.096 89.1578 212.758 89.1202 212.405 89.1202C211.595 89.1202 210.942 89.4881 210.446 90.2162C210.048 90.8017 209.703 91.5749 209.418 92.5507C209.133 93.5266 208.99 94.3974 208.99 95.178C208.99 95.5684 209.058 95.8611 209.185 96.0563C209.313 96.2515 209.508 96.3491 209.771 96.3491C210.799 96.3491 212.15 95.0429 213.824 92.4231Z" fill="url(#paint2_linear_232_311)"/>
<path d="M217.803 97.3474L219.139 90.6441C219.221 90.1937 219.267 89.8108 219.267 89.4956C219.267 89.3229 219.214 89.2178 219.116 89.1803C219.019 89.1427 218.673 89.1052 218.095 89.0602H217.953L218.05 88.5497H221.158L220.445 92.1454C221.143 90.9743 221.901 90.051 222.72 89.3679C223.538 88.6848 224.303 88.347 225.017 88.347C225.489 88.347 225.842 88.4747 226.075 88.7224C226.308 88.9776 226.428 89.3529 226.428 89.8634C226.428 90.1111 226.375 90.4939 226.278 91.0194L225.437 95.2531C225.347 95.696 225.309 96.0863 225.309 96.4091C225.309 96.5818 225.362 96.6869 225.459 96.7244C225.557 96.7619 225.902 96.7995 226.48 96.837H226.623L226.525 97.3474H223.418L224.724 90.7867C224.776 90.5014 224.806 90.2687 224.806 90.1036C224.806 89.9159 224.761 89.7733 224.664 89.6757C224.566 89.5856 224.424 89.5331 224.236 89.5331C223.358 89.5331 222.021 90.8092 220.212 93.3539L219.417 97.3474H217.81H217.803Z" fill="url(#paint3_linear_232_311)"/>
<path d="M227.381 96.8595L227.779 94.8478H228.575L228.56 94.9904C228.492 95.5234 228.455 95.8311 228.455 95.9062C228.455 96.1914 228.65 96.4542 229.04 96.6869C229.43 96.9196 229.873 97.0397 230.361 97.0397C230.849 97.0397 231.224 96.8895 231.547 96.5968C231.87 96.304 232.028 95.9362 232.028 95.5008C232.028 95.0654 231.803 94.615 231.352 94.1346L230.511 93.2413C229.528 92.2054 229.033 91.3647 229.033 90.7116C229.033 90.021 229.31 89.4505 229.873 89.0001C230.436 88.5572 231.149 88.332 232.028 88.332C232.448 88.332 232.861 88.3846 233.266 88.4822C233.672 88.5798 234.069 88.7299 234.46 88.9251L234.069 90.8768H233.274L233.289 90.7341C233.319 90.4714 233.349 90.2763 233.371 90.1561C233.401 89.991 233.416 89.8484 233.416 89.7433C233.416 89.4355 233.289 89.2028 233.041 89.0527C232.793 88.9025 232.411 88.8275 231.908 88.8275C231.51 88.8275 231.172 88.9701 230.902 89.2553C230.631 89.5406 230.496 89.8934 230.496 90.3213C230.496 90.7492 230.759 91.2296 231.292 91.7551L232.133 92.5883C233.056 93.5116 233.522 94.3448 233.522 95.103C233.522 95.8611 233.229 96.4241 232.643 96.867C232.058 97.3099 231.285 97.5351 230.324 97.5351C229.851 97.5351 229.363 97.4751 228.875 97.3625C228.379 97.2499 227.884 97.0772 227.374 96.8445L227.381 96.8595Z" fill="url(#paint4_linear_232_311)"/>
<path d="M235.038 100.545L237.297 89.1954H235.999L236.126 88.5349H237.425C237.905 87.0185 238.461 85.9451 239.084 85.2995C239.707 84.654 240.51 84.3312 241.501 84.3312C241.824 84.3312 242.124 84.3537 242.409 84.3987C242.695 84.4438 242.965 84.5113 243.22 84.6089L242.8 86.7333H242.004L242.019 86.5832C242.056 86.3054 242.086 86.0802 242.117 85.9151C242.147 85.7725 242.154 85.6523 242.154 85.5472C242.154 85.322 242.064 85.1494 241.884 85.0443C241.704 84.9317 241.426 84.8792 241.058 84.8792C240.54 84.8792 240.15 85.0893 239.895 85.5172C239.632 85.9451 239.377 86.7708 239.129 88.0094L239.024 88.5274H241.531L241.411 89.1879H238.896L236.644 100.538H235.038V100.545Z" fill="url(#paint5_linear_232_311)"/>
<path d="M244.414 97.5501C243.483 97.5501 242.785 97.2949 242.319 96.7844C241.854 96.274 241.621 95.5158 241.621 94.5024C241.621 92.8735 242.162 91.4398 243.243 90.1937C244.323 88.9551 245.577 88.332 246.996 88.332C247.949 88.332 248.662 88.5873 249.135 89.0902C249.608 89.5931 249.848 90.3588 249.848 91.3647C249.848 93.0011 249.3 94.4424 248.212 95.681C247.123 96.9196 245.855 97.5426 244.414 97.5426V97.5501ZM244.826 96.9346C245.69 96.9346 246.44 96.3641 247.093 95.2231C247.746 94.0821 248.077 92.7684 248.077 91.2746C248.077 90.5014 247.949 89.9234 247.701 89.5331C247.454 89.1427 247.078 88.9551 246.575 88.9551C245.735 88.9551 244.992 89.5406 244.346 90.7116C243.7 91.8827 243.37 93.2188 243.37 94.7352C243.37 95.3882 243.505 95.9137 243.775 96.319C244.046 96.7319 244.391 96.9346 244.819 96.9346H244.826Z" fill="url(#paint6_linear_232_311)"/>
<path d="M251.185 97.3474L252.521 90.6441C252.603 90.2012 252.648 89.8183 252.648 89.4956C252.648 89.3229 252.596 89.2178 252.498 89.1803C252.401 89.1427 252.055 89.1052 251.477 89.0602H251.335L251.432 88.5497H254.54L253.819 92.1529C255.381 89.6157 256.882 88.347 258.316 88.347C258.458 88.347 258.586 88.3696 258.714 88.4221L258.031 90.2537C257.79 90.1486 257.543 90.0886 257.295 90.0886C256.266 90.0886 255.035 91.1395 253.594 93.2413L252.776 97.3549H251.17L251.185 97.3474Z" fill="url(#paint7_linear_232_311)"/>
<path d="M258.984 97.3474L260.32 90.6441C260.403 90.1937 260.448 89.8108 260.448 89.4956C260.448 89.3229 260.395 89.2178 260.297 89.1803C260.2 89.1427 259.855 89.1052 259.277 89.0602H259.134L259.232 88.5497H262.339L261.626 92.1304C263.24 89.6157 264.704 88.3546 266.032 88.3546C266.483 88.3546 266.813 88.4822 267.038 88.7299C267.256 88.9776 267.369 89.3604 267.369 89.8709C267.369 90.0585 267.309 90.4414 267.188 91.0269L266.978 92.1229C268.675 89.6082 270.169 88.347 271.452 88.347C271.895 88.347 272.225 88.4822 272.443 88.7524C272.661 89.0226 272.773 89.428 272.773 89.976C272.773 90.2312 272.728 90.599 272.631 91.0869L271.805 95.2531C271.715 95.7035 271.677 96.0863 271.677 96.4091C271.677 96.5818 271.73 96.6869 271.828 96.7244C271.925 96.7619 272.263 96.7995 272.833 96.837H272.984L272.878 97.3474H269.778L271.122 90.599C271.159 90.4038 271.182 90.2537 271.182 90.1336C271.182 89.9309 271.144 89.7733 271.069 89.6757C270.994 89.5781 270.889 89.5256 270.739 89.5256C270.304 89.5256 269.681 89.9084 268.87 90.6741C268.059 91.4398 267.369 92.303 266.798 93.2564L265.98 97.3474H264.374L265.717 90.599C265.755 90.4038 265.777 90.2537 265.777 90.1336C265.777 89.9309 265.74 89.7733 265.665 89.6757C265.59 89.5781 265.484 89.5256 265.334 89.5256C264.891 89.5256 264.268 89.9084 263.473 90.6666C262.677 91.4247 261.979 92.303 261.378 93.2939L260.575 97.3399H258.969L258.984 97.3474Z" fill="url(#paint8_linear_232_311)"/>
<path d="M274.673 97.3475L276.009 90.6441C276.099 90.1937 276.136 89.8109 276.136 89.4956C276.136 89.323 276.084 89.2179 275.986 89.1803C275.889 89.1428 275.543 89.1053 274.965 89.0602H274.823L274.92 88.5498H278.028L276.692 95.2532C276.602 95.696 276.564 96.0864 276.564 96.4092C276.564 96.5818 276.617 96.6869 276.714 96.7245C276.812 96.762 277.157 96.7995 277.735 96.8371H277.878L277.78 97.3475H274.673ZM276.744 86.9434L277.06 85.3445H278.666L278.351 86.9434H276.744Z" fill="url(#paint9_linear_232_311)"/>
<path d="M279.469 97.3474L280.805 90.6441C280.888 90.1937 280.933 89.8108 280.933 89.4956C280.933 89.3229 280.881 89.2178 280.783 89.1803C280.685 89.1427 280.34 89.1052 279.762 89.0602H279.619L279.717 88.5497H282.825L282.112 92.1454C282.81 90.9743 283.568 90.051 284.386 89.3679C285.204 88.6848 285.97 88.347 286.683 88.347C287.156 88.347 287.509 88.4747 287.742 88.7224C287.974 88.9776 288.094 89.3529 288.094 89.8634C288.094 90.1111 288.042 90.4939 287.944 91.0194L287.103 95.2531C287.013 95.696 286.976 96.0863 286.976 96.4091C286.976 96.5818 287.028 96.6869 287.126 96.7244C287.224 96.7619 287.569 96.7995 288.147 96.837H288.289L288.192 97.3474H285.084L286.39 90.7867C286.443 90.5014 286.473 90.2687 286.473 90.1036C286.473 89.9159 286.428 89.7733 286.33 89.6757C286.233 89.5856 286.09 89.5331 285.902 89.5331C285.024 89.5331 283.688 90.8092 281.879 93.3539L281.083 97.3474H279.477H279.469Z" fill="url(#paint10_linear_232_311)"/>
<path d="M289.588 100.298L288.995 98.0305C290.474 99.3517 291.87 100.012 293.191 100.012C293.747 100.012 294.167 99.7796 294.452 99.3067C294.738 98.8337 295.015 97.9254 295.293 96.5667L295.976 93.1513C295.308 94.3223 294.557 95.2681 293.709 95.9812C292.861 96.7019 292.088 97.0622 291.375 97.0622C290.864 97.0622 290.451 96.882 290.136 96.5217C289.821 96.1614 289.663 95.696 289.663 95.133C289.663 94.3298 289.873 93.4515 290.301 92.4982C290.729 91.5448 291.27 90.7266 291.93 90.036C293.011 88.91 294.182 88.347 295.443 88.347C295.586 88.347 295.781 88.3621 296.021 88.3996C296.261 88.4371 296.547 88.4822 296.877 88.5497H298.483L297.252 94.6676C296.839 96.6793 296.442 98.008 296.051 98.6386C295.181 100.05 293.754 100.755 291.78 100.755C291.165 100.755 290.429 100.605 289.581 100.313L289.588 100.298ZM296.224 91.8826L296.682 89.5931C296.382 89.4355 296.074 89.3229 295.751 89.2478C295.436 89.1728 295.113 89.1352 294.775 89.1352C293.949 89.1352 293.289 89.4655 292.801 90.1336C291.848 91.4172 291.375 92.9561 291.375 94.7502C291.375 95.118 291.435 95.3957 291.562 95.5834C291.69 95.771 291.878 95.8611 292.133 95.8611C293.131 95.8611 294.49 94.54 296.224 91.8902V91.8826Z" fill="url(#paint11_linear_232_311)"/>
<path d="M316.852 86.6283L311.252 95.974H310.667L308.955 87.6642L307.484 95.2533C307.394 95.6962 307.356 96.0866 307.356 96.4169C307.356 96.5895 307.409 96.6946 307.506 96.7321C307.604 96.7697 307.949 96.8072 308.527 96.8447H308.67L308.572 97.3552H304.684L304.781 96.8522H304.932C305.622 96.7922 306.028 96.7171 306.14 96.6045C306.26 96.4919 306.41 96.0415 306.598 95.2533L308.152 87.454C308.242 87.0186 308.279 86.6358 308.279 86.298C308.279 86.1253 308.227 86.0203 308.129 85.9827C308.032 85.9452 307.686 85.9076 307.108 85.8701L306.966 85.8551L307.063 85.3522H310.134L311.883 93.8346L317.01 85.3522H320.2L320.102 85.8551L319.952 85.8701C319.277 85.9076 318.864 85.9977 318.721 86.1253C318.579 86.253 318.436 86.6658 318.286 87.3639L316.724 95.1633C316.634 95.6287 316.589 96.0415 316.589 96.3868C316.589 96.567 316.642 96.6796 316.747 96.7246C316.852 96.7622 317.19 96.8072 317.76 96.8447H317.903L317.805 97.3552H313.204L313.301 96.8522H313.452C314.127 96.7922 314.54 96.7021 314.683 96.567C314.825 96.4319 314.975 95.989 315.118 95.2608L316.837 86.6433L316.852 86.6283Z" fill="url(#paint12_linear_232_311)"/>
<path d="M327.046 95.9512C325.432 97.0247 323.998 97.5576 322.767 97.5576C321.949 97.5576 321.288 97.2799 320.8 96.7244C320.313 96.1689 320.065 95.4182 320.065 94.4799C320.065 92.9035 320.613 91.4848 321.716 90.2312C322.82 88.9776 324.066 88.347 325.447 88.347C325.972 88.347 326.408 88.5047 326.753 88.82C327.098 89.1352 327.271 89.5406 327.271 90.021C327.271 91.1095 326.768 92.0103 325.762 92.7084C324.756 93.4065 323.413 93.7968 321.739 93.8794L321.724 94.2922C321.724 95.0729 321.889 95.6585 322.212 96.0413C322.534 96.4316 323.022 96.6268 323.668 96.6268C324.756 96.6268 325.927 96.1614 327.189 95.2306L327.046 95.9437V95.9512ZM321.776 93.414C323 93.3239 323.968 93.0011 324.666 92.4606C325.364 91.9202 325.717 91.2146 325.717 90.3588C325.717 89.9234 325.627 89.6006 325.447 89.383C325.267 89.1653 325.004 89.0602 324.644 89.0602C323.931 89.0602 323.3 89.473 322.76 90.2912C322.219 91.1095 321.889 92.1529 321.769 93.414H321.776Z" fill="url(#paint13_linear_232_311)"/>
<path d="M337.585 97.2576C337.12 97.4603 336.692 97.5579 336.279 97.5579C335.663 97.5579 335.168 97.3777 334.793 97.0174C334.417 96.6571 334.23 96.1917 334.23 95.6137C334.23 95.3809 334.26 95.1032 334.327 94.7804L335.438 89.2105H334.14L334.267 88.55H335.566L335.881 86.9511L337.578 86.4932L337.172 88.55H339.462L339.327 89.2105H337.037L335.881 94.9981C335.829 95.2984 335.799 95.5761 335.799 95.8388C335.799 96.1541 335.874 96.4018 336.031 96.5595C336.181 96.7246 336.414 96.7997 336.729 96.7997C337 96.7997 337.33 96.7246 337.72 96.582L337.585 97.2576Z" fill="url(#paint14_linear_232_311)"/>
<path d="M342.457 97.5578C341.526 97.5578 340.828 97.3026 340.363 96.7921C339.897 96.2817 339.664 95.5235 339.664 94.5101C339.664 92.8812 340.205 91.4475 341.286 90.2014C342.367 88.9628 343.62 88.3397 345.039 88.3397C345.993 88.3397 346.706 88.595 347.179 89.0979C347.651 89.6008 347.892 90.3665 347.892 91.3724C347.892 93.0088 347.344 94.4501 346.255 95.6887C345.167 96.9273 343.898 97.5503 342.457 97.5503V97.5578ZM342.87 96.9423C343.733 96.9423 344.484 96.3718 345.137 95.2308C345.79 94.0898 346.12 92.7761 346.12 91.2823C346.12 90.5091 345.993 89.9311 345.745 89.5408C345.497 89.1504 345.122 88.9628 344.619 88.9628C343.778 88.9628 343.035 89.5483 342.389 90.7193C341.744 91.8903 341.414 93.2265 341.414 94.7428C341.414 95.3884 341.549 95.9214 341.819 96.3267C342.089 96.7321 342.434 96.9423 342.862 96.9423H342.87Z" fill="url(#paint15_linear_232_311)"/>
<path d="M356.247 97.5053L355.721 87.469C355.676 86.6283 355.616 86.1554 355.556 86.0578C355.496 85.9602 355.211 85.9001 354.715 85.8701L354.573 85.8551L354.67 85.3522H358.874L358.776 85.8551H358.634C358.063 85.8551 357.695 85.9001 357.53 85.9902C357.365 86.0803 357.282 86.283 357.282 86.5982L357.32 87.499L357.71 94.5627L362.244 85.4497H363.003L363.656 94.6153L367.169 87.5441C367.544 86.7934 367.739 86.343 367.739 86.1929C367.739 85.9677 367.371 85.8551 366.628 85.8551H366.486L366.583 85.3522H369.894L369.788 85.8551L369.646 85.8701C369.038 85.9001 368.7 85.9527 368.64 86.0127C368.572 86.0728 368.295 86.5832 367.807 87.5441L362.86 97.5128H362.282L361.644 87.9644L356.907 97.5128H356.277L356.247 97.5053Z" fill="url(#paint16_linear_232_311)"/>
<path d="M375.538 95.9512C373.924 97.0247 372.491 97.5576 371.26 97.5576C370.441 97.5576 369.781 97.2799 369.293 96.7244C368.805 96.1689 368.557 95.4182 368.557 94.4799C368.557 92.9035 369.105 91.4848 370.209 90.2312C371.312 88.9776 372.558 88.347 373.939 88.347C374.465 88.347 374.9 88.5047 375.246 88.82C375.591 89.1352 375.764 89.5406 375.764 90.021C375.764 91.1095 375.261 92.0103 374.255 92.7084C373.249 93.4065 371.905 93.7968 370.231 93.8794L370.216 94.2922C370.216 95.0729 370.381 95.6585 370.704 96.0413C371.027 96.4316 371.515 96.6268 372.16 96.6268C373.249 96.6268 374.42 96.1614 375.681 95.2306L375.538 95.9437V95.9512ZM370.269 93.414C371.492 93.3239 372.461 93.0011 373.159 92.4606C373.857 91.9202 374.21 91.2146 374.21 90.3588C374.21 89.9234 374.12 89.6006 373.939 89.383C373.759 89.1653 373.497 89.0602 373.136 89.0602C372.423 89.0602 371.793 89.473 371.252 90.2912C370.712 91.1095 370.381 92.1529 370.261 93.414H370.269Z" fill="url(#paint17_linear_232_311)"/>
<path d="M0.705017 70.8417V66.2476H2.4015L2.41652 66.5404C2.44654 67.0809 2.46156 67.4787 2.46156 67.749C2.46156 68.5972 2.80686 69.2353 3.51248 69.6706C4.65348 70.3838 5.90708 70.7366 7.28829 70.7366C8.6695 70.7366 9.83302 70.3312 10.6437 69.5205C11.4469 68.7098 11.8523 67.5913 11.8523 66.1576C11.8523 64.9565 11.5971 63.9957 11.0791 63.2901C10.5612 62.5844 9.55527 61.8038 8.06146 60.9705L6.36498 60.0022C2.70927 57.9379 0.885175 55.6859 0.885175 53.2462C0.885175 51.4071 1.54575 49.8833 2.85941 48.6823C4.17306 47.4812 5.83201 46.8732 7.82125 46.8732C8.68451 46.8732 9.61532 46.9557 10.6212 47.1209C11.6271 47.286 12.7005 47.5413 13.8565 47.8866V52.1278H12.07L12.055 51.85C12.0174 51.272 12.0024 50.8441 12.0024 50.5739C12.0024 49.6731 11.6796 49.005 11.0341 48.5847C10.3885 48.1568 9.37511 47.9466 7.9939 47.9466C6.83789 47.9466 5.90708 48.3219 5.19395 49.0801C4.47332 49.8383 4.12051 50.8366 4.12051 52.0752C4.12051 53.1261 4.36823 53.9969 4.86366 54.6875C5.3591 55.3781 6.25238 56.0837 7.54351 56.8194L9.24 57.7877C11.582 59.1239 13.1659 60.2799 13.9842 61.2708C14.8024 62.2616 15.2077 63.5002 15.2077 64.994C15.2077 66.9833 14.4646 68.6347 12.9933 69.9559C11.5145 71.2695 9.66787 71.9301 7.45343 71.9301C6.1623 71.9301 4.95374 71.8401 3.83526 71.6524C2.70928 71.4722 1.67337 71.202 0.727537 70.8492L0.705017 70.8417Z" fill="white"/>
<path d="M28.1866 68.9277C26.2949 70.7968 24.4183 71.7276 22.5716 71.7276C21.0853 71.7276 19.8468 71.2547 18.8634 70.3164C17.8725 69.378 17.3771 68.192 17.3771 66.7733C17.3771 65.1143 18.0227 63.7707 19.3138 62.7347C20.7851 61.5487 23.2848 60.9557 26.7978 60.9557H27.4584V58.7788C27.4584 56.0163 26.4075 54.6351 24.3132 54.6351C23.3373 54.6351 22.4666 54.9354 21.7159 55.5359C21.273 55.9038 20.9953 56.6469 20.8752 57.7804L20.8601 58.0882H18.6982V54.8754C20.9352 53.8995 23.007 53.4041 24.9212 53.4041C28.727 53.4041 30.6337 55.1531 30.6337 58.6512V66.4655C30.6337 67.8617 30.7538 68.8526 30.994 69.4231C31.2342 69.9936 31.6546 70.2788 32.2626 70.2788C32.4803 70.2788 32.7656 70.2263 33.1184 70.1287L33.216 71.3223C32.4503 71.5925 31.7672 71.7276 31.1667 71.7276C29.5978 71.7276 28.6069 70.7968 28.1941 68.9277H28.1866ZM27.4509 68.5673V61.9391H26.7078C24.8386 61.9391 23.3748 62.3294 22.3239 63.1026C21.273 63.8832 20.74 64.9492 20.74 66.3079C20.74 67.3212 21.0703 68.162 21.7234 68.8376C22.3765 69.5057 23.1947 69.8435 24.1781 69.8435C25.1014 69.8435 26.1973 69.4156 27.4509 68.5673Z" fill="white"/>
<path d="M39.529 57.0823C40.3322 55.8587 41.263 54.9354 42.3214 54.3274C43.3723 53.7118 44.5509 53.4041 45.857 53.4041C47.3583 53.4041 48.5444 53.8995 49.4076 54.8904C50.2559 55.8812 50.6837 57.2399 50.6837 58.9739V67.1411C50.7588 68.74 50.8789 69.6483 51.0516 69.851C51.2242 70.0536 51.9974 70.2038 53.3711 70.3014L53.6638 70.3164V71.3148H44.5208V70.3164L44.8136 70.3014C46.1873 70.2038 46.9605 70.0536 47.1331 69.851C47.3058 69.6483 47.4259 68.7475 47.5009 67.1411V59.4694C47.5009 57.9606 47.3058 56.9171 46.9154 56.3316C46.5251 55.7461 45.8195 55.4534 44.8136 55.4534C44.1005 55.4534 43.3048 55.6786 42.4265 56.1215C41.5482 56.5643 40.5799 57.2399 39.5365 58.1482V67.1411C39.5365 68.6049 39.6566 69.4756 39.8893 69.7534C40.122 70.0311 40.9027 70.2188 42.2163 70.3014L42.5241 70.3164V71.3148H33.3811V70.3164L33.6888 70.3014C34.9875 70.2188 35.7607 70.0311 36.0009 69.7459C36.2411 69.4606 36.3612 68.5899 36.3612 67.1411V57.9831C36.3612 56.5343 36.2411 55.6635 36.0009 55.3858C35.7607 55.1081 34.9875 54.9204 33.6888 54.8228L33.3811 54.8078V53.8094H39.544V57.0823H39.529Z" fill="white"/>
<path d="M64.3607 71.2246C63.5575 71.5549 62.7844 71.7275 62.0562 71.7275C60.1946 71.7275 58.8359 71.2621 57.9877 70.3238C57.1394 69.3854 56.704 67.8992 56.704 65.8574V55.1154H54.1218V53.8093H56.704V50.634L59.8793 49.8458V53.8168H64.7661V55.1229H59.8793V66.2852C59.8793 67.794 60.082 68.86 60.4798 69.498C60.8777 70.1361 61.5608 70.4514 62.5216 70.4514C63.0321 70.4514 63.6476 70.2862 64.3682 69.9484V71.2396L64.3607 71.2246Z" fill="white"/>
<path d="M77.167 68.9277C75.2753 70.7968 73.3987 71.7276 71.5521 71.7276C70.0658 71.7276 68.8272 71.2547 67.8363 70.3164C66.8454 69.378 66.35 68.192 66.35 66.7733C66.35 65.1143 66.9956 63.7707 68.2867 62.7347C69.758 61.5487 72.2577 60.9557 75.7708 60.9557H76.4313V58.7788C76.4313 56.0163 75.3804 54.6351 73.2861 54.6351C72.3102 54.6351 71.4395 54.9354 70.6888 55.5359C70.2459 55.9038 69.9682 56.6469 69.8481 57.7804L69.8331 58.0882H67.6712V54.8754C69.9081 53.8995 71.9799 53.4041 73.8941 53.4041C77.7 53.4041 79.6066 55.1531 79.6066 58.6512V66.4655C79.6066 67.8617 79.7267 68.8526 79.9669 69.4231C80.2071 69.9936 80.6275 70.2788 81.2356 70.2788C81.4532 70.2788 81.7385 70.2263 82.0913 70.1287L82.1889 71.3223C81.4232 71.5925 80.7401 71.7276 80.1396 71.7276C78.5707 71.7276 77.5798 70.7968 77.167 68.9277ZM76.4313 68.5673V61.9391H75.6882C73.8191 61.9391 72.3553 62.3294 71.3043 63.1026C70.2534 63.8832 69.7205 64.9492 69.7205 66.3079C69.7205 67.3212 70.0508 68.162 70.7038 68.8376C71.3569 69.5057 72.1751 69.8435 73.1585 69.8435C74.0818 69.8435 75.1777 69.4156 76.4313 68.5673Z" fill="white"/>
<path d="M97.9377 59.7396V67.1411C97.9377 68.4097 98.0502 69.2429 98.283 69.6332C98.5157 70.0236 99.0036 70.2188 99.7618 70.2188C99.8068 70.2188 100.227 70.2488 101.023 70.3013L101.331 70.3163V71.3147H91.5721V70.3163L91.8798 70.3013C93.1785 70.2187 93.9517 70.0311 94.1919 69.7458C94.4321 69.4606 94.5522 68.5898 94.5522 67.1411V51.6249C94.5522 50.1687 94.4321 49.3054 94.1919 49.0277C93.9517 48.7499 93.1785 48.5698 91.8798 48.4797L91.5721 48.4497V47.4513H107.681V51.6249H105.895L105.88 51.3172C105.79 49.8309 105.677 49.0352 105.542 48.9151C105.399 48.795 104.536 48.7349 102.945 48.7349H97.9452V58.4259H102.314C103.282 58.4259 103.875 58.3809 104.086 58.2833C104.303 58.1857 104.431 57.6753 104.491 56.752L104.506 56.4592H105.797V61.7363H104.506L104.491 61.4285C104.438 60.6103 104.303 60.1224 104.086 59.9723C103.868 59.8146 103.282 59.7396 102.314 59.7396H97.9452H97.9377Z" fill="white"/>
<path d="M123.865 70.5339C121.846 71.3296 120 71.7274 118.333 71.7274C115.766 71.7274 113.672 70.8642 112.065 69.1302C110.459 67.3961 109.655 65.1517 109.655 62.3817C109.655 59.6118 110.376 57.6001 111.817 55.9261C113.259 54.2446 115.105 53.4114 117.365 53.4114C119.452 53.4114 121.058 54.117 122.176 55.5207C123.302 56.9245 123.865 58.9362 123.865 61.541V61.8488H113.176C113.176 64.5812 113.649 66.638 114.602 68.0342C115.556 69.4304 116.967 70.121 118.836 70.121C120.803 70.121 122.484 69.7157 123.865 68.9125V70.5414V70.5339ZM113.236 60.8579H120.495L120.51 60.1448C120.51 58.1105 120.247 56.6467 119.722 55.7384C119.196 54.8376 118.333 54.3872 117.14 54.3872C115.946 54.3872 115 54.9728 114.295 56.1438C113.589 57.3148 113.236 58.8837 113.236 60.8504V60.8579Z" fill="white"/>
<path d="M134.45 48.4497V47.4513H141.296L148.419 64.844L155.393 47.4513H161.391V48.4497L161.083 48.4797C159.784 48.5623 159.011 48.7499 158.771 49.0277C158.531 49.3054 158.411 50.1687 158.411 51.6249V67.1411C158.411 68.5898 158.531 69.4606 158.771 69.7458C159.011 70.0311 159.784 70.2187 161.083 70.3013L161.391 70.3163V71.3147H152.293V70.3163L152.586 70.3013C153.884 70.2187 154.657 70.0311 154.89 69.7458C155.123 69.4606 155.243 68.5898 155.243 67.1411V50.7392L147.774 69.4155H146.58L139.201 50.484V67.1411C139.201 68.5898 139.321 69.4606 139.562 69.7458C139.802 70.0311 140.575 70.2187 141.874 70.3013L142.182 70.3163V71.3147H134.442V70.3163L134.75 70.3013C136.049 70.2187 136.822 70.0311 137.062 69.7458C137.302 69.4606 137.422 68.5898 137.422 67.1411V51.6249C137.422 50.1687 137.302 49.3054 137.07 49.0277C136.829 48.7499 136.056 48.5698 134.75 48.4797L134.442 48.4497H134.45Z" fill="white"/>
<path d="M173.672 68.9277C171.78 70.7968 169.903 71.7276 168.057 71.7276C166.57 71.7276 165.332 71.2547 164.341 70.3164C163.35 69.378 162.855 68.192 162.855 66.7733C162.855 65.1143 163.5 63.7707 164.791 62.7347C166.263 61.5487 168.762 60.9557 172.275 60.9557H172.936V58.7788C172.936 56.0163 171.885 54.6351 169.791 54.6351C168.815 54.6351 167.944 54.9354 167.193 55.5359C166.751 55.9038 166.473 56.6469 166.353 57.7804L166.338 58.0882H164.176V54.8754C166.413 53.8995 168.485 53.4041 170.399 53.4041C174.205 53.4041 176.111 55.1531 176.111 58.6512V66.4655C176.111 67.8617 176.231 68.8526 176.472 69.4231C176.712 69.9936 177.132 70.2788 177.74 70.2788C177.958 70.2788 178.243 70.2263 178.596 70.1287L178.693 71.3223C177.928 71.5925 177.245 71.7276 176.644 71.7276C175.075 71.7276 174.084 70.7968 173.672 68.9277ZM172.936 68.5673V61.9391H172.193C170.324 61.9391 168.86 62.3294 167.809 63.1026C166.758 63.8832 166.225 64.9492 166.225 66.3079C166.225 67.3212 166.555 68.162 167.208 68.8376C167.862 69.5057 168.68 69.8435 169.663 69.8435C170.586 69.8435 171.682 69.4156 172.936 68.5673Z" fill="white"/>
<path d="M189.886 71.2246C189.083 71.5549 188.309 71.7275 187.581 71.7275C185.72 71.7275 184.361 71.2621 183.513 70.3238C182.664 69.3854 182.229 67.8992 182.229 65.8574V55.1154H179.647V53.8093H182.229V50.634L185.404 49.8458V53.8168H190.291V55.1229H185.404V66.2852C185.404 67.794 185.607 68.86 186.005 69.498C186.403 70.1361 187.086 70.4514 188.047 70.4514C188.557 70.4514 189.173 70.2862 189.893 69.9484V71.2396L189.886 71.2246Z" fill="white"/>
<path d="M205.394 70.7217C203.72 71.3898 202.077 71.7201 200.478 71.7201C197.918 71.7201 195.846 70.8644 194.255 69.1529C192.663 67.4414 191.868 65.2119 191.868 62.472C191.868 59.7321 192.633 57.5327 194.165 55.8812C195.696 54.2298 197.738 53.4041 200.282 53.4041C201.581 53.4041 203.285 53.6668 205.394 54.1923V58.3659H203.413L203.398 58.0731C203.398 55.6635 202.339 54.4625 200.222 54.4625C198.684 54.4625 197.46 55.1606 196.552 56.5643C195.643 57.9606 195.185 59.8597 195.185 62.2468C195.185 64.6339 195.726 66.6156 196.799 68.0269C197.873 69.4381 199.337 70.1437 201.183 70.1437C202.775 70.1437 204.178 69.8735 205.394 69.3405V70.7292V70.7217Z" fill="white"/>
<path d="M212.901 57.0823C213.704 55.8588 214.635 54.9354 215.693 54.3274C216.744 53.7119 217.923 53.4041 219.229 53.4041C220.73 53.4041 221.916 53.8995 222.78 54.8904C223.628 55.8813 224.056 57.24 224.056 58.974V67.1411C224.131 68.74 224.251 69.6483 224.424 69.851C224.596 70.0537 225.369 70.2038 226.743 70.3014L227.036 70.3164V71.3148H217.893V70.3164L218.186 70.3014C219.559 70.2038 220.332 70.0537 220.505 69.851C220.678 69.6483 220.798 68.7475 220.873 67.1411V59.4694C220.873 57.9606 220.678 56.9172 220.287 56.3317C219.897 55.7462 219.191 55.4534 218.186 55.4534C217.472 55.4534 216.677 55.6786 215.799 56.1215C214.92 56.5644 213.952 57.24 212.908 58.1482V67.1411C212.908 68.6049 213.029 69.4757 213.261 69.7534C213.494 70.0312 214.275 70.2188 215.588 70.3014L215.896 70.3164V71.3148H206.753V70.3164L207.061 70.3014C208.359 70.2188 209.133 70.0312 209.373 69.7459C209.613 69.4607 209.733 68.5899 209.733 67.1411V50.0336C209.733 48.5849 209.613 47.7141 209.373 47.4289C209.133 47.1436 208.359 46.956 207.061 46.8734L206.753 46.8584V45.86H212.916V57.0898L212.901 57.0823Z" fill="white"/>
<path d="M232.861 57.0673C233.784 55.8437 234.745 54.9279 235.751 54.3199C236.757 53.7118 237.808 53.4041 238.896 53.4041C240.172 53.4041 241.186 53.7118 241.936 54.3199C242.687 54.9279 243.167 55.8437 243.385 57.0673C244.406 55.8437 245.442 54.9279 246.478 54.3199C247.521 53.7118 248.572 53.4041 249.623 53.4041C252.761 53.4041 254.33 55.1231 254.33 58.5686V67.1411C254.33 68.6049 254.442 69.4681 254.675 69.7459C254.908 70.0236 255.681 70.2038 257.002 70.3014L257.31 70.3164V71.3148H248.167V70.3164L248.475 70.3014C249.796 70.2038 250.576 70.0161 250.802 69.7459C251.034 69.4681 251.147 68.6049 251.147 67.1411V59.1391C251.147 57.7504 250.967 56.7895 250.606 56.2491C250.246 55.7161 249.601 55.4458 248.677 55.4458C247.904 55.4458 247.093 55.6711 246.245 56.1215C245.397 56.5718 244.511 57.2549 243.588 58.1557V67.1336C243.588 68.5824 243.708 69.4531 243.941 69.7384C244.173 70.0236 244.954 70.2113 246.26 70.2939L246.568 70.3089V71.3072H237.425V70.3089L237.733 70.2939C239.054 70.2113 239.835 70.0236 240.06 69.7459C240.292 69.4681 240.405 68.5974 240.405 67.1336V59.1316C240.405 57.7654 240.225 56.8046 239.872 56.2641C239.519 55.7236 238.896 55.4458 238.003 55.4458C237.162 55.4458 236.314 55.6711 235.458 56.1215C234.595 56.5718 233.724 57.2549 232.846 58.1557V67.1336C232.846 68.5974 232.966 69.4681 233.199 69.7459C233.431 70.0236 234.212 70.2113 235.526 70.2939L235.834 70.3089V71.3072H226.69V70.3089L226.998 70.2939C228.297 70.2113 229.07 70.0236 229.31 69.7384C229.551 69.4531 229.671 68.5824 229.671 67.1336V57.9756C229.671 56.5268 229.551 55.656 229.31 55.3783C229.07 55.1005 228.297 54.9129 226.998 54.8153L226.69 54.8003V53.8019H232.853V57.0598L232.861 57.0673Z" fill="white"/>
<path d="M268.847 68.9277C266.956 70.7968 265.079 71.7276 263.233 71.7276C261.746 71.7276 260.508 71.2547 259.517 70.3164C258.526 69.378 258.03 68.192 258.03 66.7733C258.03 65.1143 258.676 63.7707 259.967 62.7347C261.438 61.5487 263.938 60.9557 267.451 60.9557H268.112V58.7788C268.112 56.0163 267.061 54.6351 264.967 54.6351C263.991 54.6351 263.12 54.9354 262.369 55.5359C261.926 55.9038 261.649 56.6469 261.529 57.7804L261.514 58.0882H259.352V54.8754C261.589 53.8995 263.66 53.4041 265.575 53.4041C269.38 53.4041 271.287 55.1531 271.287 58.6512V66.4655C271.287 67.8617 271.407 68.8526 271.647 69.4231C271.888 69.9936 272.308 70.2788 272.916 70.2788C273.134 70.2788 273.419 70.2263 273.772 70.1287L273.869 71.3223C273.104 71.5925 272.421 71.7276 271.82 71.7276C270.251 71.7276 269.26 70.7968 268.847 68.9277ZM268.112 68.5673V61.9391H267.369C265.5 61.9391 264.036 62.3294 262.985 63.1026C261.934 63.8832 261.401 64.9492 261.401 66.3079C261.401 67.3212 261.731 68.162 262.384 68.8376C263.037 69.5057 263.856 69.8435 264.839 69.8435C265.762 69.8435 266.858 69.4156 268.112 68.5673Z" fill="white"/>
<path d="M280.182 62.7122V67.1486C280.182 68.5898 280.295 69.4606 280.513 69.7533C280.73 70.0461 281.383 70.2338 282.472 70.3088L282.78 70.3239V71.3222H274.02V70.3239L274.327 70.3088C275.626 70.2263 276.399 70.0386 276.639 69.7533C276.879 69.4681 277 68.5974 277 67.1486V50.0411C277 48.5923 276.879 47.7216 276.639 47.4363C276.399 47.1511 275.626 46.9634 274.327 46.8808L274.02 46.8658V45.8674H280.182V61.9315H280.941L285.002 58.0281C286.743 56.2565 287.614 55.3032 287.614 55.1756C287.614 54.9729 287.321 54.8603 286.728 54.8453C286.135 54.8303 285.73 54.8228 285.505 54.8228H285.167V53.8244H291.99V54.8228L291.682 54.8378C290.541 54.9128 289.813 55.0555 289.498 55.2507C289.183 55.4533 288.169 56.3917 286.473 58.0656L283.41 61.0757L288.665 67.2537C290.001 68.755 290.834 69.6332 291.172 69.8735C291.51 70.1137 292.103 70.2638 292.936 70.3163L293.244 70.3314V71.3297H288.327L280.941 62.7197H280.182V62.7122Z" fill="white"/>
<path d="M299.061 53.8095V67.1487C299.061 68.6125 299.182 69.4833 299.414 69.761C299.647 70.0388 300.428 70.2264 301.741 70.309L302.049 70.324V71.3224H292.906V70.324L293.214 70.309C294.512 70.2264 295.286 70.0388 295.526 69.7535C295.766 69.4683 295.886 68.5975 295.886 67.1487V57.9907C295.886 56.5419 295.766 55.6712 295.526 55.3934C295.286 55.1157 294.512 54.928 293.214 54.8304L292.906 54.8154V53.8171H299.069L299.061 53.8095ZM295.886 50.6343V47.459H299.061V50.6343H295.886Z" fill="white"/>
<path d="M308.287 57.0823C309.09 55.8587 310.021 54.9354 311.079 54.3274C312.13 53.7118 313.309 53.4041 314.615 53.4041C316.116 53.4041 317.302 53.8995 318.166 54.8904C319.014 55.8812 319.442 57.2399 319.442 58.9739V67.1411C319.517 68.74 319.637 69.6483 319.81 69.851C319.982 70.0536 320.755 70.2038 322.129 70.3014L322.422 70.3164V71.3148H313.279V70.3164L313.572 70.3014C314.945 70.2038 315.719 70.0536 315.891 69.851C316.064 69.6483 316.184 68.7475 316.259 67.1411V59.4694C316.259 57.9606 316.064 56.9171 315.673 56.3316C315.283 55.7461 314.578 55.4534 313.572 55.4534C312.858 55.4534 312.063 55.6786 311.185 56.1215C310.306 56.5643 309.338 57.2399 308.295 58.1482V67.1411C308.295 68.6049 308.415 69.4756 308.647 69.7534C308.88 70.0311 309.661 70.2188 310.974 70.3014L311.282 70.3164V71.3148H302.139V70.3164L302.447 70.3014C303.746 70.2188 304.519 70.0311 304.759 69.7459C304.999 69.4606 305.119 68.5899 305.119 67.1411V57.9831C305.119 56.5343 304.999 55.6635 304.759 55.3858C304.519 55.1081 303.746 54.9204 302.447 54.8228L302.139 54.8078V53.8094H308.302V57.0823H308.287Z" fill="white"/>
<path d="M326.048 70.6467C324.832 70.0912 324.223 69.3256 324.223 68.3572C324.223 67.8092 324.479 67.2688 324.989 66.7358C325.5 66.2028 326.265 65.6849 327.286 65.1819C326.1 64.6565 325.214 63.9208 324.614 62.9825C324.013 62.0442 323.721 60.9107 323.721 59.5745C323.721 57.6979 324.321 56.2041 325.522 55.0781C326.723 53.9596 328.322 53.3966 330.334 53.3966C331.557 53.3966 332.668 53.6218 333.659 54.0722L339.807 53.5918L339.004 55.5285L334.793 54.8454C336.166 56.1665 336.857 57.7279 336.857 59.5295C336.857 61.331 336.249 62.8098 335.04 63.9884C333.832 65.1669 332.293 65.7449 330.416 65.7449C329.703 65.7449 328.953 65.6323 328.157 65.4146C327.782 65.7074 327.496 66.0152 327.301 66.3379C327.106 66.6682 327.008 67.0135 327.008 67.3738C327.008 68.132 327.677 68.5148 329.028 68.5148H331.82C334.5 68.5148 336.339 68.8001 337.352 69.3706C338.366 69.9411 338.869 70.977 338.869 72.4858C338.869 74.1748 338.103 75.526 336.579 76.5394C335.055 77.5528 333.029 78.0632 330.514 78.0632C327.999 78.0632 326.183 77.7179 324.726 77.0423C323.263 76.3592 322.535 75.4509 322.535 74.3249C322.535 73.5968 322.827 72.9212 323.413 72.3057C323.998 71.6901 324.877 71.1346 326.048 70.6317V70.6467ZM326.888 70.917C326.49 71.3073 326.19 71.7352 325.995 72.2156C325.792 72.696 325.695 73.2215 325.695 73.807C325.695 74.9105 326.108 75.7437 326.926 76.2992C327.752 76.8546 328.983 77.1324 330.627 77.1324C332.271 77.1324 333.449 76.7871 334.38 76.0965C335.311 75.4059 335.776 74.4751 335.776 73.304C335.776 72.5083 335.498 71.9078 334.935 71.5175C334.372 71.1196 333.532 70.9245 332.406 70.9245H326.888V70.917ZM326.903 59.4544C326.903 61.226 327.189 62.5546 327.759 63.4404C328.33 64.3262 329.178 64.7766 330.304 64.7766C331.43 64.7766 332.278 64.3337 332.834 63.4479C333.389 62.5621 333.674 61.2335 333.674 59.4694C333.674 56.084 332.556 54.3875 330.319 54.3875C329.178 54.3875 328.322 54.8078 327.752 55.6486C327.181 56.4893 326.896 57.7579 326.896 59.4469L326.903 59.4544Z" fill="white"/>
<defs>
<linearGradient id="paint0_linear_232_311" x1="189.503" y1="86.5244" x2="195.849" y2="96.7143" gradientUnits="userSpaceOnUse">
<stop stop-color="#BFA586"/>
<stop offset="0.315" stop-color="#B98F66"/>
<stop offset="1" stop-color="#DDAD8C"/>
</linearGradient>
<linearGradient id="paint1_linear_232_311" x1="199.885" y1="89.2331" x2="204.775" y2="96.6113" gradientUnits="userSpaceOnUse">
<stop stop-color="#BFA586"/>
<stop offset="0.315" stop-color="#B98F66"/>
<stop offset="1" stop-color="#DDAD8C"/>
</linearGradient>
<linearGradient id="paint2_linear_232_311" x1="207.309" y1="89.238" x2="211.998" y2="97.404" gradientUnits="userSpaceOnUse">
<stop stop-color="#BFA586"/>
<stop offset="0.315" stop-color="#B98F66"/>
<stop offset="1" stop-color="#DDAD8C"/>
</linearGradient>
<linearGradient id="paint3_linear_232_311" x1="217.803" y1="89.2323" x2="222.351" y2="97.2694" gradientUnits="userSpaceOnUse">
<stop stop-color="#BFA586"/>
<stop offset="0.315" stop-color="#B98F66"/>
<stop offset="1" stop-color="#DDAD8C"/>
</linearGradient>
<linearGradient id="paint4_linear_232_311" x1="227.374" y1="89.2373" x2="232.519" y2="96.3813" gradientUnits="userSpaceOnUse">
<stop stop-color="#BFA586"/>
<stop offset="0.315" stop-color="#B98F66"/>
<stop offset="1" stop-color="#DDAD8C"/>
</linearGradient>
<linearGradient id="paint5_linear_232_311" x1="235.038" y1="85.926" x2="244.553" y2="94.5848" gradientUnits="userSpaceOnUse">
<stop stop-color="#BFA586"/>
<stop offset="0.315" stop-color="#B98F66"/>
<stop offset="1" stop-color="#DDAD8C"/>
</linearGradient>
<linearGradient id="paint6_linear_232_311" x1="241.621" y1="89.2387" x2="246.493" y2="97.0792" gradientUnits="userSpaceOnUse">
<stop stop-color="#BFA586"/>
<stop offset="0.315" stop-color="#B98F66"/>
<stop offset="1" stop-color="#DDAD8C"/>
</linearGradient>
<linearGradient id="paint7_linear_232_311" x1="251.17" y1="89.2331" x2="256.058" y2="96.6158" gradientUnits="userSpaceOnUse">
<stop stop-color="#BFA586"/>
<stop offset="0.315" stop-color="#B98F66"/>
<stop offset="1" stop-color="#DDAD8C"/>
</linearGradient>
<linearGradient id="paint8_linear_232_311" x1="258.969" y1="89.2323" x2="262.322" y2="98.6487" gradientUnits="userSpaceOnUse">
<stop stop-color="#BFA586"/>
<stop offset="0.315" stop-color="#B98F66"/>
<stop offset="1" stop-color="#DDAD8C"/>
</linearGradient>
<linearGradient id="paint9_linear_232_311" x1="274.673" y1="86.5251" x2="280.915" y2="90.2705" gradientUnits="userSpaceOnUse">
<stop stop-color="#BFA586"/>
<stop offset="0.315" stop-color="#B98F66"/>
<stop offset="1" stop-color="#DDAD8C"/>
</linearGradient>
<linearGradient id="paint10_linear_232_311" x1="279.469" y1="89.2323" x2="284.017" y2="97.2694" gradientUnits="userSpaceOnUse">
<stop stop-color="#BFA586"/>
<stop offset="0.315" stop-color="#B98F66"/>
<stop offset="1" stop-color="#DDAD8C"/>
</linearGradient>
<linearGradient id="paint11_linear_232_311" x1="288.995" y1="89.5675" x2="295.947" y2="99.1541" gradientUnits="userSpaceOnUse">
<stop stop-color="#BFA586"/>
<stop offset="0.315" stop-color="#B98F66"/>
<stop offset="1" stop-color="#DDAD8C"/>
</linearGradient>
<linearGradient id="paint12_linear_232_311" x1="304.684" y1="86.5328" x2="309.811" y2="98.4839" gradientUnits="userSpaceOnUse">
<stop stop-color="#BFA586"/>
<stop offset="0.315" stop-color="#B98F66"/>
<stop offset="1" stop-color="#DDAD8C"/>
</linearGradient>
<linearGradient id="paint13_linear_232_311" x1="320.065" y1="89.253" x2="325.188" y2="96.4806" gradientUnits="userSpaceOnUse">
<stop stop-color="#BFA586"/>
<stop offset="0.315" stop-color="#B98F66"/>
<stop offset="1" stop-color="#DDAD8C"/>
</linearGradient>
<linearGradient id="paint14_linear_232_311" x1="334.14" y1="87.5815" x2="340.596" y2="93.1819" gradientUnits="userSpaceOnUse">
<stop stop-color="#BFA586"/>
<stop offset="0.315" stop-color="#B98F66"/>
<stop offset="1" stop-color="#DDAD8C"/>
</linearGradient>
<linearGradient id="paint15_linear_232_311" x1="339.664" y1="89.2464" x2="344.536" y2="97.0869" gradientUnits="userSpaceOnUse">
<stop stop-color="#BFA586"/>
<stop offset="0.315" stop-color="#B98F66"/>
<stop offset="1" stop-color="#DDAD8C"/>
</linearGradient>
<linearGradient id="paint16_linear_232_311" x1="354.573" y1="86.5483" x2="359.859" y2="98.5579" gradientUnits="userSpaceOnUse">
<stop stop-color="#BFA586"/>
<stop offset="0.315" stop-color="#B98F66"/>
<stop offset="1" stop-color="#DDAD8C"/>
</linearGradient>
<linearGradient id="paint17_linear_232_311" x1="368.557" y1="89.253" x2="373.68" y2="96.4806" gradientUnits="userSpaceOnUse">
<stop stop-color="#BFA586"/>
<stop offset="0.315" stop-color="#B98F66"/>
<stop offset="1" stop-color="#DDAD8C"/>
</linearGradient>
</defs>
</svg>
