<svg width="428" height="429" viewBox="0 0 428 429" fill="none" xmlns="http://www.w3.org/2000/svg">
<path opacity="0.02" fill-rule="evenodd" clip-rule="evenodd" d="M214 407C319.99 407 406 320.863 406 214.5C406 108.137 319.99 22 214 22C108.01 22 22 108.137 22 214.5C22 320.863 108.01 407 214 407ZM214 429C332.189 429 428 332.965 428 214.5C428 96.0349 332.189 0 214 0C95.8111 0 0 96.0349 0 214.5C0 332.965 95.8111 429 214 429Z" fill="#5A7298"/>
<path opacity="0.02" fill-rule="evenodd" clip-rule="evenodd" d="M213.834 352C289.432 352 350.834 290.504 350.834 214.5C350.834 138.496 289.432 77 213.834 77C138.236 77 76.834 138.496 76.834 214.5C76.834 290.504 138.236 352 213.834 352ZM213.834 374C301.647 374 372.834 302.589 372.834 214.5C372.834 126.411 301.647 55 213.834 55C126.021 55 54.834 126.411 54.834 214.5C54.834 302.589 126.021 374 213.834 374Z" fill="#5A7298"/>
<path opacity="0.05" fill-rule="evenodd" clip-rule="evenodd" d="M213.834 310C266.248 310 308.834 267.296 308.834 214.5C308.834 161.704 266.248 119 213.834 119C161.42 119 118.834 161.704 118.834 214.5C118.834 267.296 161.42 310 213.834 310ZM213.834 322C272.928 322 320.834 273.871 320.834 214.5C320.834 155.129 272.928 107 213.834 107C154.74 107 106.834 155.129 106.834 214.5C106.834 273.871 154.74 322 213.834 322Z" fill="#5A7298"/>
<path opacity="0.15" fill-rule="evenodd" clip-rule="evenodd" d="M213.334 279C248.956 279 277.834 250.122 277.834 214.5C277.834 178.878 248.956 150 213.334 150C177.712 150 148.834 178.878 148.834 214.5C148.834 250.122 177.712 279 213.334 279ZM213.334 285C252.27 285 283.834 253.436 283.834 214.5C283.834 175.564 252.27 144 213.334 144C174.398 144 142.834 175.564 142.834 214.5C142.834 253.436 174.398 285 213.334 285Z" fill="#5A7298"/>
<path fill-rule="evenodd" clip-rule="evenodd" d="M222.5 255.616C219.702 256.195 216.804 256.5 213.834 256.5C190.362 256.5 171.334 237.472 171.334 214C171.334 190.528 190.362 171.5 213.834 171.5C237.306 171.5 256.334 190.528 256.334 214C256.334 216.054 256.188 218.075 255.906 220.051L258.357 220.576C258.671 218.43 258.834 216.234 258.834 214C258.834 189.147 238.687 169 213.834 169C188.981 169 168.834 189.147 168.834 214C168.834 238.853 188.981 259 213.834 259C216.987 259 220.064 258.676 223.034 258.059L222.5 255.616Z" fill="#5A7298"/>
<g clip-path="url(#clip0_375_1968)">
<path d="M244.096 244.267L244.096 238.431L250.349 240.098L252.851 237.18L258.27 238.431L264.107 237.18L267.859 241.349L273.695 240.098L275.78 243.016L278.698 257.608L274.529 266.78L264.107 272.199L252.851 269.698C250.905 268.586 246.931 266.279 246.597 265.946C246.264 265.612 248.126 260.248 249.098 257.608L244.096 244.267Z" fill="#F0F1F3"/>
<path d="M238.324 232.634C237.882 231.367 237.962 229.976 238.545 228.768C239.129 227.56 240.169 226.633 241.436 226.191C242.703 225.75 244.093 225.83 245.302 226.413C246.51 226.997 247.437 228.037 247.878 229.304L251.614 240.021C251.725 240.341 251.705 240.691 251.558 240.996C251.41 241.301 251.148 241.534 250.829 241.646C250.509 241.757 250.159 241.737 249.854 241.59C249.549 241.443 249.316 241.18 249.204 240.861L245.469 230.143C245.25 229.515 244.79 229 244.192 228.711C243.593 228.421 242.904 228.382 242.276 228.601C241.648 228.82 241.132 229.279 240.843 229.878C240.554 230.477 240.514 231.166 240.733 231.794L249.449 256.802C249.56 257.121 249.54 257.472 249.393 257.777C249.246 258.081 248.984 258.315 248.664 258.426C248.345 258.538 247.994 258.518 247.689 258.37C247.385 258.223 247.151 257.961 247.04 257.642L238.324 232.634Z" fill="#51698F" stroke="#F2F3F5" stroke-width="0.2"/>
<path d="M239.563 253.648L239.562 253.648C239.044 253.35 238.431 253.262 237.85 253.402C237.269 253.542 236.763 253.9 236.438 254.402C236.112 254.903 235.991 255.51 236.1 256.098C236.208 256.686 236.538 257.21 237.021 257.562L237.022 257.563L247.81 265.341C248.084 265.54 248.269 265.839 248.323 266.173C248.377 266.507 248.295 266.849 248.097 267.123C247.899 267.398 247.6 267.582 247.266 267.636C246.932 267.69 246.59 267.609 246.315 267.411L246.315 267.411L235.53 259.631C235.53 259.631 235.53 259.631 235.53 259.631C234.525 258.893 233.84 257.798 233.616 256.571C233.392 255.344 233.645 254.077 234.324 253.031C235.003 251.985 236.056 251.237 237.268 250.942C238.48 250.647 239.759 250.826 240.843 251.443C240.843 251.443 240.843 251.443 240.843 251.443L248.882 256.118L248.883 256.118C249.03 256.202 249.159 256.313 249.262 256.446C249.365 256.58 249.441 256.732 249.485 256.895C249.53 257.058 249.541 257.228 249.519 257.395C249.497 257.562 249.442 257.723 249.357 257.869C249.272 258.015 249.159 258.143 249.025 258.245C248.891 258.347 248.737 258.421 248.574 258.463C248.411 258.506 248.241 258.515 248.074 258.491C247.907 258.467 247.746 258.411 247.601 258.324L247.6 258.324L239.563 253.648ZM249.532 241.839C249.09 240.572 249.17 239.181 249.754 237.973C250.337 236.765 251.377 235.838 252.644 235.397C253.911 234.955 255.302 235.035 256.51 235.618C257.718 236.202 258.645 237.242 259.086 238.509L261.101 244.29C261.213 244.609 261.192 244.96 261.045 245.265C260.898 245.569 260.636 245.803 260.316 245.914C259.997 246.026 259.646 246.006 259.342 245.858C259.037 245.711 258.803 245.449 258.692 245.13L256.677 239.349C256.458 238.721 255.999 238.205 255.4 237.916C254.801 237.627 254.112 237.587 253.484 237.806C252.856 238.025 252.34 238.484 252.051 239.083C251.762 239.682 251.722 240.371 251.941 240.999L254.318 247.819C254.43 248.139 254.41 248.49 254.262 248.794C254.115 249.099 253.853 249.333 253.534 249.444C253.214 249.555 252.863 249.535 252.559 249.388C252.254 249.241 252.02 248.979 251.909 248.659L249.532 241.839Z" fill="#51698F" stroke="#F2F3F5" stroke-width="0.2"/>
<path d="M267.136 238.612L267.136 238.612L267.137 238.614L269.062 244.138C269.173 244.457 269.153 244.808 269.006 245.113C268.859 245.417 268.597 245.651 268.277 245.763C267.958 245.874 267.607 245.854 267.302 245.707C266.998 245.559 266.764 245.297 266.653 244.978L264.728 239.455C264.628 239.135 264.464 238.838 264.247 238.582C264.03 238.326 263.763 238.116 263.463 237.965C263.163 237.814 262.836 237.725 262.5 237.703C262.165 237.681 261.829 237.727 261.511 237.838C261.194 237.948 260.902 238.122 260.653 238.348C260.405 238.574 260.204 238.847 260.063 239.152C259.922 239.457 259.844 239.788 259.833 240.124C259.823 240.459 259.88 240.793 260.001 241.106L260.568 242.725L260.568 242.725C260.623 242.883 260.647 243.05 260.638 243.218C260.629 243.385 260.587 243.549 260.514 243.7C260.441 243.851 260.34 243.986 260.215 244.098C260.09 244.21 259.945 244.296 259.786 244.351C259.628 244.406 259.461 244.43 259.294 244.421C259.126 244.412 258.963 244.37 258.812 244.297C258.661 244.224 258.525 244.123 258.414 243.998C258.302 243.873 258.216 243.728 258.16 243.57C258.16 243.57 258.16 243.569 258.16 243.569L257.594 241.952L257.594 241.952L257.593 241.95C257.356 241.319 257.247 240.647 257.273 239.974C257.3 239.3 257.46 238.639 257.746 238.029C258.031 237.418 258.436 236.871 258.936 236.419C259.435 235.968 260.021 235.62 260.657 235.398C261.293 235.175 261.967 235.082 262.639 235.124C263.312 235.166 263.969 235.342 264.573 235.641C265.177 235.941 265.714 236.358 266.154 236.868C266.595 237.378 266.928 237.971 267.136 238.612Z" fill="#51698F" stroke="#F2F3F5" stroke-width="0.2"/>
<path d="M269.653 238.211C272.29 237.292 275.175 238.683 276.095 241.323L279.378 250.741C279.489 251.061 279.469 251.412 279.322 251.716C279.174 252.021 278.912 252.255 278.593 252.366C278.273 252.477 277.923 252.457 277.618 252.31C277.313 252.163 277.08 251.901 276.968 251.581L273.686 242.163C273.23 240.856 271.799 240.164 270.492 240.62L269.518 240.96C269.148 241.088 268.845 241.359 268.675 241.711C268.519 242.034 268.486 242.4 268.58 242.743L266.169 243.584C265.854 242.601 265.927 241.533 266.377 240.601C266.842 239.64 267.67 238.902 268.678 238.55L269.653 238.211Z" fill="#51698F" stroke="#F2F3F5" stroke-width="0.2"/>
<path d="M278.232 264.592L278.231 264.592C275.903 268.191 272.07 270.666 267.994 272.086C263.882 273.519 260.044 273.7 256.405 272.812L256.405 272.812C252.781 271.93 249.429 270.009 246.246 267.354C246.117 267.247 246.011 267.115 245.933 266.967C245.855 266.818 245.808 266.656 245.793 266.489C245.778 266.322 245.796 266.154 245.846 265.994C245.896 265.834 245.977 265.685 246.084 265.557C246.192 265.428 246.323 265.322 246.472 265.244C246.62 265.167 246.782 265.119 246.949 265.104C247.116 265.089 247.284 265.107 247.444 265.157C247.604 265.207 247.753 265.288 247.881 265.395L247.881 265.395C250.859 267.878 253.868 269.568 257.008 270.335L257.008 270.335C260.136 271.095 263.472 270.96 267.154 269.677C270.874 268.38 274.156 266.189 276.089 263.204C277.988 260.271 278.672 256.437 276.978 251.578C276.867 251.258 276.887 250.907 277.034 250.603C277.182 250.298 277.444 250.064 277.763 249.953C278.083 249.842 278.433 249.862 278.738 250.009C279.043 250.156 279.276 250.418 279.388 250.738C281.316 256.272 280.596 260.94 278.232 264.592Z" fill="#51698F" stroke="#F2F3F5" stroke-width="0.2"/>
</g>
<path d="M234.09 211.035L234.091 211.035C234.6 211.345 235.02 211.78 235.312 212.299C235.604 212.819 235.757 213.404 235.757 214C235.757 214.596 235.604 215.181 235.312 215.701C235.02 216.22 234.6 216.655 234.091 216.965L234.09 216.965L205.95 234.178C205.42 234.501 204.814 234.678 204.194 234.69C203.574 234.702 202.961 234.549 202.419 234.248C201.877 233.946 201.425 233.506 201.109 232.972C200.793 232.439 200.624 231.831 200.619 231.211V196.789C200.624 196.169 200.793 195.561 201.109 195.028C201.425 194.494 201.877 194.054 202.419 193.752C202.961 193.451 203.574 193.298 204.194 193.31C204.814 193.322 205.42 193.499 205.95 193.822C205.95 193.822 205.95 193.822 205.95 193.822L234.09 211.035ZM204.506 229.791V230.505L205.115 230.132L230.927 214.341L231.485 214L230.927 213.659L205.115 197.868L204.506 197.495V198.209V229.791Z" fill="#B11768" stroke="#F2F3F5" stroke-width="0.8"/>
<defs>
<clipPath id="clip0_375_1968">
<rect width="55.0303" height="55.0303" fill="white" transform="translate(222.834 231.111) rotate(-19.2151)"/>
</clipPath>
</defs>
</svg>
