<svg width="428" height="429" viewBox="0 0 428 429" fill="none" xmlns="http://www.w3.org/2000/svg">
<path opacity="0.02" fill-rule="evenodd" clip-rule="evenodd" d="M214 407C319.99 407 406 320.863 406 214.5C406 108.137 319.99 22 214 22C108.01 22 22 108.137 22 214.5C22 320.863 108.01 407 214 407ZM214 429C332.189 429 428 332.965 428 214.5C428 96.0349 332.189 0 214 0C95.8111 0 0 96.0349 0 214.5C0 332.965 95.8111 429 214 429Z" fill="#5A7298"/>
<path opacity="0.02" fill-rule="evenodd" clip-rule="evenodd" d="M213.834 352C289.432 352 350.834 290.504 350.834 214.5C350.834 138.496 289.432 77 213.834 77C138.236 77 76.834 138.496 76.834 214.5C76.834 290.504 138.236 352 213.834 352ZM213.834 374C301.647 374 372.834 302.589 372.834 214.5C372.834 126.411 301.647 55 213.834 55C126.021 55 54.834 126.411 54.834 214.5C54.834 302.589 126.021 374 213.834 374Z" fill="#5A7298"/>
<path opacity="0.05" fill-rule="evenodd" clip-rule="evenodd" d="M213.834 310C266.248 310 308.834 267.296 308.834 214.5C308.834 161.704 266.248 119 213.834 119C161.42 119 118.834 161.704 118.834 214.5C118.834 267.296 161.42 310 213.834 310ZM213.834 322C272.928 322 320.834 273.871 320.834 214.5C320.834 155.129 272.928 107 213.834 107C154.74 107 106.834 155.129 106.834 214.5C106.834 273.871 154.74 322 213.834 322Z" fill="#5A7298"/>
<path opacity="0.15" fill-rule="evenodd" clip-rule="evenodd" d="M213.334 279C248.956 279 277.834 250.122 277.834 214.5C277.834 178.878 248.956 150 213.334 150C177.712 150 148.834 178.878 148.834 214.5C148.834 250.122 177.712 279 213.334 279ZM213.334 285C252.27 285 283.834 253.436 283.834 214.5C283.834 175.564 252.27 144 213.334 144C174.398 144 142.834 175.564 142.834 214.5C142.834 253.436 174.398 285 213.334 285Z" fill="#5A7298"/>
<path fill-rule="evenodd" clip-rule="evenodd" d="M222.5 255.616C219.702 256.195 216.804 256.5 213.834 256.5C190.362 256.5 171.334 237.472 171.334 214C171.334 190.528 190.362 171.5 213.834 171.5C237.306 171.5 256.334 190.528 256.334 214C256.334 216.054 256.188 218.075 255.906 220.051L258.357 220.576C258.671 218.43 258.834 216.234 258.834 214C258.834 189.147 238.687 169 213.834 169C188.981 169 168.834 189.147 168.834 214C168.834 238.853 188.981 259 213.834 259C216.987 259 220.064 258.676 223.034 258.059L222.5 255.616Z" fill="#5A7298"/>
<g clip-path="url(#clip0_375_2008)">
<path d="M244.096 244.267L244.096 238.431L250.349 240.098L252.851 237.18L258.27 238.431L264.107 237.18L267.859 241.349L273.695 240.098L275.78 243.016L278.698 257.608L274.529 266.78L264.107 272.199L252.851 269.698C250.905 268.586 246.931 266.279 246.597 265.946C246.264 265.612 248.126 260.248 249.098 257.608L244.096 244.267Z" fill="#F0F1F3"/>
<path d="M238.324 232.634C237.882 231.367 237.962 229.976 238.545 228.768C239.129 227.56 240.169 226.633 241.436 226.191C242.703 225.75 244.093 225.83 245.302 226.413C246.51 226.997 247.437 228.037 247.878 229.304L251.614 240.021C251.725 240.341 251.705 240.691 251.558 240.996C251.41 241.301 251.148 241.534 250.829 241.646C250.509 241.757 250.159 241.737 249.854 241.59C249.549 241.443 249.316 241.18 249.204 240.861L245.469 230.143C245.25 229.515 244.79 229 244.192 228.711C243.593 228.421 242.904 228.382 242.276 228.601C241.648 228.82 241.132 229.279 240.843 229.878C240.554 230.477 240.514 231.166 240.733 231.794L249.449 256.802C249.56 257.121 249.54 257.472 249.393 257.777C249.246 258.081 248.984 258.315 248.664 258.426C248.345 258.538 247.994 258.518 247.689 258.37C247.385 258.223 247.151 257.961 247.04 257.642L238.324 232.634Z" fill="#51698F" stroke="#F2F3F5" stroke-width="0.2"/>
<path d="M239.563 253.648L239.562 253.648C239.044 253.35 238.431 253.262 237.85 253.402C237.269 253.542 236.763 253.9 236.438 254.402C236.112 254.903 235.991 255.51 236.1 256.098C236.208 256.686 236.538 257.21 237.021 257.562L237.022 257.563L247.81 265.341C248.084 265.54 248.269 265.839 248.323 266.173C248.377 266.507 248.295 266.849 248.097 267.123C247.899 267.398 247.6 267.582 247.266 267.636C246.932 267.69 246.59 267.609 246.315 267.411L246.315 267.411L235.53 259.631C235.53 259.631 235.53 259.631 235.53 259.631C234.525 258.893 233.84 257.798 233.616 256.571C233.392 255.344 233.645 254.077 234.324 253.031C235.003 251.985 236.056 251.237 237.268 250.942C238.48 250.647 239.759 250.826 240.843 251.443C240.843 251.443 240.843 251.443 240.843 251.443L248.882 256.118L248.883 256.118C249.03 256.202 249.159 256.313 249.262 256.446C249.365 256.58 249.441 256.732 249.485 256.895C249.53 257.058 249.541 257.228 249.519 257.395C249.497 257.562 249.442 257.723 249.357 257.869C249.272 258.015 249.159 258.143 249.025 258.245C248.891 258.347 248.737 258.421 248.574 258.463C248.411 258.506 248.241 258.515 248.074 258.491C247.907 258.467 247.746 258.411 247.601 258.324L247.6 258.324L239.563 253.648ZM249.532 241.839C249.09 240.572 249.17 239.181 249.754 237.973C250.337 236.765 251.377 235.838 252.644 235.397C253.911 234.955 255.302 235.035 256.51 235.618C257.718 236.202 258.645 237.242 259.086 238.509L261.101 244.29C261.213 244.609 261.192 244.96 261.045 245.265C260.898 245.569 260.636 245.803 260.316 245.914C259.997 246.026 259.646 246.006 259.342 245.858C259.037 245.711 258.803 245.449 258.692 245.13L256.677 239.349C256.458 238.721 255.999 238.205 255.4 237.916C254.801 237.627 254.112 237.587 253.484 237.806C252.856 238.025 252.34 238.484 252.051 239.083C251.762 239.682 251.722 240.371 251.941 240.999L254.318 247.819C254.43 248.139 254.41 248.49 254.262 248.794C254.115 249.099 253.853 249.333 253.534 249.444C253.214 249.555 252.863 249.535 252.559 249.388C252.254 249.241 252.02 248.979 251.909 248.659L249.532 241.839Z" fill="#51698F" stroke="#F2F3F5" stroke-width="0.2"/>
<path d="M267.136 238.612L267.136 238.612L267.137 238.614L269.062 244.138C269.173 244.457 269.153 244.808 269.006 245.113C268.859 245.417 268.597 245.651 268.277 245.763C267.958 245.874 267.607 245.854 267.302 245.707C266.998 245.559 266.764 245.297 266.653 244.978L264.728 239.455C264.628 239.135 264.464 238.838 264.247 238.582C264.03 238.326 263.763 238.116 263.463 237.965C263.163 237.814 262.836 237.725 262.5 237.703C262.165 237.681 261.829 237.727 261.511 237.838C261.194 237.948 260.902 238.122 260.653 238.348C260.405 238.574 260.204 238.847 260.063 239.152C259.922 239.457 259.844 239.788 259.833 240.124C259.823 240.459 259.88 240.793 260.001 241.106L260.568 242.725L260.568 242.725C260.623 242.883 260.647 243.05 260.638 243.218C260.629 243.385 260.587 243.549 260.514 243.7C260.441 243.851 260.34 243.986 260.215 244.098C260.09 244.21 259.945 244.296 259.786 244.351C259.628 244.406 259.461 244.43 259.294 244.421C259.126 244.412 258.963 244.37 258.812 244.297C258.661 244.224 258.525 244.123 258.414 243.998C258.302 243.873 258.216 243.728 258.16 243.57C258.16 243.57 258.16 243.569 258.16 243.569L257.594 241.952L257.594 241.952L257.593 241.95C257.356 241.319 257.247 240.647 257.273 239.974C257.3 239.3 257.46 238.639 257.746 238.029C258.031 237.418 258.436 236.871 258.936 236.419C259.435 235.968 260.021 235.62 260.657 235.398C261.293 235.175 261.967 235.082 262.639 235.124C263.312 235.166 263.969 235.342 264.573 235.641C265.177 235.941 265.714 236.358 266.154 236.868C266.595 237.378 266.928 237.971 267.136 238.612Z" fill="#51698F" stroke="#F2F3F5" stroke-width="0.2"/>
<path d="M269.653 238.211C272.29 237.292 275.175 238.683 276.095 241.323L279.378 250.741C279.489 251.061 279.469 251.412 279.322 251.716C279.174 252.021 278.912 252.255 278.593 252.366C278.273 252.477 277.923 252.457 277.618 252.31C277.313 252.163 277.08 251.901 276.968 251.581L273.686 242.163C273.23 240.856 271.799 240.164 270.492 240.62L269.518 240.96C269.148 241.088 268.845 241.359 268.675 241.711C268.519 242.034 268.486 242.4 268.58 242.743L266.169 243.584C265.854 242.601 265.927 241.533 266.377 240.601C266.842 239.64 267.67 238.902 268.678 238.55L269.653 238.211Z" fill="#51698F" stroke="#F2F3F5" stroke-width="0.2"/>
<path d="M278.232 264.592L278.231 264.592C275.903 268.191 272.07 270.666 267.994 272.086C263.882 273.519 260.044 273.7 256.405 272.812L256.405 272.812C252.781 271.93 249.429 270.009 246.246 267.354C246.117 267.247 246.011 267.115 245.933 266.967C245.855 266.818 245.808 266.656 245.793 266.489C245.778 266.322 245.796 266.154 245.846 265.994C245.896 265.834 245.977 265.685 246.084 265.557C246.192 265.428 246.323 265.322 246.472 265.244C246.62 265.167 246.782 265.119 246.949 265.104C247.116 265.089 247.284 265.107 247.444 265.157C247.604 265.207 247.753 265.288 247.881 265.395L247.881 265.395C250.859 267.878 253.868 269.568 257.008 270.335L257.008 270.335C260.136 271.095 263.472 270.96 267.154 269.677C270.874 268.38 274.156 266.189 276.089 263.204C277.988 260.271 278.672 256.437 276.978 251.578C276.867 251.258 276.887 250.907 277.034 250.603C277.182 250.298 277.444 250.064 277.763 249.953C278.083 249.842 278.433 249.862 278.738 250.009C279.043 250.156 279.276 250.418 279.388 250.738C281.316 256.272 280.596 260.94 278.232 264.592Z" fill="#51698F" stroke="#F2F3F5" stroke-width="0.2"/>
</g>
<mask id="path-12-inside-1_375_2008" fill="white">
<path d="M218.626 198.667H218.636ZM218.626 198.667L213.834 210.167L223.418 215.721L209.043 229.333L213.834 217.833L204.251 212.275L218.626 198.667ZM218.626 194.833C217.643 194.838 216.698 195.215 215.983 195.889L201.614 209.488C201.181 209.899 200.849 210.404 200.646 210.965C200.443 211.526 200.374 212.127 200.445 212.72C200.583 213.92 201.282 214.985 202.327 215.591L209.001 219.464L205.501 227.861C205.259 228.444 205.165 229.078 205.226 229.705C205.288 230.333 205.503 230.936 205.853 231.461C206.203 231.986 206.677 232.417 207.233 232.715C207.789 233.013 208.41 233.169 209.041 233.171C209.995 233.171 210.944 232.814 211.676 232.12L226.051 218.506C226.485 218.096 226.816 217.591 227.019 217.03C227.222 216.469 227.291 215.869 227.22 215.277C227.152 214.685 226.946 214.117 226.619 213.618C226.292 213.12 225.854 212.705 225.338 212.405L218.664 208.538L222.093 200.309C222.371 199.725 222.495 199.079 222.456 198.434C222.417 197.788 222.215 197.163 221.869 196.616C221.522 196.069 221.044 195.619 220.477 195.308C219.91 194.996 219.273 194.833 218.626 194.833Z"/>
</mask>
<path d="M218.626 198.667H218.636ZM218.626 198.667L213.834 210.167L223.418 215.721L209.043 229.333L213.834 217.833L204.251 212.275L218.626 198.667ZM218.626 194.833C217.643 194.838 216.698 195.215 215.983 195.889L201.614 209.488C201.181 209.899 200.849 210.404 200.646 210.965C200.443 211.526 200.374 212.127 200.445 212.72C200.583 213.92 201.282 214.985 202.327 215.591L209.001 219.464L205.501 227.861C205.259 228.444 205.165 229.078 205.226 229.705C205.288 230.333 205.503 230.936 205.853 231.461C206.203 231.986 206.677 232.417 207.233 232.715C207.789 233.013 208.41 233.169 209.041 233.171C209.995 233.171 210.944 232.814 211.676 232.12L226.051 218.506C226.485 218.096 226.816 217.591 227.019 217.03C227.222 216.469 227.291 215.869 227.22 215.277C227.152 214.685 226.946 214.117 226.619 213.618C226.292 213.12 225.854 212.705 225.338 212.405L218.664 208.538L222.093 200.309C222.371 199.725 222.495 199.079 222.456 198.434C222.417 197.788 222.215 197.163 221.869 196.616C221.522 196.069 221.044 195.619 220.477 195.308C219.91 194.996 219.273 194.833 218.626 194.833Z" fill="#B11768"/>
<path d="M218.626 198.667V198.167H218.427L218.282 198.304L218.626 198.667ZM213.834 210.167L213.373 209.974L213.204 210.379L213.584 210.599L213.834 210.167ZM223.418 215.721L223.762 216.084L224.247 215.624L223.669 215.289L223.418 215.721ZM209.043 229.333L208.581 229.141L209.387 229.696L209.043 229.333ZM213.834 217.833L214.296 218.026L214.465 217.621L214.085 217.401L213.834 217.833ZM204.251 212.275L203.907 211.912L203.422 212.372L204 212.708L204.251 212.275ZM218.626 194.833L218.626 194.333L218.624 194.333L218.626 194.833ZM215.983 195.889L215.64 195.526L215.639 195.526L215.983 195.889ZM201.614 209.488L201.27 209.125L201.27 209.125L201.614 209.488ZM200.445 212.72L200.941 212.663L200.941 212.661L200.445 212.72ZM202.327 215.591L202.578 215.158L202.578 215.158L202.327 215.591ZM209.001 219.464L209.462 219.657L209.631 219.252L209.252 219.032L209.001 219.464ZM205.501 227.861L205.039 227.669L205.039 227.67L205.501 227.861ZM209.041 233.171L209.04 233.671H209.041V233.171ZM211.676 232.12L211.333 231.757L211.332 231.757L211.676 232.12ZM226.051 218.506L225.708 218.143L225.708 218.143L226.051 218.506ZM227.22 215.277L226.724 215.334L226.724 215.336L227.22 215.277ZM225.338 212.405L225.589 211.973L225.589 211.973L225.338 212.405ZM218.664 208.538L218.203 208.345L218.034 208.75L218.414 208.97L218.664 208.538ZM222.093 200.309L221.642 200.095L221.637 200.106L221.632 200.117L222.093 200.309ZM218.626 199.167H218.636V198.167H218.626V199.167ZM218.165 198.474L213.373 209.974L214.296 210.359L219.088 198.859L218.165 198.474ZM213.584 210.599L223.167 216.154L223.669 215.289L214.085 209.734L213.584 210.599ZM223.074 215.358L208.699 228.97L209.387 229.696L223.762 216.084L223.074 215.358ZM209.504 229.526L214.296 218.026L213.373 217.641L208.581 229.141L209.504 229.526ZM214.085 217.401L204.502 211.842L204 212.708L213.584 218.266L214.085 217.401ZM204.595 212.638L218.97 199.03L218.282 198.304L203.907 211.912L204.595 212.638ZM218.624 194.333C217.514 194.338 216.448 194.764 215.64 195.526L216.326 196.253C216.949 195.666 217.772 195.337 218.628 195.333L218.624 194.333ZM215.639 195.526L201.27 209.125L201.958 209.851L216.327 196.253L215.639 195.526ZM201.27 209.125C200.78 209.589 200.406 210.161 200.176 210.795L201.117 211.136C201.293 210.648 201.581 210.208 201.958 209.851L201.27 209.125ZM200.176 210.795C199.947 211.43 199.869 212.109 199.948 212.779L200.941 212.661C200.88 212.146 200.94 211.623 201.117 211.136L200.176 210.795ZM199.948 212.777C200.104 214.134 200.895 215.339 202.076 216.023L202.578 215.158C201.669 214.632 201.061 213.705 200.941 212.663L199.948 212.777ZM202.076 216.023L208.75 219.897L209.252 219.032L202.578 215.158L202.076 216.023ZM208.539 219.272L205.039 227.669L205.962 228.054L209.462 219.657L208.539 219.272ZM205.039 227.67C204.766 228.329 204.659 229.044 204.729 229.754L205.724 229.657C205.671 229.111 205.753 228.56 205.963 228.053L205.039 227.67ZM204.729 229.754C204.798 230.464 205.042 231.145 205.437 231.739L206.269 231.184C205.965 230.727 205.778 230.203 205.724 229.657L204.729 229.754ZM205.437 231.739C205.833 232.332 206.368 232.819 206.997 233.155L207.469 232.274C206.986 232.015 206.574 231.64 206.269 231.184L205.437 231.739ZM206.997 233.155C207.625 233.492 208.327 233.669 209.04 233.671L209.042 232.671C208.493 232.67 207.953 232.533 207.469 232.274L206.997 233.155ZM209.041 233.671C210.12 233.671 211.193 233.268 212.02 232.483L211.332 231.757C210.696 232.361 209.871 232.671 209.041 232.671V233.671ZM212.02 232.483L226.395 218.869L225.708 218.143L211.333 231.757L212.02 232.483ZM226.395 218.869C226.885 218.406 227.26 217.834 227.489 217.2L226.549 216.86C226.372 217.347 226.084 217.787 225.708 218.143L226.395 218.869ZM227.489 217.2C227.719 216.566 227.797 215.887 227.717 215.217L226.724 215.336C226.785 215.85 226.725 216.372 226.549 216.86L227.489 217.2ZM227.717 215.219C227.639 214.55 227.407 213.908 227.037 213.344L226.201 213.892C226.485 214.326 226.664 214.82 226.724 215.334L227.717 215.219ZM227.037 213.344C226.668 212.781 226.172 212.311 225.589 211.973L225.087 212.838C225.535 213.098 225.917 213.459 226.201 213.892L227.037 213.344ZM225.589 211.973L218.915 208.105L218.414 208.97L225.088 212.838L225.589 211.973ZM219.126 208.73L222.555 200.502L221.632 200.117L218.203 208.345L219.126 208.73ZM222.545 200.524C222.859 199.863 223 199.133 222.955 198.403L221.957 198.464C221.991 199.026 221.883 199.587 221.642 200.095L222.545 200.524ZM222.955 198.403C222.911 197.673 222.682 196.966 222.291 196.349L221.446 196.883C221.747 197.359 221.923 197.903 221.957 198.464L222.955 198.403ZM222.291 196.349C221.9 195.731 221.358 195.222 220.718 194.869L220.236 195.746C220.729 196.017 221.145 196.408 221.446 196.883L222.291 196.349ZM220.718 194.869C220.077 194.517 219.357 194.333 218.626 194.333L218.627 195.333C219.189 195.333 219.743 195.475 220.236 195.746L220.718 194.869Z" fill="#F3F4F5" mask="url(#path-12-inside-1_375_2008)"/>
<defs>
<clipPath id="clip0_375_2008">
<rect width="55.0303" height="55.0303" fill="white" transform="translate(222.834 231.111) rotate(-19.2151)"/>
</clipPath>
</defs>
</svg>
